STARTFONT 2.3
FONT -FontForge-STIX Two Math-Book-R-Normal--8-80-72-72-P-55-ISO10646-1
SIZE 8 72 72  4
FONTBOUNDINGBOX 33 34 -8 -13
COMMENT "Generated by fontforge, http://fontforge.sourceforge.net"
COMMENT "Copyright 2001-2021 The STIX Fonts Project Authors (https://github.com/stipub/stixfonts)"
STARTPROPERTIES 41
FOUNDRY "FontForge"
FAMILY_NAME "STIX Two Math"
WEIGHT_NAME "Book"
SLANT "R"
SETWIDTH_NAME "Normal"
ADD_STYLE_NAME ""
PIXEL_SIZE 8
POINT_SIZE 80
RESOLUTION_X 72
RESOLUTION_Y 72
SPACING "P"
AVERAGE_WIDTH 55
CHARSET_REGISTRY "ISO10646"
CHARSET_ENCODING "1"
FONTNAME_REGISTRY ""
CHARSET_COLLECTIONS "ASCII ISOLatin1Encoding ISO8859-2 ISO8859-5 ISO8859-7 ISO8859-9 ISO8859-4 ISO10646-1"
BITS_PER_PIXEL 4
FONT_NAME "STIXTwoMath-Regular"
FACE_NAME "STIX Two Math Regular"
COPYRIGHT "Copyright 2001-2021 The STIX Fonts Project Authors (https://github.com/stipub/stixfonts)"
FONT_VERSION "2.12 b168a"
FONT_ASCENT 6
FONT_DESCENT 2
UNDERLINE_POSITION -1
UNDERLINE_THICKNESS 1
X_HEIGHT 3
CAP_HEIGHT 4
RAW_ASCENT 762
RAW_DESCENT 238
NORM_SPACE 2
RELATIVE_WEIGHT 40
RELATIVE_SETWIDTH 50
SUPERSCRIPT_X 0
SUPERSCRIPT_Y 4
SUPERSCRIPT_SIZE 4
SUBSCRIPT_X 0
SUBSCRIPT_Y 2
SUBSCRIPT_SIZE 4
FIGURE_WIDTH 4
AVG_LOWERCASE_WIDTH 40
AVG_UPPERCASE_WIDTH 54
ENDPROPERTIES
CHARS 6611
STARTCHAR space
ENCODING 32
SWIDTH 235 0
DWIDTH 2 0
BBX 1 1 0 0
BITMAP
00
ENDCHAR
STARTCHAR exclam
ENCODING 33
SWIDTH 283 0
DWIDTH 2 0
BBX 2 5 0 0
BITMAP
47
37
26
03
37
ENDCHAR
STARTCHAR quotedbl
ENCODING 34
SWIDTH 334 0
DWIDTH 3 0
BBX 3 2 0 4
BITMAP
8730
4400
ENDCHAR
STARTCHAR numbersign
ENCODING 35
SWIDTH 702 0
DWIDTH 6 0
BBX 6 5 0 0
BITMAP
016340
288971
061700
3A6A60
070700
ENDCHAR
STARTCHAR dollar
ENCODING 36
SWIDTH 495 0
DWIDTH 4 0
BBX 4 7 0 -1
BITMAP
0320
5885
9722
19B2
3359
7784
0110
ENDCHAR
STARTCHAR percent
ENCODING 37
SWIDTH 692 0
DWIDTH 6 0
BBX 6 5 0 0
BITMAP
467550
804700
346550
015822
060850
ENDCHAR
STARTCHAR ampersand
ENCODING 38
SWIDTH 736 0
DWIDTH 6 0
BBX 6 5 0 0
BITMAP
074600
087382
46B160
B04B00
7A7893
ENDCHAR
STARTCHAR quotesingle
ENCODING 39
SWIDTH 187 0
DWIDTH 2 0
BBX 2 2 0 4
BITMAP
81
40
ENDCHAR
STARTCHAR parenleft
ENCODING 40
SWIDTH 357 0
DWIDTH 3 0
BBX 3 8 0 -2
BITMAP
0330
1700
6300
9100
9100
5400
0700
0130
ENDCHAR
STARTCHAR parenright
ENCODING 41
SWIDTH 357 0
DWIDTH 3 0
BBX 3 8 0 -2
BITMAP
4200
0800
0540
0370
0360
0630
1700
3000
ENDCHAR
STARTCHAR asterisk
ENCODING 42
SWIDTH 410 0
DWIDTH 3 0
BBX 3 3 0 3
BITMAP
0700
6870
5970
ENDCHAR
STARTCHAR plus
ENCODING 43
SWIDTH 720 0
DWIDTH 6 0
BBX 6 6 0 0
BITMAP
001100
006300
006300
48BA82
006300
005200
ENDCHAR
STARTCHAR comma
ENCODING 44
SWIDTH 245 0
DWIDTH 2 0
BBX 2 2 0 -1
BITMAP
66
24
ENDCHAR
STARTCHAR hyphen
ENCODING 45
SWIDTH 315 0
DWIDTH 3 0
BBX 3 1 0 2
BITMAP
5810
ENDCHAR
STARTCHAR period
ENCODING 46
SWIDTH 245 0
DWIDTH 2 0
BBX 2 1 0 0
BITMAP
55
ENDCHAR
STARTCHAR slash
ENCODING 47
SWIDTH 386 0
DWIDTH 3 0
BBX 3 7 0 -1
BITMAP
0070
0250
0610
0700
1500
6100
3000
ENDCHAR
STARTCHAR zero
ENCODING 48
SWIDTH 495 0
DWIDTH 4 0
BBX 4 5 0 0
BITMAP
2772
9129
B01B
A129
3772
ENDCHAR
STARTCHAR one
ENCODING 49
SWIDTH 495 0
DWIDTH 4 0
BBX 4 5 0 0
BITMAP
2860
0560
0560
0560
1991
ENDCHAR
STARTCHAR two
ENCODING 50
SWIDTH 495 0
DWIDTH 4 0
BBX 4 5 0 0
BITMAP
38A2
1056
0071
0521
6BA7
ENDCHAR
STARTCHAR three
ENCODING 51
SWIDTH 495 0
DWIDTH 4 0
BBX 4 5 0 0
BITMAP
28B1
1081
04B2
0037
4762
ENDCHAR
STARTCHAR four
ENCODING 52
SWIDTH 495 0
DWIDTH 4 0
BBX 4 5 0 0
BITMAP
00C0
06B0
42A0
98D7
00A0
ENDCHAR
STARTCHAR five
ENCODING 53
SWIDTH 495 0
DWIDTH 4 0
BBX 4 5 0 0
BITMAP
0AA4
2B91
0057
0017
4761
ENDCHAR
STARTCHAR six
ENCODING 54
SWIDTH 495 0
DWIDTH 4 0
BBX 4 5 0 0
BITMAP
0541
4982
9238
8219
2863
ENDCHAR
STARTCHAR seven
ENCODING 55
SWIDTH 495 0
DWIDTH 4 0
BBX 4 5 0 0
BITMAP
5AA8
2034
0080
0270
0810
ENDCHAR
STARTCHAR eight
ENCODING 56
SWIDTH 495 0
DWIDTH 4 0
BBX 4 5 0 0
BITMAP
4672
6653
09A1
8147
5664
ENDCHAR
STARTCHAR nine
ENCODING 57
SWIDTH 495 0
DWIDTH 4 0
BBX 4 5 0 0
BITMAP
5672
A237
3988
0094
1770
ENDCHAR
STARTCHAR colon
ENCODING 58
SWIDTH 245 0
DWIDTH 2 0
BBX 2 4 0 0
BITMAP
55
00
00
55
ENDCHAR
STARTCHAR semicolon
ENCODING 59
SWIDTH 245 0
DWIDTH 2 0
BBX 2 5 0 -1
BITMAP
55
00
00
66
24
ENDCHAR
STARTCHAR less
ENCODING 60
SWIDTH 720 0
DWIDTH 6 0
BBX 6 5 0 0
BITMAP
000011
001771
187100
068300
000681
ENDCHAR
STARTCHAR equal
ENCODING 61
SWIDTH 720 0
DWIDTH 6 0
BBX 6 3 0 1
BITMAP
488882
000000
488882
ENDCHAR
STARTCHAR greater
ENCODING 62
SWIDTH 720 0
DWIDTH 6 0
BBX 5 6 0 -1
BITMAP
200000
286100
002870
004840
384000
100000
ENDCHAR
STARTCHAR question
ENCODING 63
SWIDTH 411 0
DWIDTH 3 0
BBX 3 5 0 0
BITMAP
7590
50A0
0350
0300
0900
ENDCHAR
STARTCHAR at
ENCODING 64
SWIDTH 905 0
DWIDTH 7 0
BBX 7 8 0 -2
BITMAP
00566300
07100730
34357080
7190A080
72A0A080
45969830
09200100
01776300
ENDCHAR
STARTCHAR A
ENCODING 65
SWIDTH 718 0
DWIDTH 6 0
BBX 6 5 0 0
BITMAP
009300
019A00
071C20
0A5990
8602E4
ENDCHAR
STARTCHAR B
ENCODING 66
SWIDTH 618 0
DWIDTH 5 0
BBX 5 5 0 0
BITMAP
3D5920
0B0750
0C5A10
0B0490
3D4740
ENDCHAR
STARTCHAR C
ENCODING 67
SWIDTH 670 0
DWIDTH 5 0
BBX 5 5 0 0
BITMAP
0866A0
660060
940000
670010
099750
ENDCHAR
STARTCHAR D
ENCODING 68
SWIDTH 730 0
DWIDTH 6 0
BBX 6 5 0 0
BITMAP
3D5760
0B00A3
0B0076
0B0094
3D5660
ENDCHAR
STARTCHAR E
ENCODING 69
SWIDTH 626 0
DWIDTH 5 0
BBX 5 5 0 0
BITMAP
3D5660
0B0500
0C5900
0B0020
3D5680
ENDCHAR
STARTCHAR F
ENCODING 70
SWIDTH 588 0
DWIDTH 5 0
BBX 5 5 0 0
BITMAP
3D5670
0B0500
0C5900
0B0000
3D2000
ENDCHAR
STARTCHAR G
ENCODING 71
SWIDTH 720 0
DWIDTH 6 0
BBX 6 5 0 0
BITMAP
0866A0
660050
840293
6600B0
086690
ENDCHAR
STARTCHAR H
ENCODING 72
SWIDTH 777 0
DWIDTH 6 0
BBX 6 5 0 0
BITMAP
3D31A8
0B0074
0B55A4
0B0074
2D31A8
ENDCHAR
STARTCHAR I
ENCODING 73
SWIDTH 357 0
DWIDTH 3 0
BBX 3 5 0 0
BITMAP
3D20
0B00
0B00
0B00
3D20
ENDCHAR
STARTCHAR J
ENCODING 74
SWIDTH 396 0
DWIDTH 3 0
BBX 3 5 0 0
BITMAP
1A80
0740
0740
0740
9810
ENDCHAR
STARTCHAR K
ENCODING 75
SWIDTH 702 0
DWIDTH 6 0
BBX 6 5 0 0
BITMAP
3D2781
0B3400
0CA000
0B4A00
3D27B2
ENDCHAR
STARTCHAR L
ENCODING 76
SWIDTH 585 0
DWIDTH 5 0
BBX 5 5 0 0
BITMAP
3D2000
0B0000
0B0000
0B0020
3D5760
ENDCHAR
STARTCHAR M
ENCODING 77
SWIDTH 895 0
DWIDTH 7 0
BBX 7 5 0 0
BITMAP
4F200E50
0A805B10
06C17910
066A2910
49191B50
ENDCHAR
STARTCHAR N
ENCODING 78
SWIDTH 742 0
DWIDTH 6 0
BBX 6 5 0 0
BITMAP
5D11A4
09B060
065960
0608B0
4900A0
ENDCHAR
STARTCHAR O
ENCODING 79
SWIDTH 738 0
DWIDTH 6 0
BBX 6 5 0 0
BITMAP
075680
660085
940067
660084
075570
ENDCHAR
STARTCHAR P
ENCODING 80
SWIDTH 569 0
DWIDTH 5 0
BBX 5 5 0 0
BITMAP
3D5A20
0B0840
0C5500
0B0000
3D2000
ENDCHAR
STARTCHAR Q
ENCODING 81
SWIDTH 737 0
DWIDTH 6 0
BBX 6 7 0 -2
BITMAP
086780
660095
840067
660084
085560
001D20
000274
ENDCHAR
STARTCHAR R
ENCODING 82
SWIDTH 659 0
DWIDTH 5 0
BBX 6 5 0 0
BITMAP
3D5920
0B0840
0C8600
0B2B00
3D25A1
ENDCHAR
STARTCHAR S
ENCODING 83
SWIDTH 504 0
DWIDTH 4 0
BBX 4 5 0 0
BITMAP
4787
7604
08B2
403A
9766
ENDCHAR
STARTCHAR T
ENCODING 84
SWIDTH 603 0
DWIDTH 5 0
BBX 5 5 0 0
BITMAP
96C680
20B020
00B000
00B000
03D200
ENDCHAR
STARTCHAR U
ENCODING 85
SWIDTH 752 0
DWIDTH 6 0
BBX 6 5 0 0
BITMAP
5C2096
1A0052
1A0052
0B0061
078760
ENDCHAR
STARTCHAR V
ENCODING 86
SWIDTH 680 0
DWIDTH 5 0
BBX 6 5 0 0
BITMAP
9A01A2
1C0160
085610
02B600
009200
ENDCHAR
STARTCHAR W
ENCODING 87
SWIDTH 944 0
DWIDTH 8 0
BBX 8 5 0 0
BITMAP
9A1C50A3
1B067060
0946B330
03B48A00
00902700
ENDCHAR
STARTCHAR X
ENCODING 88
SWIDTH 664 0
DWIDTH 5 0
BBX 6 5 0 0
BITMAP
5E2581
067600
00D300
063B00
670AA1
ENDCHAR
STARTCHAR Y
ENCODING 89
SWIDTH 647 0
DWIDTH 5 0
BBX 6 5 0 0
BITMAP
8C0391
0A3600
02C300
00B000
02D400
ENDCHAR
STARTCHAR Z
ENCODING 90
SWIDTH 594 0
DWIDTH 5 0
BBX 5 5 0 0
BITMAP
776D40
205800
02B000
0B2020
8A6850
ENDCHAR
STARTCHAR bracketleft
ENCODING 91
SWIDTH 349 0
DWIDTH 3 0
BBX 3 8 0 -2
BITMAP
3620
4500
4500
4500
4500
4500
4500
3620
ENDCHAR
STARTCHAR backslash
ENCODING 92
SWIDTH 385 0
DWIDTH 3 0
BBX 3 7 0 -1
BITMAP
7000
4300
0600
0700
0420
0060
0030
ENDCHAR
STARTCHAR bracketright
ENCODING 93
SWIDTH 349 0
DWIDTH 3 0
BBX 3 8 0 -2
BITMAP
2710
0810
0810
0810
0810
0810
0810
2710
ENDCHAR
STARTCHAR asciicircum
ENCODING 94
SWIDTH 480 0
DWIDTH 4 0
BBX 4 3 0 3
BITMAP
0750
1670
7125
ENDCHAR
STARTCHAR underscore
ENCODING 95
SWIDTH 512 0
DWIDTH 4 0
BBX 5 1 0 -1
BITMAP
777710
ENDCHAR
STARTCHAR grave
ENCODING 96
SWIDTH 222 0
DWIDTH 2 0
BBX 2 2 0 4
BITMAP
50
35
ENDCHAR
STARTCHAR a
ENCODING 97
SWIDTH 480 0
DWIDTH 4 0
BBX 4 4 0 0
BITMAP
46A0
22B1
6491
7895
ENDCHAR
STARTCHAR b
ENCODING 98
SWIDTH 522 0
DWIDTH 4 0
BBX 4 6 0 0
BITMAP
8400
5400
5896
550B
540A
4864
ENDCHAR
STARTCHAR c
ENCODING 99
SWIDTH 446 0
DWIDTH 4 0
BBX 4 4 0 0
BITMAP
3592
9011
A101
4B81
ENDCHAR
STARTCHAR d
ENCODING 100
SWIDTH 539 0
DWIDTH 4 0
BBX 4 6 0 0
BITMAP
0058
0028
2788
9028
A128
4A7A
ENDCHAR
STARTCHAR e
ENCODING 101
SWIDTH 464 0
DWIDTH 4 0
BBX 4 4 0 0
BITMAP
3682
9574
A201
3B82
ENDCHAR
STARTCHAR f
ENCODING 102
SWIDTH 307 0
DWIDTH 2 0
BBX 3 6 0 0
BITMAP
0570
2710
6A20
3700
3700
6A10
ENDCHAR
STARTCHAR g
ENCODING 103
SWIDTH 484 0
DWIDTH 4 0
BBX 4 6 0 -2
BITMAP
47B6
8374
3760
7A93
7007
8863
ENDCHAR
STARTCHAR h
ENCODING 104
SWIDTH 577 0
DWIDTH 5 0
BBX 5 6 0 0
BITMAP
770000
370000
3A8800
370A00
370A00
6A2C20
ENDCHAR
STARTCHAR i
ENCODING 105
SWIDTH 285 0
DWIDTH 2 0
BBX 2 5 0 0
BITMAP
27
57
37
37
5A
ENDCHAR
STARTCHAR j
ENCODING 106
SWIDTH 263 0
DWIDTH 2 0
BBX 3 7 -1 -2
BITMAP
0360
0670
0370
0370
0370
0360
8720
ENDCHAR
STARTCHAR k
ENCODING 107
SWIDTH 542 0
DWIDTH 4 0
BBX 5 6 0 0
BITMAP
670000
370000
377600
3B4000
39A000
6A6A10
ENDCHAR
STARTCHAR l
ENCODING 108
SWIDTH 283 0
DWIDTH 2 0
BBX 2 6 0 0
BITMAP
67
37
37
37
37
6A
ENDCHAR
STARTCHAR m
ENCODING 109
SWIDTH 852 0
DWIDTH 7 0
BBX 7 4 0 0
BITMAP
59796A00
370A0910
370A0910
5A2C2B40
ENDCHAR
STARTCHAR n
ENCODING 110
SWIDTH 576 0
DWIDTH 5 0
BBX 5 4 0 0
BITMAP
6A7800
370A00
370A00
5A2C20
ENDCHAR
STARTCHAR o
ENCODING 111
SWIDTH 514 0
DWIDTH 4 0
BBX 4 4 0 0
BITMAP
3674
A10B
A10A
3764
ENDCHAR
STARTCHAR p
ENCODING 112
SWIDTH 537 0
DWIDTH 4 0
BBX 4 6 0 -2
BITMAP
6998
460B
460A
4A55
4600
6A10
ENDCHAR
STARTCHAR q
ENCODING 113
SWIDTH 521 0
DWIDTH 4 0
BBX 4 6 0 -2
BITMAP
2777
9028
A128
5B78
0028
006B
ENDCHAR
STARTCHAR r
ENCODING 114
SWIDTH 380 0
DWIDTH 3 0
BBX 3 4 0 0
BITMAP
59A0
3800
3700
5A10
ENDCHAR
STARTCHAR s
ENCODING 115
SWIDTH 395 0
DWIDTH 3 0
BBX 3 4 0 0
BITMAP
6570
7820
25B0
7580
ENDCHAR
STARTCHAR t
ENCODING 116
SWIDTH 315 0
DWIDTH 3 0
BBX 3 5 0 0
BITMAP
2600
6920
4600
4600
2A20
ENDCHAR
STARTCHAR u
ENCODING 117
SWIDTH 570 0
DWIDTH 5 0
BBX 5 4 0 0
BITMAP
763B00
460A00
460A00
1B5B10
ENDCHAR
STARTCHAR v
ENCODING 118
SWIDTH 481 0
DWIDTH 4 0
BBX 4 4 0 0
BITMAP
A529
3842
0A50
0750
ENDCHAR
STARTCHAR w
ENCODING 119
SWIDTH 749 0
DWIDTH 6 0
BBX 6 4 0 0
BITMAP
A57819
384A23
0B5960
074470
ENDCHAR
STARTCHAR x
ENCODING 120
SWIDTH 479 0
DWIDTH 4 0
BBX 4 4 0 0
BITMAP
7964
0A50
07A0
8397
ENDCHAR
STARTCHAR y
ENCODING 121
SWIDTH 483 0
DWIDTH 4 0
BBX 4 6 0 -2
BITMAP
B529
3842
0A50
0550
0510
9500
ENDCHAR
STARTCHAR z
ENCODING 122
SWIDTH 458 0
DWIDTH 4 0
BBX 4 4 0 0
BITMAP
75C3
1480
1B01
8975
ENDCHAR
STARTCHAR braceleft
ENCODING 123
SWIDTH 327 0
DWIDTH 3 0
BBX 3 8 0 -2
BITMAP
0510
3600
2700
2600
6200
2700
3600
1810
ENDCHAR
STARTCHAR bar
ENCODING 124
SWIDTH 267 0
DWIDTH 2 0
BBX 2 8 0 -2
BITMAP
24
24
24
24
24
24
24
24
ENDCHAR
STARTCHAR braceright
ENCODING 125
SWIDTH 327 0
DWIDTH 3 0
BBX 3 8 0 -2
BITMAP
3400
0900
0900
0800
0630
0900
0900
3700
ENDCHAR
STARTCHAR asciitilde
ENCODING 126
SWIDTH 557 0
DWIDTH 4 0
BBX 4 1 0 1
BITMAP
4887
ENDCHAR
STARTCHAR uni00A0
ENCODING 160
SWIDTH 235 0
DWIDTH 2 0
BBX 1 1 0 0
BITMAP
00
ENDCHAR
STARTCHAR exclamdown
ENCODING 161
SWIDTH 282 0
DWIDTH 2 0
BBX 2 6 0 -2
BITMAP
37
02
16
37
48
13
ENDCHAR
STARTCHAR cent
ENCODING 162
SWIDTH 495 0
DWIDTH 4 0
BBX 4 6 0 -1
BITMAP
0260
36A5
9240
8632
1A91
0110
ENDCHAR
STARTCHAR sterling
ENCODING 163
SWIDTH 495 0
DWIDTH 4 0
BBX 4 5 0 0
BITMAP
0567
0A00
3C50
0900
5885
ENDCHAR
STARTCHAR currency
ENCODING 164
SWIDTH 617 0
DWIDTH 5 0
BBX 5 5 0 0
BITMAP
300030
2A7A20
340520
260710
577840
ENDCHAR
STARTCHAR yen
ENCODING 165
SWIDTH 495 0
DWIDTH 4 0
BBX 4 6 0 0
BITMAP
7526
5833
0C60
29A2
2992
0990
ENDCHAR
STARTCHAR brokenbar
ENCODING 166
SWIDTH 267 0
DWIDTH 2 0
BBX 2 6 0 0
BITMAP
24
24
12
12
24
24
ENDCHAR
STARTCHAR section
ENCODING 167
SWIDTH 491 0
DWIDTH 4 0
BBX 4 7 0 -2
BITMAP
1671
1A21
17A0
4454
0B61
22A0
3560
ENDCHAR
STARTCHAR dieresis
ENCODING 168
SWIDTH 392 0
DWIDTH 3 0
BBX 3 1 0 5
BITMAP
91A0
ENDCHAR
STARTCHAR copyright
ENCODING 169
SWIDTH 781 0
DWIDTH 6 0
BBX 6 6 0 0
BITMAP
024430
257664
545005
536005
247644
024430
ENDCHAR
STARTCHAR ordfeminine
ENCODING 170
SWIDTH 410 0
DWIDTH 3 0
BBX 4 3 0 2
BITMAP
5570
3390
85A1
ENDCHAR
STARTCHAR guillemotleft
ENCODING 171
SWIDTH 517 0
DWIDTH 4 0
BBX 4 4 0 0
BITMAP
0303
4572
6481
0404
ENDCHAR
STARTCHAR logicalnot
ENCODING 172
SWIDTH 720 0
DWIDTH 6 0
BBX 6 3 0 1
BITMAP
4888A1
000072
000051
ENDCHAR
STARTCHAR uni00AD
ENCODING 173
SWIDTH 315 0
DWIDTH 3 0
BBX 3 1 0 2
BITMAP
5810
ENDCHAR
STARTCHAR registered
ENCODING 174
SWIDTH 413 0
DWIDTH 3 0
BBX 3 4 0 3
BITMAP
1220
3540
3550
1220
ENDCHAR
STARTCHAR macron
ENCODING 175
SWIDTH 350 0
DWIDTH 3 0
BBX 3 1 0 4
BITMAP
5740
ENDCHAR
STARTCHAR degree
ENCODING 176
SWIDTH 409 0
DWIDTH 3 0
BBX 3 3 0 3
BITMAP
2740
7070
2740
ENDCHAR
STARTCHAR plusminus
ENCODING 177
SWIDTH 720 0
DWIDTH 6 0
BBX 6 6 0 0
BITMAP
001100
006200
48B982
006200
004200
488882
ENDCHAR
STARTCHAR twosuperior
ENCODING 178
SWIDTH 373 0
DWIDTH 3 0
BBX 3 4 0 2
BITMAP
4860
0180
0610
8880
ENDCHAR
STARTCHAR threesuperior
ENCODING 179
SWIDTH 374 0
DWIDTH 3 0
BBX 3 4 0 2
BITMAP
3840
1930
0090
6540
ENDCHAR
STARTCHAR acute
ENCODING 180
SWIDTH 222 0
DWIDTH 2 0
BBX 2 2 0 4
BITMAP
24
71
ENDCHAR
STARTCHAR uni00B5
ENCODING 181
SWIDTH 556 0
DWIDTH 4 0
BBX 5 6 0 -2
BITMAP
641900
622600
625500
796B20
900000
610000
ENDCHAR
STARTCHAR paragraph
ENCODING 182
SWIDTH 605 0
DWIDTH 5 0
BBX 5 7 0 -2
BITMAP
37AB10
828800
548800
038800
008800
008800
037910
ENDCHAR
STARTCHAR periodcentered
ENCODING 183
SWIDTH 282 0
DWIDTH 2 0
BBX 2 1 0 2
BITMAP
37
ENDCHAR
STARTCHAR cedilla
ENCODING 184
SWIDTH 247 0
DWIDTH 2 0
BBX 2 2 0 -2
BITMAP
35
34
ENDCHAR
STARTCHAR onesuperior
ENCODING 185
SWIDTH 343 0
DWIDTH 3 0
BBX 3 4 0 2
BITMAP
3900
0900
0900
2B10
ENDCHAR
STARTCHAR ordmasculine
ENCODING 186
SWIDTH 432 0
DWIDTH 3 0
BBX 4 3 0 2
BITMAP
5580
9072
5570
ENDCHAR
STARTCHAR guillemotright
ENCODING 187
SWIDTH 517 0
DWIDTH 4 0
BBX 4 4 0 0
BITMAP
2020
1745
0837
3140
ENDCHAR
STARTCHAR onequarter
ENCODING 188
SWIDTH 861 0
DWIDTH 7 0
BBX 7 7 0 0
BITMAP
00001100
37006000
09024000
09060710
27434920
00609B60
03100410
ENDCHAR
STARTCHAR onehalf
ENCODING 189
SWIDTH 889 0
DWIDTH 7 0
BBX 7 6 0 0
BITMAP
37003100
09006000
09053650
27340090
00600630
03205880
ENDCHAR
STARTCHAR threequarters
ENCODING 190
SWIDTH 861 0
DWIDTH 7 0
BBX 7 7 0 0
BITMAP
00001100
38306000
18324000
00860A20
54535920
00609B60
03100410
ENDCHAR
STARTCHAR questiondown
ENCODING 191
SWIDTH 411 0
DWIDTH 3 0
BBX 3 6 0 -2
BITMAP
0910
0300
0700
7200
A090
3650
ENDCHAR
STARTCHAR Agrave
ENCODING 192
SWIDTH 718 0
DWIDTH 6 0
BBX 6 7 0 0
BITMAP
007300
000000
009300
019A00
071C20
0A5990
8602E4
ENDCHAR
STARTCHAR Aacute
ENCODING 193
SWIDTH 718 0
DWIDTH 6 0
BBX 6 7 0 0
BITMAP
006400
000000
009300
019A00
071C20
0A5990
8602E4
ENDCHAR
STARTCHAR Acircumflex
ENCODING 194
SWIDTH 718 0
DWIDTH 6 0
BBX 6 7 0 0
BITMAP
017600
000000
009300
019A00
071C20
0A5990
8602E4
ENDCHAR
STARTCHAR Atilde
ENCODING 195
SWIDTH 718 0
DWIDTH 6 0
BBX 6 7 0 0
BITMAP
027700
000000
009300
019A00
071C20
0A5990
8602E4
ENDCHAR
STARTCHAR Adieresis
ENCODING 196
SWIDTH 718 0
DWIDTH 6 0
BBX 6 7 0 0
BITMAP
054810
000000
009300
019A00
071C20
0A5990
8602E4
ENDCHAR
STARTCHAR Aring
ENCODING 197
SWIDTH 718 0
DWIDTH 6 0
BBX 6 7 0 0
BITMAP
005300
005300
009300
019A00
071C20
0A5990
8602E4
ENDCHAR
STARTCHAR AE
ENCODING 198
SWIDTH 894 0
DWIDTH 7 0
BBX 8 5 -1 0
BITMAP
0006D668
0005B141
0056C6A0
0160B103
1A32D669
ENDCHAR
STARTCHAR Ccedilla
ENCODING 199
SWIDTH 670 0
DWIDTH 5 0
BBX 5 7 0 -2
BITMAP
0866A0
660060
940000
670010
099750
004400
004300
ENDCHAR
STARTCHAR Egrave
ENCODING 200
SWIDTH 626 0
DWIDTH 5 0
BBX 5 7 0 0
BITMAP
018100
000000
3D5660
0B0500
0C5900
0B0020
3D5680
ENDCHAR
STARTCHAR Eacute
ENCODING 201
SWIDTH 626 0
DWIDTH 5 0
BBX 5 7 0 0
BITMAP
008200
000000
3D5660
0B0500
0C5900
0B0020
3D5680
ENDCHAR
STARTCHAR Ecircumflex
ENCODING 202
SWIDTH 626 0
DWIDTH 5 0
BBX 5 7 0 0
BITMAP
038400
000000
3D5660
0B0500
0C5900
0B0020
3D5680
ENDCHAR
STARTCHAR Edieresis
ENCODING 203
SWIDTH 626 0
DWIDTH 5 0
BBX 5 7 0 0
BITMAP
081900
000000
3D5660
0B0500
0C5900
0B0020
3D5680
ENDCHAR
STARTCHAR Igrave
ENCODING 204
SWIDTH 357 0
DWIDTH 3 0
BBX 3 7 0 0
BITMAP
2800
0000
3D20
0B00
0B00
0B00
3D20
ENDCHAR
STARTCHAR Iacute
ENCODING 205
SWIDTH 357 0
DWIDTH 3 0
BBX 3 7 0 0
BITMAP
1810
0000
3D20
0B00
0B00
0B00
3D20
ENDCHAR
STARTCHAR Icircumflex
ENCODING 206
SWIDTH 357 0
DWIDTH 3 0
BBX 3 7 0 0
BITMAP
4830
0000
3D20
0B00
0B00
0B00
3D20
ENDCHAR
STARTCHAR Idieresis
ENCODING 207
SWIDTH 357 0
DWIDTH 3 0
BBX 3 7 0 0
BITMAP
9180
0000
3D20
0B00
0B00
0B00
3D20
ENDCHAR
STARTCHAR Eth
ENCODING 208
SWIDTH 737 0
DWIDTH 6 0
BBX 6 5 0 0
BITMAP
3D5760
0B0094
4D6167
0B0084
3D5670
ENDCHAR
STARTCHAR Ntilde
ENCODING 209
SWIDTH 742 0
DWIDTH 6 0
BBX 6 7 0 0
BITMAP
007710
000000
5D11A4
09B060
065960
0608B0
4900A0
ENDCHAR
STARTCHAR Ograve
ENCODING 210
SWIDTH 738 0
DWIDTH 6 0
BBX 6 7 0 0
BITMAP
006400
000000
075680
660085
940067
660084
075570
ENDCHAR
STARTCHAR Oacute
ENCODING 211
SWIDTH 738 0
DWIDTH 6 0
BBX 6 7 0 0
BITMAP
005500
000000
075680
660085
940067
660084
075570
ENDCHAR
STARTCHAR Ocircumflex
ENCODING 212
SWIDTH 738 0
DWIDTH 6 0
BBX 6 7 0 0
BITMAP
007700
000000
075680
660085
940067
660084
075570
ENDCHAR
STARTCHAR Otilde
ENCODING 213
SWIDTH 738 0
DWIDTH 6 0
BBX 6 7 0 0
BITMAP
017710
000000
075680
660085
940067
660084
075570
ENDCHAR
STARTCHAR Odieresis
ENCODING 214
SWIDTH 738 0
DWIDTH 6 0
BBX 6 7 0 0
BITMAP
035620
000000
075680
660085
940067
660084
075570
ENDCHAR
STARTCHAR multiply
ENCODING 215
SWIDTH 720 0
DWIDTH 6 0
BBX 5 6 0 -1
BITMAP
110020
191290
01A900
029910
290190
000010
ENDCHAR
STARTCHAR Oslash
ENCODING 216
SWIDTH 737 0
DWIDTH 6 0
BBX 6 5 0 0
BITMAP
0756A0
660594
844267
693084
295660
ENDCHAR
STARTCHAR Ugrave
ENCODING 217
SWIDTH 752 0
DWIDTH 6 0
BBX 6 7 0 0
BITMAP
004600
000000
5C2096
1A0052
1A0052
0B0061
078760
ENDCHAR
STARTCHAR Uacute
ENCODING 218
SWIDTH 752 0
DWIDTH 6 0
BBX 6 7 0 0
BITMAP
003700
000000
5C2096
1A0052
1A0052
0B0061
078760
ENDCHAR
STARTCHAR Ucircumflex
ENCODING 219
SWIDTH 752 0
DWIDTH 6 0
BBX 6 7 0 0
BITMAP
006710
000000
5C2096
1A0052
1A0052
0B0061
078760
ENDCHAR
STARTCHAR Udieresis
ENCODING 220
SWIDTH 752 0
DWIDTH 6 0
BBX 6 7 0 0
BITMAP
018350
000000
5C2096
1A0052
1A0052
0B0061
078760
ENDCHAR
STARTCHAR Yacute
ENCODING 221
SWIDTH 647 0
DWIDTH 5 0
BBX 6 7 0 0
BITMAP
007300
000000
8C0391
0A3600
02C300
00B000
02D400
ENDCHAR
STARTCHAR Thorn
ENCODING 222
SWIDTH 572 0
DWIDTH 5 0
BBX 5 5 0 0
BITMAP
3E8600
0B0940
0B0930
0C5500
3D3000
ENDCHAR
STARTCHAR germandbls
ENCODING 223
SWIDTH 563 0
DWIDTH 5 0
BBX 5 6 0 0
BITMAP
054300
280A00
679300
370B10
370830
689700
ENDCHAR
STARTCHAR agrave
ENCODING 224
SWIDTH 480 0
DWIDTH 4 0
BBX 4 6 0 0
BITMAP
0600
0620
46A0
22B1
6491
7895
ENDCHAR
STARTCHAR aacute
ENCODING 225
SWIDTH 480 0
DWIDTH 4 0
BBX 4 6 0 0
BITMAP
0150
0520
46A0
22B1
6491
7895
ENDCHAR
STARTCHAR acircumflex
ENCODING 226
SWIDTH 480 0
DWIDTH 4 0
BBX 4 6 0 0
BITMAP
0420
1660
46A0
22B1
6491
7895
ENDCHAR
STARTCHAR atilde
ENCODING 227
SWIDTH 480 0
DWIDTH 4 0
BBX 4 5 0 0
BITMAP
1770
46A0
22B1
6491
7895
ENDCHAR
STARTCHAR adieresis
ENCODING 228
SWIDTH 480 0
DWIDTH 4 0
BBX 4 6 0 0
BITMAP
5491
0000
46A0
22B1
6491
7895
ENDCHAR
STARTCHAR aring
ENCODING 229
SWIDTH 480 0
DWIDTH 4 0
BBX 4 6 0 0
BITMAP
0530
0530
46A0
22B1
6491
7895
ENDCHAR
STARTCHAR ae
ENCODING 230
SWIDTH 709 0
DWIDTH 6 0
BBX 6 4 0 0
BITMAP
569691
13C573
73A201
786B81
ENDCHAR
STARTCHAR ccedilla
ENCODING 231
SWIDTH 446 0
DWIDTH 4 0
BBX 4 6 0 -2
BITMAP
3692
9011
A101
4B81
0350
0360
ENDCHAR
STARTCHAR egrave
ENCODING 232
SWIDTH 464 0
DWIDTH 4 0
BBX 4 6 0 0
BITMAP
0600
0530
3682
9574
A201
3B82
ENDCHAR
STARTCHAR eacute
ENCODING 233
SWIDTH 464 0
DWIDTH 4 0
BBX 4 6 0 0
BITMAP
0060
0430
3682
9574
A201
3B82
ENDCHAR
STARTCHAR ecircumflex
ENCODING 234
SWIDTH 464 0
DWIDTH 4 0
BBX 4 6 0 0
BITMAP
0430
0670
3682
9574
A201
3B82
ENDCHAR
STARTCHAR edieresis
ENCODING 235
SWIDTH 464 0
DWIDTH 4 0
BBX 4 6 0 0
BITMAP
4672
0000
3682
9574
A201
3B82
ENDCHAR
STARTCHAR igrave
ENCODING 236
SWIDTH 285 0
DWIDTH 2 0
BBX 2 6 0 0
BITMAP
60
44
57
37
37
5A
ENDCHAR
STARTCHAR iacute
ENCODING 237
SWIDTH 285 0
DWIDTH 2 0
BBX 2 6 0 0
BITMAP
06
34
57
37
37
5A
ENDCHAR
STARTCHAR icircumflex
ENCODING 238
SWIDTH 285 0
DWIDTH 2 0
BBX 2 6 0 0
BITMAP
77
33
57
37
37
5A
ENDCHAR
STARTCHAR idieresis
ENCODING 239
SWIDTH 285 0
DWIDTH 2 0
BBX 4 5 -1 0
BITMAP
2772
0770
0370
0370
05A0
ENDCHAR
STARTCHAR eth
ENCODING 240
SWIDTH 532 0
DWIDTH 4 0
BBX 4 6 0 0
BITMAP
1563
0265
366B
A10C
A10B
3764
ENDCHAR
STARTCHAR ntilde
ENCODING 241
SWIDTH 576 0
DWIDTH 5 0
BBX 5 5 0 0
BITMAP
047400
6A7800
370A00
370A00
5A2C20
ENDCHAR
STARTCHAR ograve
ENCODING 242
SWIDTH 514 0
DWIDTH 4 0
BBX 4 6 0 0
BITMAP
0500
0350
3674
A10B
A10A
3764
ENDCHAR
STARTCHAR oacute
ENCODING 243
SWIDTH 514 0
DWIDTH 4 0
BBX 4 6 0 0
BITMAP
0060
0250
3674
A10B
A10A
3764
ENDCHAR
STARTCHAR ocircumflex
ENCODING 244
SWIDTH 514 0
DWIDTH 4 0
BBX 4 6 0 0
BITMAP
0240
0761
3674
A10B
A10A
3764
ENDCHAR
STARTCHAR otilde
ENCODING 245
SWIDTH 514 0
DWIDTH 4 0
BBX 4 5 0 0
BITMAP
0771
3674
A10B
A10A
3764
ENDCHAR
STARTCHAR odieresis
ENCODING 246
SWIDTH 514 0
DWIDTH 4 0
BBX 4 6 0 0
BITMAP
2864
0000
3674
A10B
A10A
3764
ENDCHAR
STARTCHAR divide
ENCODING 247
SWIDTH 720 0
DWIDTH 6 0
BBX 6 4 0 0
BITMAP
006300
488882
000000
006300
ENDCHAR
STARTCHAR oslash
ENCODING 248
SWIDTH 514 0
DWIDTH 4 0
BBX 4 4 0 0
BITMAP
3676
A25B
A60A
6864
ENDCHAR
STARTCHAR ugrave
ENCODING 249
SWIDTH 570 0
DWIDTH 5 0
BBX 5 6 0 0
BITMAP
041000
026000
763B00
460A00
460A00
1B5B10
ENDCHAR
STARTCHAR uacute
ENCODING 250
SWIDTH 570 0
DWIDTH 5 0
BBX 5 6 0 0
BITMAP
006000
017000
763B00
460A00
460A00
1B5B10
ENDCHAR
STARTCHAR ucircumflex
ENCODING 251
SWIDTH 570 0
DWIDTH 5 0
BBX 5 6 0 0
BITMAP
025000
066100
763B00
460A00
460A00
1B5B10
ENDCHAR
STARTCHAR udieresis
ENCODING 252
SWIDTH 570 0
DWIDTH 5 0
BBX 5 6 0 0
BITMAP
194600
000000
763B00
460A00
460A00
1B5B10
ENDCHAR
STARTCHAR yacute
ENCODING 253
SWIDTH 483 0
DWIDTH 4 0
BBX 4 8 0 -2
BITMAP
0060
0250
B529
3842
0A50
0550
0510
9500
ENDCHAR
STARTCHAR thorn
ENCODING 254
SWIDTH 524 0
DWIDTH 4 0
BBX 4 8 0 -2
BITMAP
8500
5500
5896
550B
550A
5964
5500
8800
ENDCHAR
STARTCHAR ydieresis
ENCODING 255
SWIDTH 483 0
DWIDTH 4 0
BBX 4 8 0 -2
BITMAP
2864
0000
B529
3842
0A50
0550
0510
9500
ENDCHAR
STARTCHAR Amacron
ENCODING 256
SWIDTH 718 0
DWIDTH 6 0
BBX 6 7 0 0
BITMAP
026600
000000
009300
019A00
071C20
0A5990
8602E4
ENDCHAR
STARTCHAR amacron
ENCODING 257
SWIDTH 480 0
DWIDTH 4 0
BBX 4 5 0 0
BITMAP
2770
46A0
22B1
6491
7895
ENDCHAR
STARTCHAR Abreve
ENCODING 258
SWIDTH 718 0
DWIDTH 6 0
BBX 6 8 0 0
BITMAP
030300
018600
000000
009300
019A00
071C20
0A5990
8602E4
ENDCHAR
STARTCHAR abreve
ENCODING 259
SWIDTH 480 0
DWIDTH 4 0
BBX 4 6 0 0
BITMAP
3030
1860
46A0
22B1
6491
7895
ENDCHAR
STARTCHAR Aogonek
ENCODING 260
SWIDTH 719 0
DWIDTH 6 0
BBX 6 7 0 -2
BITMAP
008300
018A00
061B20
0A5990
8601E4
000400
002920
ENDCHAR
STARTCHAR aogonek
ENCODING 261
SWIDTH 480 0
DWIDTH 4 0
BBX 4 6 0 -2
BITMAP
46A0
22B1
6491
7795
0061
0094
ENDCHAR
STARTCHAR Cacute
ENCODING 262
SWIDTH 670 0
DWIDTH 5 0
BBX 5 7 0 0
BITMAP
004600
000000
0866A0
660060
940000
670010
099750
ENDCHAR
STARTCHAR cacute
ENCODING 263
SWIDTH 446 0
DWIDTH 4 0
BBX 4 6 0 0
BITMAP
0050
0430
3592
9011
A101
4B81
ENDCHAR
STARTCHAR Ccircumflex
ENCODING 264
SWIDTH 670 0
DWIDTH 5 0
BBX 5 7 0 0
BITMAP
007700
000000
0866A0
660060
940000
670010
099750
ENDCHAR
STARTCHAR ccircumflex
ENCODING 265
SWIDTH 446 0
DWIDTH 4 0
BBX 4 6 0 0
BITMAP
0420
1670
3592
9011
A101
4B81
ENDCHAR
STARTCHAR Cdotaccent
ENCODING 266
SWIDTH 670 0
DWIDTH 5 0
BBX 5 7 0 0
BITMAP
004500
000000
0866A0
660060
940000
670010
099750
ENDCHAR
STARTCHAR cdotaccent
ENCODING 267
SWIDTH 446 0
DWIDTH 4 0
BBX 4 6 0 0
BITMAP
0640
0000
3592
9011
A101
4B81
ENDCHAR
STARTCHAR Ccaron
ENCODING 268
SWIDTH 670 0
DWIDTH 5 0
BBX 5 7 0 0
BITMAP
007700
000000
0866A0
660060
940000
670010
099750
ENDCHAR
STARTCHAR ccaron
ENCODING 269
SWIDTH 446 0
DWIDTH 4 0
BBX 4 6 0 0
BITMAP
1230
0860
3592
9011
A101
4B81
ENDCHAR
STARTCHAR Dcaron
ENCODING 270
SWIDTH 730 0
DWIDTH 6 0
BBX 6 7 0 0
BITMAP
028500
000000
3D5760
0B00A3
0B0076
0B0094
3D5660
ENDCHAR
STARTCHAR dcaron
ENCODING 271
SWIDTH 626 0
DWIDTH 5 0
BBX 5 6 0 0
BITMAP
005890
002830
278800
902800
A12800
4A7A00
ENDCHAR
STARTCHAR Dcroat
ENCODING 272
SWIDTH 733 0
DWIDTH 6 0
BBX 6 5 0 0
BITMAP
3D5760
0B00A3
4D6176
0B0094
3D5660
ENDCHAR
STARTCHAR dcroat
ENCODING 273
SWIDTH 540 0
DWIDTH 4 0
BBX 5 6 0 0
BITMAP
006800
026A10
277800
902800
A12800
4A7A00
ENDCHAR
STARTCHAR Emacron
ENCODING 274
SWIDTH 626 0
DWIDTH 5 0
BBX 5 7 0 0
BITMAP
046500
000000
3D5660
0B0500
0C5900
0B0020
3D5680
ENDCHAR
STARTCHAR emacron
ENCODING 275
SWIDTH 464 0
DWIDTH 4 0
BBX 4 5 0 0
BITMAP
1771
3682
9574
A201
3B82
ENDCHAR
STARTCHAR Ebreve
ENCODING 276
SWIDTH 626 0
DWIDTH 5 0
BBX 5 8 0 0
BITMAP
030300
038400
000000
3D5660
0B0500
0C5900
0B0020
3D5680
ENDCHAR
STARTCHAR ebreve
ENCODING 277
SWIDTH 464 0
DWIDTH 4 0
BBX 4 6 0 0
BITMAP
2130
0860
3682
9574
A201
3B82
ENDCHAR
STARTCHAR Edotaccent
ENCODING 278
SWIDTH 626 0
DWIDTH 5 0
BBX 5 7 0 0
BITMAP
009000
000000
3D5660
0B0500
0C5900
0B0020
3D5680
ENDCHAR
STARTCHAR edotaccent
ENCODING 279
SWIDTH 464 0
DWIDTH 4 0
BBX 4 6 0 0
BITMAP
0640
0000
3682
9574
A201
3B82
ENDCHAR
STARTCHAR Eogonek
ENCODING 280
SWIDTH 625 0
DWIDTH 5 0
BBX 5 7 0 -2
BITMAP
3D5660
0B0500
0C5900
0B0020
3D5680
000600
000930
ENDCHAR
STARTCHAR eogonek
ENCODING 281
SWIDTH 464 0
DWIDTH 4 0
BBX 4 6 0 -2
BITMAP
3682
9574
A201
3B92
0420
0760
ENDCHAR
STARTCHAR Ecaron
ENCODING 282
SWIDTH 626 0
DWIDTH 5 0
BBX 5 7 0 0
BITMAP
038400
000000
3D5660
0B0500
0C5900
0B0020
3D5680
ENDCHAR
STARTCHAR ecaron
ENCODING 283
SWIDTH 464 0
DWIDTH 4 0
BBX 4 6 0 0
BITMAP
0230
0760
3682
9574
A201
3B82
ENDCHAR
STARTCHAR Gcircumflex
ENCODING 284
SWIDTH 720 0
DWIDTH 6 0
BBX 6 7 0 0
BITMAP
007700
000000
0866A0
660050
840293
6600B0
086690
ENDCHAR
STARTCHAR gcircumflex
ENCODING 285
SWIDTH 484 0
DWIDTH 4 0
BBX 4 8 0 -2
BITMAP
0430
0670
47B6
8374
3760
7A93
7007
8863
ENDCHAR
STARTCHAR Gbreve
ENCODING 286
SWIDTH 720 0
DWIDTH 6 0
BBX 6 8 0 0
BITMAP
012210
007700
000000
0866A0
660050
840293
6600B0
086690
ENDCHAR
STARTCHAR gbreve
ENCODING 287
SWIDTH 484 0
DWIDTH 4 0
BBX 4 8 0 -2
BITMAP
2130
0860
47B6
8374
3760
7A93
7007
8863
ENDCHAR
STARTCHAR Gdotaccent
ENCODING 288
SWIDTH 720 0
DWIDTH 6 0
BBX 6 7 0 0
BITMAP
004400
000000
0866A0
660050
840293
6600B0
086690
ENDCHAR
STARTCHAR gdotaccent
ENCODING 289
SWIDTH 484 0
DWIDTH 4 0
BBX 4 8 0 -2
BITMAP
0640
0000
47B6
8374
3760
7A93
7007
8863
ENDCHAR
STARTCHAR Gcommaaccent
ENCODING 290
SWIDTH 720 0
DWIDTH 6 0
BBX 6 7 0 -2
BITMAP
0866A0
660050
840293
6600B0
086690
007500
003200
ENDCHAR
STARTCHAR gcommaaccent
ENCODING 291
SWIDTH 484 0
DWIDTH 4 0
BBX 4 8 0 -2
BITMAP
0410
0750
47B6
8374
3760
7A93
7007
8863
ENDCHAR
STARTCHAR Hcircumflex
ENCODING 292
SWIDTH 777 0
DWIDTH 6 0
BBX 6 7 0 0
BITMAP
006710
000000
3D21B6
0B0092
0C55B2
0B0092
3D21B6
ENDCHAR
STARTCHAR hcircumflex
ENCODING 293
SWIDTH 577 0
DWIDTH 5 0
BBX 5 7 0 0
BITMAP
067100
770000
370000
3A8800
370A00
370A00
6A2C20
ENDCHAR
STARTCHAR Hbar
ENCODING 294
SWIDTH 788 0
DWIDTH 6 0
BBX 6 5 0 0
BITMAP
3D31B7
3C55A7
0C55A3
0B0083
3D21B7
ENDCHAR
STARTCHAR hbar
ENCODING 295
SWIDTH 579 0
DWIDTH 5 0
BBX 5 6 0 0
BITMAP
770000
6A4000
3A8800
370A00
370A00
6A2C20
ENDCHAR
STARTCHAR Itilde
ENCODING 296
SWIDTH 357 0
DWIDTH 3 0
BBX 3 7 0 0
BITMAP
4740
0000
3D20
0B00
0B00
0B00
3D20
ENDCHAR
STARTCHAR itilde
ENCODING 297
SWIDTH 285 0
DWIDTH 2 0
BBX 3 5 0 0
BITMAP
8810
5700
3700
3700
5A00
ENDCHAR
STARTCHAR Imacron
ENCODING 298
SWIDTH 357 0
DWIDTH 3 0
BBX 3 7 0 0
BITMAP
5640
0000
3D20
0B00
0B00
0B00
3D20
ENDCHAR
STARTCHAR imacron
ENCODING 299
SWIDTH 285 0
DWIDTH 2 0
BBX 2 5 0 0
BITMAP
77
77
37
37
5A
ENDCHAR
STARTCHAR Ibreve
ENCODING 300
SWIDTH 357 0
DWIDTH 3 0
BBX 3 8 0 0
BITMAP
3030
4820
0000
3D20
0B00
0B00
0B00
3D20
ENDCHAR
STARTCHAR ibreve
ENCODING 301
SWIDTH 285 0
DWIDTH 2 0
BBX 2 6 0 0
BITMAP
44
66
57
37
37
5A
ENDCHAR
STARTCHAR Iogonek
ENCODING 302
SWIDTH 357 0
DWIDTH 3 0
BBX 3 7 0 -2
BITMAP
3D20
0B00
0B00
0B00
3D20
1500
3810
ENDCHAR
STARTCHAR iogonek
ENCODING 303
SWIDTH 285 0
DWIDTH 2 0
BBX 2 8 0 -2
BITMAP
27
00
57
37
37
5A
52
75
ENDCHAR
STARTCHAR Idotaccent
ENCODING 304
SWIDTH 357 0
DWIDTH 3 0
BBX 3 7 0 0
BITMAP
0900
0000
3D20
0B00
0B00
0B00
3D20
ENDCHAR
STARTCHAR dotlessi
ENCODING 305
SWIDTH 285 0
DWIDTH 2 0
BBX 2 4 0 0
BITMAP
57
37
37
5A
ENDCHAR
STARTCHAR IJ
ENCODING 306
SWIDTH 753 0
DWIDTH 6 0
BBX 6 5 0 0
BITMAP
3D22C6
0B0092
0B0092
0B0092
3D3990
ENDCHAR
STARTCHAR ij
ENCODING 307
SWIDTH 548 0
DWIDTH 4 0
BBX 4 7 0 -2
BITMAP
2709
572A
370A
370A
5A0A
0009
0475
ENDCHAR
STARTCHAR Jcircumflex
ENCODING 308
SWIDTH 396 0
DWIDTH 3 0
BBX 3 7 0 0
BITMAP
1770
0000
1A80
0740
0740
0740
9810
ENDCHAR
STARTCHAR jcircumflex
ENCODING 309
SWIDTH 263 0
DWIDTH 2 0
BBX 3 8 -1 -2
BITMAP
0330
0760
0670
0370
0370
0370
0360
8720
ENDCHAR
STARTCHAR Kcommaaccent
ENCODING 310
SWIDTH 702 0
DWIDTH 6 0
BBX 6 7 0 -2
BITMAP
3D2781
0B3400
0CA000
0B4A00
3D27B2
008400
003200
ENDCHAR
STARTCHAR kcommaaccent
ENCODING 311
SWIDTH 542 0
DWIDTH 4 0
BBX 5 8 0 -2
BITMAP
670000
370000
377600
3B4000
39A000
6A6A10
039000
014000
ENDCHAR
STARTCHAR kgreenlandic
ENCODING 312
SWIDTH 542 0
DWIDTH 4 0
BBX 5 4 0 0
BITMAP
576700
3A5000
3AA000
6A6A10
ENDCHAR
STARTCHAR Lacute
ENCODING 313
SWIDTH 585 0
DWIDTH 5 0
BBX 5 7 0 0
BITMAP
074000
000000
3D2000
0B0000
0B0000
0B0020
3D5760
ENDCHAR
STARTCHAR lacute
ENCODING 314
SWIDTH 283 0
DWIDTH 2 0
BBX 2 7 0 0
BITMAP
28
67
37
37
37
37
6A
ENDCHAR
STARTCHAR Lcommaaccent
ENCODING 315
SWIDTH 585 0
DWIDTH 5 0
BBX 5 7 0 -2
BITMAP
3D2000
0B0000
0B0000
0B0020
3D5760
01B000
005000
ENDCHAR
STARTCHAR lcommaaccent
ENCODING 316
SWIDTH 283 0
DWIDTH 2 0
BBX 2 8 0 -2
BITMAP
67
37
37
37
37
6A
48
14
ENDCHAR
STARTCHAR Lcaron
ENCODING 317
SWIDTH 585 0
DWIDTH 5 0
BBX 5 5 0 0
BITMAP
3D2900
0B0300
0B0000
0B0020
3D5760
ENDCHAR
STARTCHAR lcaron
ENCODING 318
SWIDTH 366 0
DWIDTH 3 0
BBX 3 6 0 0
BITMAP
6790
3730
3700
3700
3700
6A00
ENDCHAR
STARTCHAR Ldot
ENCODING 319
SWIDTH 605 0
DWIDTH 5 0
BBX 5 5 0 0
BITMAP
3D2000
0B0730
0B0000
0B0020
3D5760
ENDCHAR
STARTCHAR ldot
ENCODING 320
SWIDTH 357 0
DWIDTH 3 0
BBX 3 6 0 0
BITMAP
6700
3700
37A0
3700
3700
6A00
ENDCHAR
STARTCHAR Lslash
ENCODING 321
SWIDTH 590 0
DWIDTH 5 0
BBX 5 5 0 0
BITMAP
3D3000
0B3100
2C1000
1B0020
3D5760
ENDCHAR
STARTCHAR lslash
ENCODING 322
SWIDTH 290 0
DWIDTH 2 0
BBX 3 6 0 0
BITMAP
5700
2800
2B10
6800
2800
5A00
ENDCHAR
STARTCHAR Nacute
ENCODING 323
SWIDTH 742 0
DWIDTH 6 0
BBX 6 7 0 0
BITMAP
004600
000000
5D11A4
09B060
065960
0608B0
4900A0
ENDCHAR
STARTCHAR nacute
ENCODING 324
SWIDTH 576 0
DWIDTH 5 0
BBX 5 6 0 0
BITMAP
004200
008000
6A7800
370A00
370A00
5A2C20
ENDCHAR
STARTCHAR Ncommaaccent
ENCODING 325
SWIDTH 742 0
DWIDTH 6 0
BBX 6 7 0 -2
BITMAP
5D11A4
09B060
065960
0608B0
4900A0
007500
003200
ENDCHAR
STARTCHAR ncommaaccent
ENCODING 326
SWIDTH 576 0
DWIDTH 5 0
BBX 5 6 0 -2
BITMAP
6A7800
370A00
370A00
5A2C20
02A000
015000
ENDCHAR
STARTCHAR Ncaron
ENCODING 327
SWIDTH 742 0
DWIDTH 6 0
BBX 6 7 0 0
BITMAP
007700
000000
5D11A4
09B060
065960
0608B0
4900A0
ENDCHAR
STARTCHAR ncaron
ENCODING 328
SWIDTH 576 0
DWIDTH 5 0
BBX 5 6 0 0
BITMAP
030200
02B100
6A7800
370A00
370A00
5A2C20
ENDCHAR
STARTCHAR napostrophe
ENCODING 329
SWIDTH 576 0
DWIDTH 5 0
BBX 7 6 -2 0
BITMAP
1B000000
05000000
006A7800
00370A00
00370A00
005A2C20
ENDCHAR
STARTCHAR Eng
ENCODING 330
SWIDTH 742 0
DWIDTH 6 0
BBX 6 7 0 -2
BITMAP
5D11A4
09B060
066860
0609B0
4900C0
000060
002960
ENDCHAR
STARTCHAR eng
ENCODING 331
SWIDTH 559 0
DWIDTH 4 0
BBX 4 6 0 -2
BITMAP
6A78
370A
370A
5A0A
0009
0386
ENDCHAR
STARTCHAR Omacron
ENCODING 332
SWIDTH 738 0
DWIDTH 6 0
BBX 6 7 0 0
BITMAP
016610
000000
075680
660085
940067
660084
075570
ENDCHAR
STARTCHAR omacron
ENCODING 333
SWIDTH 514 0
DWIDTH 4 0
BBX 4 5 0 0
BITMAP
1772
3674
A10B
A10A
3764
ENDCHAR
STARTCHAR Obreve
ENCODING 334
SWIDTH 738 0
DWIDTH 6 0
BBX 6 8 0 0
BITMAP
021310
008700
000000
075680
660085
940067
660084
075570
ENDCHAR
STARTCHAR obreve
ENCODING 335
SWIDTH 514 0
DWIDTH 4 0
BBX 4 6 0 0
BITMAP
0312
0770
3674
A10B
A10A
3764
ENDCHAR
STARTCHAR Ohungarumlaut
ENCODING 336
SWIDTH 738 0
DWIDTH 6 0
BBX 6 7 0 0
BITMAP
006850
001100
075680
660085
940067
660084
075570
ENDCHAR
STARTCHAR ohungarumlaut
ENCODING 337
SWIDTH 514 0
DWIDTH 4 0
BBX 4 6 0 0
BITMAP
0585
0110
3674
A10B
A10A
3764
ENDCHAR
STARTCHAR OE
ENCODING 338
SWIDTH 945 0
DWIDTH 8 0
BBX 8 5 0 0
BITMAP
07599591
67047050
94049660
66047002
07699593
ENDCHAR
STARTCHAR oe
ENCODING 339
SWIDTH 807 0
DWIDTH 6 0
BBX 7 4 0 0
BITMAP
36675900
A10C4810
A10D0010
3768B700
ENDCHAR
STARTCHAR Racute
ENCODING 340
SWIDTH 659 0
DWIDTH 5 0
BBX 6 7 0 0
BITMAP
018200
000000
3D5920
0B0840
0C8600
0B2B00
3D25A1
ENDCHAR
STARTCHAR racute
ENCODING 341
SWIDTH 380 0
DWIDTH 3 0
BBX 3 6 0 0
BITMAP
0330
0700
59A0
3800
3700
5A10
ENDCHAR
STARTCHAR Rcommaaccent
ENCODING 342
SWIDTH 659 0
DWIDTH 5 0
BBX 6 7 0 -2
BITMAP
3D5920
0B0840
0C8600
0B2B00
3D25A1
00A200
005100
ENDCHAR
STARTCHAR rcommaaccent
ENCODING 343
SWIDTH 380 0
DWIDTH 3 0
BBX 3 6 0 -2
BITMAP
59A0
3800
3700
5A10
2A00
1500
ENDCHAR
STARTCHAR Rcaron
ENCODING 344
SWIDTH 659 0
DWIDTH 5 0
BBX 6 7 0 0
BITMAP
038300
000000
3D5920
0B0840
0C8600
0B2B00
3D25A1
ENDCHAR
STARTCHAR rcaron
ENCODING 345
SWIDTH 380 0
DWIDTH 3 0
BBX 3 6 0 0
BITMAP
3030
1B20
59A0
3800
3700
5A10
ENDCHAR
STARTCHAR Sacute
ENCODING 346
SWIDTH 504 0
DWIDTH 4 0
BBX 4 7 0 0
BITMAP
0460
0000
4787
7604
08B2
403A
9766
ENDCHAR
STARTCHAR sacute
ENCODING 347
SWIDTH 394 0
DWIDTH 3 0
BBX 3 6 0 0
BITMAP
0330
0710
6570
7820
25B0
7580
ENDCHAR
STARTCHAR Scircumflex
ENCODING 348
SWIDTH 504 0
DWIDTH 4 0
BBX 4 7 0 0
BITMAP
0770
0000
4787
7604
08B2
403A
9766
ENDCHAR
STARTCHAR scircumflex
ENCODING 349
SWIDTH 394 0
DWIDTH 3 0
BBX 3 6 0 0
BITMAP
0600
3550
6570
7820
25B0
7580
ENDCHAR
STARTCHAR uni015E
ENCODING 350
SWIDTH 504 0
DWIDTH 4 0
BBX 4 7 0 -2
BITMAP
4787
7604
08B2
403A
9766
0350
0340
ENDCHAR
STARTCHAR uni015F
ENCODING 351
SWIDTH 394 0
DWIDTH 3 0
BBX 3 6 0 -2
BITMAP
6570
7820
25B0
7580
0620
0510
ENDCHAR
STARTCHAR Scaron
ENCODING 352
SWIDTH 504 0
DWIDTH 4 0
BBX 4 7 0 0
BITMAP
0770
0000
4787
7604
08B2
403A
9766
ENDCHAR
STARTCHAR scaron
ENCODING 353
SWIDTH 394 0
DWIDTH 3 0
BBX 3 6 0 0
BITMAP
2030
1B20
6570
7820
25B0
7580
ENDCHAR
STARTCHAR uni0162
ENCODING 354
SWIDTH 603 0
DWIDTH 5 0
BBX 5 7 0 -2
BITMAP
96C680
20B020
00B000
00B000
03E200
007100
016000
ENDCHAR
STARTCHAR uni0163
ENCODING 355
SWIDTH 315 0
DWIDTH 3 0
BBX 3 7 0 -2
BITMAP
2600
6920
4600
4600
2A20
0620
1510
ENDCHAR
STARTCHAR Tcaron
ENCODING 356
SWIDTH 603 0
DWIDTH 5 0
BBX 5 7 0 0
BITMAP
048300
000000
96C680
20B020
00B000
00B000
03D200
ENDCHAR
STARTCHAR tcaron
ENCODING 357
SWIDTH 353 0
DWIDTH 3 0
BBX 3 6 0 0
BITMAP
0090
2630
6920
4600
4600
2A20
ENDCHAR
STARTCHAR Tbar
ENCODING 358
SWIDTH 603 0
DWIDTH 5 0
BBX 5 5 0 0
BITMAP
96C680
20B020
05C400
00B000
03D200
ENDCHAR
STARTCHAR tbar
ENCODING 359
SWIDTH 328 0
DWIDTH 3 0
BBX 3 5 0 0
BITMAP
2600
6920
6920
4600
2A20
ENDCHAR
STARTCHAR Utilde
ENCODING 360
SWIDTH 752 0
DWIDTH 6 0
BBX 6 7 0 0
BITMAP
006720
000000
5C2096
1A0052
1A0052
0B0061
078760
ENDCHAR
STARTCHAR utilde
ENCODING 361
SWIDTH 570 0
DWIDTH 5 0
BBX 5 5 0 0
BITMAP
067200
763B00
460A00
460A00
1B5B10
ENDCHAR
STARTCHAR Umacron
ENCODING 362
SWIDTH 752 0
DWIDTH 6 0
BBX 6 7 0 0
BITMAP
006620
000000
5C2096
1A0052
1A0052
0B0061
078760
ENDCHAR
STARTCHAR umacron
ENCODING 363
SWIDTH 570 0
DWIDTH 5 0
BBX 5 5 0 0
BITMAP
067200
763B00
460A00
460A00
1B5B10
ENDCHAR
STARTCHAR Ubreve
ENCODING 364
SWIDTH 752 0
DWIDTH 6 0
BBX 6 8 0 0
BITMAP
003030
006810
000000
5C2096
1A0052
1A0052
0B0061
078760
ENDCHAR
STARTCHAR ubreve
ENCODING 365
SWIDTH 570 0
DWIDTH 5 0
BBX 5 6 0 0
BITMAP
030300
068100
763B00
460A00
460A00
1B5B10
ENDCHAR
STARTCHAR Uring
ENCODING 366
SWIDTH 752 0
DWIDTH 6 0
BBX 6 7 0 0
BITMAP
003500
003500
5C2096
1A0052
1A0052
0B0061
078760
ENDCHAR
STARTCHAR uring
ENCODING 367
SWIDTH 570 0
DWIDTH 5 0
BBX 5 6 0 0
BITMAP
035000
035000
763B00
460A00
460A00
1B5B10
ENDCHAR
STARTCHAR Uhungarumlaut
ENCODING 368
SWIDTH 752 0
DWIDTH 6 0
BBX 6 7 0 0
BITMAP
003770
001100
5C2096
1A0052
1A0052
0B0061
078760
ENDCHAR
STARTCHAR uhungarumlaut
ENCODING 369
SWIDTH 570 0
DWIDTH 5 0
BBX 5 6 0 0
BITMAP
048600
011000
763B00
460A00
460A00
1B5B10
ENDCHAR
STARTCHAR Uogonek
ENCODING 370
SWIDTH 753 0
DWIDTH 6 0
BBX 6 7 0 -2
BITMAP
5C2096
1A0052
1A0052
0B0061
0787A0
002700
003810
ENDCHAR
STARTCHAR uogonek
ENCODING 371
SWIDTH 570 0
DWIDTH 5 0
BBX 5 6 0 -2
BITMAP
763B00
460A00
460A00
1B6C10
005200
007500
ENDCHAR
STARTCHAR Wcircumflex
ENCODING 372
SWIDTH 944 0
DWIDTH 8 0
BBX 8 7 0 0
BITMAP
00285000
00000000
9A1C50A3
1B067060
0946B330
03B48A00
00902700
ENDCHAR
STARTCHAR wcircumflex
ENCODING 373
SWIDTH 749 0
DWIDTH 6 0
BBX 6 6 0 0
BITMAP
003300
007600
A57819
384A23
0B5960
074470
ENDCHAR
STARTCHAR Ycircumflex
ENCODING 374
SWIDTH 647 0
DWIDTH 5 0
BBX 6 7 0 0
BITMAP
028500
000000
8C0391
0A3600
02C300
00B000
02D400
ENDCHAR
STARTCHAR ycircumflex
ENCODING 375
SWIDTH 483 0
DWIDTH 4 0
BBX 4 8 0 -2
BITMAP
0240
0761
B529
3842
0A50
0550
0510
9500
ENDCHAR
STARTCHAR Ydieresis
ENCODING 376
SWIDTH 647 0
DWIDTH 5 0
BBX 6 7 0 0
BITMAP
062900
000000
8C0391
0A3600
02C300
00B000
02D400
ENDCHAR
STARTCHAR Zacute
ENCODING 377
SWIDTH 594 0
DWIDTH 5 0
BBX 5 7 0 0
BITMAP
018200
000000
776D40
205800
02B000
0B2020
8A6850
ENDCHAR
STARTCHAR zacute
ENCODING 378
SWIDTH 458 0
DWIDTH 4 0
BBX 4 6 0 0
BITMAP
0050
0430
75C3
1480
1B01
8975
ENDCHAR
STARTCHAR Zdotaccent
ENCODING 379
SWIDTH 594 0
DWIDTH 5 0
BBX 5 7 0 0
BITMAP
009000
000000
776D40
205800
02B000
0B2020
8A6850
ENDCHAR
STARTCHAR zdotaccent
ENCODING 380
SWIDTH 458 0
DWIDTH 4 0
BBX 4 6 0 0
BITMAP
0640
0000
75C3
1480
1B01
8975
ENDCHAR
STARTCHAR Zcaron
ENCODING 381
SWIDTH 594 0
DWIDTH 5 0
BBX 5 7 0 0
BITMAP
038300
000000
776D40
205800
02B000
0B2020
8A6850
ENDCHAR
STARTCHAR zcaron
ENCODING 382
SWIDTH 458 0
DWIDTH 4 0
BBX 4 6 0 0
BITMAP
1230
0860
75C3
1480
1B01
8975
ENDCHAR
STARTCHAR longs
ENCODING 383
SWIDTH 285 0
DWIDTH 2 0
BBX 3 6 0 0
BITMAP
0570
2710
6700
3700
3700
6A10
ENDCHAR
STARTCHAR uni0180
ENCODING 384
SWIDTH 522 0
DWIDTH 4 0
BBX 4 6 0 0
BITMAP
9400
8840
5896
550B
540A
4864
ENDCHAR
STARTCHAR uni0188
ENCODING 392
SWIDTH 446 0
DWIDTH 4 0
BBX 5 5 0 0
BITMAP
003720
35A200
901100
A10100
4B8100
ENDCHAR
STARTCHAR uni0190
ENCODING 400
SWIDTH 518 0
DWIDTH 4 0
BBX 4 5 0 0
BITMAP
4878
7402
1A60
9300
5A85
ENDCHAR
STARTCHAR uni0192
ENCODING 402
SWIDTH 301 0
DWIDTH 2 0
BBX 4 8 -1 -2
BITMAP
0057
0271
0692
0370
0370
0370
0360
7720
ENDCHAR
STARTCHAR uni0195
ENCODING 405
SWIDTH 798 0
DWIDTH 6 0
BBX 6 6 0 0
BITMAP
770000
370000
3A870A
370A07
370A04
6A0874
ENDCHAR
STARTCHAR uni0199
ENCODING 409
SWIDTH 538 0
DWIDTH 4 0
BBX 5 6 0 0
BITMAP
047100
271000
378600
4B4000
49A000
696A10
ENDCHAR
STARTCHAR uni019A
ENCODING 410
SWIDTH 287 0
DWIDTH 2 0
BBX 2 6 0 0
BITMAP
57
37
5A
37
37
6A
ENDCHAR
STARTCHAR uni019B
ENCODING 411
SWIDTH 495 0
DWIDTH 4 0
BBX 4 6 0 0
BITMAP
7740
1730
0380
0A60
2923
A519
ENDCHAR
STARTCHAR uni019E
ENCODING 414
SWIDTH 559 0
DWIDTH 4 0
BBX 5 6 0 -2
BITMAP
697800
370A00
370A00
5A0A00
000A00
000B20
ENDCHAR
STARTCHAR Ohorn
ENCODING 416
SWIDTH 737 0
DWIDTH 6 0
BBX 6 7 0 0
BITMAP
000004
000018
0757B1
660085
940067
660084
075660
ENDCHAR
STARTCHAR ohorn
ENCODING 417
SWIDTH 516 0
DWIDTH 4 0
BBX 4 6 0 0
BITMAP
0004
0007
3687
A10A
A10A
3764
ENDCHAR
STARTCHAR uni01A5
ENCODING 421
SWIDTH 522 0
DWIDTH 4 0
BBX 4 8 0 -2
BITMAP
0481
4510
5896
550B
5409
5964
5400
8800
ENDCHAR
STARTCHAR uni01AA
ENCODING 426
SWIDTH 298 0
DWIDTH 2 0
BBX 5 8 -1 -2
BITMAP
365000
519000
04A000
00A000
00A000
00A000
009000
006820
ENDCHAR
STARTCHAR uni01AB
ENCODING 427
SWIDTH 321 0
DWIDTH 3 0
BBX 3 7 0 -2
BITMAP
2600
6910
4600
4600
2A50
0050
1730
ENDCHAR
STARTCHAR uni01AD
ENCODING 429
SWIDTH 315 0
DWIDTH 3 0
BBX 4 6 0 0
BITMAP
0581
3610
6920
4600
4600
2A20
ENDCHAR
STARTCHAR Uhorn
ENCODING 431
SWIDTH 762 0
DWIDTH 6 0
BBX 7 7 0 0
BITMAP
00000370
00000230
5C209200
1A005200
1A005200
0B006000
07875000
ENDCHAR
STARTCHAR uhorn
ENCODING 432
SWIDTH 574 0
DWIDTH 5 0
BBX 5 5 0 0
BITMAP
000070
763C10
460A00
460A00
1B5B10
ENDCHAR
STARTCHAR uni01B5
ENCODING 437
SWIDTH 594 0
DWIDTH 5 0
BBX 5 5 0 0
BITMAP
776C40
204900
17C600
0A3020
8A6760
ENDCHAR
STARTCHAR uni01BA
ENCODING 442
SWIDTH 430 0
DWIDTH 3 0
BBX 4 6 0 -2
BITMAP
86B0
1910
16A0
00A1
3630
5590
ENDCHAR
STARTCHAR uni01BB
ENCODING 443
SWIDTH 508 0
DWIDTH 4 0
BBX 4 6 0 0
BITMAP
28A1
2056
0055
35A5
0611
7BA8
ENDCHAR
STARTCHAR uni01BE
ENCODING 446
SWIDTH 406 0
DWIDTH 3 0
BBX 3 5 0 0
BITMAP
2600
5A20
0480
20A0
7570
ENDCHAR
STARTCHAR uni01C0
ENCODING 448
SWIDTH 250 0
DWIDTH 2 0
BBX 2 6 0 0
BITMAP
55
55
55
55
55
55
ENDCHAR
STARTCHAR uni01C1
ENCODING 449
SWIDTH 423 0
DWIDTH 3 0
BBX 3 6 0 0
BITMAP
5590
5590
5590
5590
5590
5590
ENDCHAR
STARTCHAR uni01C2
ENCODING 450
SWIDTH 422 0
DWIDTH 3 0
BBX 3 6 0 0
BITMAP
0900
0900
3B50
3B50
0900
0900
ENDCHAR
STARTCHAR uni01C3
ENCODING 451
SWIDTH 245 0
DWIDTH 2 0
BBX 2 6 0 0
BITMAP
55
55
44
33
11
54
ENDCHAR
STARTCHAR uni01DE
ENCODING 478
SWIDTH 718 0
DWIDTH 6 0
BBX 6 8 0 0
BITMAP
026600
054810
000000
009300
019A00
071C20
0A5990
8602E4
ENDCHAR
STARTCHAR uni01DF
ENCODING 479
SWIDTH 480 0
DWIDTH 4 0
BBX 4 6 0 0
BITMAP
7BF1
0000
46A0
22B1
6491
7895
ENDCHAR
STARTCHAR uni01F0
ENCODING 496
SWIDTH 263 0
DWIDTH 2 0
BBX 3 8 -1 -2
BITMAP
0320
0770
0670
0370
0370
0370
0360
8720
ENDCHAR
STARTCHAR Aringacute
ENCODING 506
SWIDTH 718 0
DWIDTH 6 0
BBX 6 9 0 0
BITMAP
006400
000000
005300
005300
009300
019A00
071C20
0A5990
8602E4
ENDCHAR
STARTCHAR aringacute
ENCODING 507
SWIDTH 480 0
DWIDTH 4 0
BBX 4 7 0 0
BITMAP
0640
0530
0530
46A0
22B1
6491
7895
ENDCHAR
STARTCHAR AEacute
ENCODING 508
SWIDTH 894 0
DWIDTH 7 0
BBX 8 7 -1 0
BITMAP
00001820
00000000
0006D668
0005B141
0056C6A0
0160B103
1A32D669
ENDCHAR
STARTCHAR aeacute
ENCODING 509
SWIDTH 709 0
DWIDTH 6 0
BBX 6 6 0 0
BITMAP
003300
007000
569691
13C573
73A201
786B81
ENDCHAR
STARTCHAR Oslashacute
ENCODING 510
SWIDTH 737 0
DWIDTH 6 0
BBX 6 7 0 0
BITMAP
005500
000000
0756A0
660594
844267
693084
295660
ENDCHAR
STARTCHAR oslashacute
ENCODING 511
SWIDTH 514 0
DWIDTH 4 0
BBX 4 6 0 0
BITMAP
0050
0430
3676
A25B
A60A
6864
ENDCHAR
STARTCHAR uni0218
ENCODING 536
SWIDTH 504 0
DWIDTH 4 0
BBX 4 7 0 -2
BITMAP
4787
7604
08B2
403A
9766
0660
0230
ENDCHAR
STARTCHAR uni0219
ENCODING 537
SWIDTH 394 0
DWIDTH 3 0
BBX 3 6 0 -2
BITMAP
6570
7820
25B0
7580
0C00
0500
ENDCHAR
STARTCHAR uni021A
ENCODING 538
SWIDTH 603 0
DWIDTH 5 0
BBX 5 7 0 -2
BITMAP
96C680
20B020
00B000
00B000
03D200
00C000
005000
ENDCHAR
STARTCHAR uni021B
ENCODING 539
SWIDTH 315 0
DWIDTH 3 0
BBX 3 7 0 -2
BITMAP
2600
6920
4600
4600
2A20
0C00
0500
ENDCHAR
STARTCHAR uni0221
ENCODING 545
SWIDTH 674 0
DWIDTH 5 0
BBX 6 7 0 -1
BITMAP
005800
002800
277800
902800
A12832
4B7B53
000500
ENDCHAR
STARTCHAR uni0228
ENCODING 552
SWIDTH 626 0
DWIDTH 5 0
BBX 5 7 0 -2
BITMAP
3D5660
0B0500
0C5900
0B0020
3D6680
006200
005200
ENDCHAR
STARTCHAR uni0229
ENCODING 553
SWIDTH 464 0
DWIDTH 4 0
BBX 4 6 0 -2
BITMAP
3682
9574
A201
3B82
0350
0340
ENDCHAR
STARTCHAR uni0234
ENCODING 564
SWIDTH 399 0
DWIDTH 3 0
BBX 4 8 0 -2
BITMAP
8400
5400
5400
5400
5551
3A51
1300
1000
ENDCHAR
STARTCHAR uni0235
ENCODING 565
SWIDTH 702 0
DWIDTH 6 0
BBX 6 6 0 -2
BITMAP
597700
370A00
370A33
5A0964
000500
000100
ENDCHAR
STARTCHAR uni0236
ENCODING 566
SWIDTH 406 0
DWIDTH 3 0
BBX 4 6 0 -1
BITMAP
2600
6920
4600
4641
2B42
1400
ENDCHAR
STARTCHAR uni0237
ENCODING 567
SWIDTH 263 0
DWIDTH 2 0
BBX 3 6 -1 -2
BITMAP
0670
0370
0370
0370
0360
8720
ENDCHAR
STARTCHAR uni0250
ENCODING 592
SWIDTH 475 0
DWIDTH 4 0
BBX 4 4 0 0
BITMAP
88A5
4664
4821
1873
ENDCHAR
STARTCHAR uni0251
ENCODING 593
SWIDTH 542 0
DWIDTH 4 0
BBX 4 4 0 0
BITMAP
2777
9028
A128
5A7A
ENDCHAR
STARTCHAR uni0252
ENCODING 594
SWIDTH 544 0
DWIDTH 4 0
BBX 4 4 0 0
BITMAP
6A99
370A
3709
3955
ENDCHAR
STARTCHAR uni0253
ENCODING 595
SWIDTH 518 0
DWIDTH 4 0
BBX 4 6 0 0
BITMAP
0580
4410
68A6
640B
6409
5863
ENDCHAR
STARTCHAR uni0254
ENCODING 596
SWIDTH 454 0
DWIDTH 4 0
BBX 4 4 0 0
BITMAP
49A0
1074
1054
7660
ENDCHAR
STARTCHAR uni0255
ENCODING 597
SWIDTH 447 0
DWIDTH 4 0
BBX 4 5 0 -1
BITMAP
3592
9010
A351
3D72
2200
ENDCHAR
STARTCHAR uni0256
ENCODING 598
SWIDTH 528 0
DWIDTH 4 0
BBX 5 8 0 -2
BITMAP
005800
002800
267800
902800
A12800
4A7800
001800
000790
ENDCHAR
STARTCHAR uni0257
ENCODING 599
SWIDTH 542 0
DWIDTH 4 0
BBX 6 6 0 0
BITMAP
000471
001810
278800
902800
A12800
4A7A10
ENDCHAR
STARTCHAR uni0258
ENCODING 600
SWIDTH 466 0
DWIDTH 4 0
BBX 4 4 0 0
BITMAP
4771
6575
1065
49A1
ENDCHAR
STARTCHAR uni0259
ENCODING 601
SWIDTH 464 0
DWIDTH 4 0
BBX 4 4 0 0
BITMAP
49A1
1065
7575
4761
ENDCHAR
STARTCHAR uni025A
ENCODING 602
SWIDTH 642 0
DWIDTH 5 0
BBX 5 4 0 0
BITMAP
49B210
106870
757500
476100
ENDCHAR
STARTCHAR uni025B
ENCODING 603
SWIDTH 399 0
DWIDTH 3 0
BBX 3 4 0 0
BITMAP
6680
4920
A100
6850
ENDCHAR
STARTCHAR uni025C
ENCODING 604
SWIDTH 398 0
DWIDTH 3 0
BBX 3 4 0 0
BITMAP
6580
0860
00A0
4770
ENDCHAR
STARTCHAR uni025D
ENCODING 605
SWIDTH 575 0
DWIDTH 5 0
BBX 5 4 0 0
BITMAP
758210
087630
00A000
478000
ENDCHAR
STARTCHAR uni025E
ENCODING 606
SWIDTH 500 0
DWIDTH 4 0
BBX 4 4 0 0
BITMAP
2766
9294
900A
2776
ENDCHAR
STARTCHAR uni025F
ENCODING 607
SWIDTH 272 0
DWIDTH 2 0
BBX 3 6 -1 -2
BITMAP
0670
0380
06A0
0380
0370
7730
ENDCHAR
STARTCHAR uni0260
ENCODING 608
SWIDTH 541 0
DWIDTH 4 0
BBX 6 8 0 -2
BITMAP
000462
001811
277800
902800
A12800
5B7800
003700
677200
ENDCHAR
STARTCHAR uni0261
ENCODING 609
SWIDTH 521 0
DWIDTH 4 0
BBX 4 6 0 -2
BITMAP
2777
9028
A128
5B78
0037
6772
ENDCHAR
STARTCHAR uni0262
ENCODING 610
SWIDTH 535 0
DWIDTH 4 0
BBX 4 4 0 0
BITMAP
2659
A102
A128
3848
ENDCHAR
STARTCHAR uni0263
ENCODING 611
SWIDTH 479 0
DWIDTH 4 0
BBX 4 6 0 -2
BITMAP
B52A
4742
0B60
0750
0690
0680
ENDCHAR
STARTCHAR uni0264
ENCODING 612
SWIDTH 466 0
DWIDTH 4 0
BBX 4 4 0 0
BITMAP
8877
0590
22A0
1780
ENDCHAR
STARTCHAR uni0265
ENCODING 613
SWIDTH 553 0
DWIDTH 4 0
BBX 5 6 0 -2
BITMAP
662A00
460A00
460A00
1B6A00
000A00
000B20
ENDCHAR
STARTCHAR uni0266
ENCODING 614
SWIDTH 577 0
DWIDTH 5 0
BBX 5 6 0 0
BITMAP
047200
271000
3A8800
370A00
370A00
6A2C20
ENDCHAR
STARTCHAR uni0267
ENCODING 615
SWIDTH 562 0
DWIDTH 5 0
BBX 4 8 0 -2
BITMAP
0472
2710
3A88
370A
370A
6A0A
000A
0386
ENDCHAR
STARTCHAR uni0268
ENCODING 616
SWIDTH 295 0
DWIDTH 2 0
BBX 2 6 0 0
BITMAP
27
00
48
5A
28
5A
ENDCHAR
STARTCHAR uni0269
ENCODING 617
SWIDTH 286 0
DWIDTH 2 0
BBX 3 4 0 0
BITMAP
6600
4600
4600
2A20
ENDCHAR
STARTCHAR uni026A
ENCODING 618
SWIDTH 287 0
DWIDTH 2 0
BBX 2 4 0 0
BITMAP
5A
37
37
5A
ENDCHAR
STARTCHAR uni026B
ENCODING 619
SWIDTH 290 0
DWIDTH 2 0
BBX 3 6 0 0
BITMAP
5700
3700
7730
5B10
3700
5A00
ENDCHAR
STARTCHAR uni026C
ENCODING 620
SWIDTH 318 0
DWIDTH 3 0
BBX 3 6 0 0
BITMAP
2A00
0A00
7A00
9C30
0A00
2C10
ENDCHAR
STARTCHAR uni026D
ENCODING 621
SWIDTH 248 0
DWIDTH 2 0
BBX 3 8 0 -2
BITMAP
8400
5400
5400
5400
5400
5400
5400
1780
ENDCHAR
STARTCHAR uni026E
ENCODING 622
SWIDTH 590 0
DWIDTH 5 0
BBX 5 8 0 -2
BITMAP
670000
370000
3A5B40
373900
379500
6A0660
010380
075720
ENDCHAR
STARTCHAR uni026F
ENCODING 623
SWIDTH 846 0
DWIDTH 7 0
BBX 7 4 0 0
BITMAP
66391B00
460A0A00
460A0A00
1A5A6B20
ENDCHAR
STARTCHAR uni0270
ENCODING 624
SWIDTH 826 0
DWIDTH 7 0
BBX 7 6 0 -2
BITMAP
66391B00
460A0A00
460A0A00
1B6A6B00
00000A00
00000A30
ENDCHAR
STARTCHAR uni0271
ENCODING 625
SWIDTH 835 0
DWIDTH 7 0
BBX 7 6 0 -2
BITMAP
69796B00
370A0910
370A0910
5A2C2910
00000900
00019700
ENDCHAR
STARTCHAR uni0272
ENCODING 626
SWIDTH 574 0
DWIDTH 5 0
BBX 6 6 -1 -2
BITMAP
069780
0370A0
0370A0
0372C2
036000
872000
ENDCHAR
STARTCHAR uni0273
ENCODING 627
SWIDTH 563 0
DWIDTH 5 0
BBX 6 6 0 -2
BITMAP
697800
370A00
370A00
590A00
000A00
000683
ENDCHAR
STARTCHAR uni0274
ENCODING 628
SWIDTH 568 0
DWIDTH 5 0
BBX 5 4 0 0
BITMAP
7A0A20
487500
419900
741A00
ENDCHAR
STARTCHAR uni0275
ENCODING 629
SWIDTH 514 0
DWIDTH 4 0
BBX 4 4 0 0
BITMAP
3564
A54B
A20A
3864
ENDCHAR
STARTCHAR uni0276
ENCODING 630
SWIDTH 732 0
DWIDTH 6 0
BBX 6 4 0 0
BITMAP
389A65
A24980
A14711
377956
ENDCHAR
STARTCHAR uni0277
ENCODING 631
SWIDTH 672 0
DWIDTH 5 0
BBX 6 4 0 0
BITMAP
175740
8261A0
A1A1A1
476580
ENDCHAR
STARTCHAR uni0278
ENCODING 632
SWIDTH 658 0
DWIDTH 5 0
BBX 5 8 0 -2
BITMAP
01B000
00A000
27B760
91A0B0
A1A0A0
38B540
00A000
01C200
ENDCHAR
STARTCHAR uni0279
ENCODING 633
SWIDTH 380 0
DWIDTH 3 0
BBX 3 4 0 0
BITMAP
1A60
0730
0730
9960
ENDCHAR
STARTCHAR uni027A
ENCODING 634
SWIDTH 374 0
DWIDTH 3 0
BBX 3 6 0 0
BITMAP
0930
0730
0730
0730
0730
9960
ENDCHAR
STARTCHAR uni027B
ENCODING 635
SWIDTH 375 0
DWIDTH 3 0
BBX 4 6 0 -2
BITMAP
1A60
0730
0730
9930
0630
0278
ENDCHAR
STARTCHAR uni027C
ENCODING 636
SWIDTH 378 0
DWIDTH 3 0
BBX 3 6 0 -2
BITMAP
59A0
3800
3700
3700
3700
6A10
ENDCHAR
STARTCHAR uni027D
ENCODING 637
SWIDTH 373 0
DWIDTH 3 0
BBX 3 6 0 -2
BITMAP
6990
4700
4600
4600
3600
0790
ENDCHAR
STARTCHAR uni027E
ENCODING 638
SWIDTH 371 0
DWIDTH 3 0
BBX 3 4 0 0
BITMAP
0670
3600
4600
6910
ENDCHAR
STARTCHAR uni027F
ENCODING 639
SWIDTH 371 0
DWIDTH 3 0
BBX 3 4 0 0
BITMAP
7600
0720
0730
1A60
ENDCHAR
STARTCHAR uni0280
ENCODING 640
SWIDTH 494 0
DWIDTH 4 0
BBX 4 4 0 0
BITMAP
5A82
3755
3A90
5977
ENDCHAR
STARTCHAR uni0281
ENCODING 641
SWIDTH 494 0
DWIDTH 4 0
BBX 4 4 0 0
BITMAP
5977
3A90
3755
5A82
ENDCHAR
STARTCHAR uni0282
ENCODING 642
SWIDTH 395 0
DWIDTH 3 0
BBX 3 6 0 -2
BITMAP
6570
7820
25B0
7580
5000
4700
ENDCHAR
STARTCHAR uni0283
ENCODING 643
SWIDTH 253 0
DWIDTH 2 0
BBX 4 8 -1 -2
BITMAP
0056
0452
0550
0550
0550
0550
0550
7710
ENDCHAR
STARTCHAR uni0284
ENCODING 644
SWIDTH 286 0
DWIDTH 2 0
BBX 4 8 -1 -2
BITMAP
0067
0270
0370
0370
0370
0690
0360
5620
ENDCHAR
STARTCHAR uni0285
ENCODING 645
SWIDTH 361 0
DWIDTH 3 0
BBX 4 6 0 -2
BITMAP
8700
0730
0730
0730
0630
0277
ENDCHAR
STARTCHAR uni0286
ENCODING 646
SWIDTH 253 0
DWIDTH 2 0
BBX 4 8 -1 -2
BITMAP
0057
0452
0550
0550
0550
0550
3870
5830
ENDCHAR
STARTCHAR uni0287
ENCODING 647
SWIDTH 315 0
DWIDTH 3 0
BBX 3 5 0 -1
BITMAP
6900
0A00
0A00
4C10
0800
ENDCHAR
STARTCHAR uni0288
ENCODING 648
SWIDTH 309 0
DWIDTH 2 0
BBX 3 7 0 -2
BITMAP
2600
6920
4700
4700
4700
3700
0790
ENDCHAR
STARTCHAR uni0289
ENCODING 649
SWIDTH 580 0
DWIDTH 5 0
BBX 5 4 0 0
BITMAP
672B00
694B10
370A00
1B6B10
ENDCHAR
STARTCHAR uni028A
ENCODING 650
SWIDTH 548 0
DWIDTH 4 0
BBX 4 4 0 0
BITMAP
3838
730A
920B
3746
ENDCHAR
STARTCHAR uni028B
ENCODING 651
SWIDTH 530 0
DWIDTH 4 0
BBX 4 4 0 0
BITMAP
7628
4607
4604
1A73
ENDCHAR
STARTCHAR uni028C
ENCODING 652
SWIDTH 495 0
DWIDTH 4 0
BBX 4 4 0 0
BITMAP
0650
06A0
3392
A169
ENDCHAR
STARTCHAR uni028D
ENCODING 653
SWIDTH 764 0
DWIDTH 6 0
BBX 7 4 0 0
BITMAP
06448000
0695B000
33947400
91784B10
ENDCHAR
STARTCHAR uni028E
ENCODING 654
SWIDTH 492 0
DWIDTH 4 0
BBX 4 6 0 0
BITMAP
0068
0240
0740
06A0
3392
916A
ENDCHAR
STARTCHAR uni028F
ENCODING 655
SWIDTH 454 0
DWIDTH 4 0
BBX 4 4 0 0
BITMAP
A445
1A50
0830
0960
ENDCHAR
STARTCHAR uni0290
ENCODING 656
SWIDTH 458 0
DWIDTH 4 0
BBX 5 6 0 -2
BITMAP
75C300
148000
1B1100
886500
000500
000660
ENDCHAR
STARTCHAR uni0291
ENCODING 657
SWIDTH 458 0
DWIDTH 4 0
BBX 4 6 0 -2
BITMAP
75C3
1480
1B43
8A74
0500
0100
ENDCHAR
STARTCHAR uni0292
ENCODING 658
SWIDTH 443 0
DWIDTH 4 0
BBX 4 6 0 -2
BITMAP
85C2
1570
0B30
0093
0065
9471
ENDCHAR
STARTCHAR uni0293
ENCODING 659
SWIDTH 443 0
DWIDTH 4 0
BBX 4 8 0 -4
BITMAP
86D2
1570
0B30
0093
4465
5891
0050
0010
ENDCHAR
STARTCHAR uni0294
ENCODING 660
SWIDTH 383 0
DWIDTH 3 0
BBX 3 6 0 0
BITMAP
4440
50A0
00A0
2720
3700
6A10
ENDCHAR
STARTCHAR uni0295
ENCODING 661
SWIDTH 383 0
DWIDTH 3 0
BBX 3 6 0 0
BITMAP
7480
A020
9100
0730
0640
0970
ENDCHAR
STARTCHAR uni0296
ENCODING 662
SWIDTH 408 0
DWIDTH 3 0
BBX 3 6 0 0
BITMAP
5800
2800
1900
0190
20A0
8470
ENDCHAR
STARTCHAR uni0297
ENCODING 663
SWIDTH 437 0
DWIDTH 4 0
BBX 4 6 0 -2
BITMAP
16A2
8121
9000
A000
7402
1A80
ENDCHAR
STARTCHAR uni0298
ENCODING 664
SWIDTH 736 0
DWIDTH 6 0
BBX 6 6 0 0
BITMAP
064560
640074
A16539
A10038
550074
064460
ENDCHAR
STARTCHAR uni0299
ENCODING 665
SWIDTH 485 0
DWIDTH 4 0
BBX 4 4 0 0
BITMAP
5A83
3A92
3736
5965
ENDCHAR
STARTCHAR uni029A
ENCODING 666
SWIDTH 500 0
DWIDTH 4 0
BBX 4 4 0 0
BITMAP
6572
4929
A109
6772
ENDCHAR
STARTCHAR uni029B
ENCODING 667
SWIDTH 536 0
DWIDTH 4 0
BBX 5 5 0 0
BITMAP
000570
275900
A10200
A12800
384800
ENDCHAR
STARTCHAR uni029C
ENCODING 668
SWIDTH 599 0
DWIDTH 5 0
BBX 5 4 0 0
BITMAP
591C20
394B00
370A00
5A1C20
ENDCHAR
STARTCHAR uni029D
ENCODING 669
SWIDTH 263 0
DWIDTH 2 0
BBX 3 7 -1 -2
BITMAP
0360
0670
0370
0370
0370
3790
4740
ENDCHAR
STARTCHAR uni029E
ENCODING 670
SWIDTH 542 0
DWIDTH 4 0
BBX 5 6 0 -2
BITMAP
6A5A00
077800
019800
3A2800
002800
002A10
ENDCHAR
STARTCHAR uni029F
ENCODING 671
SWIDTH 440 0
DWIDTH 4 0
BBX 4 4 0 0
BITMAP
7900
4600
4601
7854
ENDCHAR
STARTCHAR uni02A0
ENCODING 672
SWIDTH 541 0
DWIDTH 4 0
BBX 6 8 0 -2
BITMAP
000472
001811
278800
902800
A12800
5B7800
002800
006B00
ENDCHAR
STARTCHAR uni02A1
ENCODING 673
SWIDTH 393 0
DWIDTH 3 0
BBX 3 6 0 0
BITMAP
3450
50A0
00A0
1730
5A20
5A10
ENDCHAR
STARTCHAR uni02A2
ENCODING 674
SWIDTH 393 0
DWIDTH 3 0
BBX 3 6 0 0
BITMAP
6480
A020
A100
1720
1870
0970
ENDCHAR
STARTCHAR uni02A3
ENCODING 675
SWIDTH 830 0
DWIDTH 7 0
BBX 7 6 0 0
BITMAP
00580000
00280000
278B5C30
90284800
A129B110
4A7F8750
ENDCHAR
STARTCHAR uni02A4
ENCODING 676
SWIDTH 838 0
DWIDTH 7 0
BBX 7 8 0 -2
BITMAP
00580000
00280000
278B5C40
90283900
A1289500
4A7A0650
00010370
00085710
ENDCHAR
STARTCHAR uni02A5
ENCODING 677
SWIDTH 829 0
DWIDTH 7 0
BBX 7 8 0 -2
BITMAP
00580000
00280000
278B5C30
90285800
A129B530
4A7FA640
00005000
00001000
ENDCHAR
STARTCHAR uni02A6
ENCODING 678
SWIDTH 614 0
DWIDTH 5 0
BBX 5 5 0 0
BITMAP
250000
59B560
469610
460780
194650
ENDCHAR
STARTCHAR uni02A7
ENCODING 679
SWIDTH 513 0
DWIDTH 4 0
BBX 5 8 0 -2
BITMAP
000570
253610
697600
464600
464600
2A6600
004600
077200
ENDCHAR
STARTCHAR uni02A8
ENCODING 680
SWIDTH 687 0
DWIDTH 6 0
BBX 6 5 0 0
BITMAP
250000
6955A2
469000
46A341
2A7A71
ENDCHAR
STARTCHAR uni02A9
ENCODING 681
SWIDTH 866 0
DWIDTH 7 0
BBX 7 8 0 -2
BITMAP
05700000
27100000
6A5C6B10
370A0640
370A0540
6A2C2540
00000540
00009710
ENDCHAR
STARTCHAR uni02AA
ENCODING 682
SWIDTH 595 0
DWIDTH 5 0
BBX 5 6 0 0
BITMAP
840000
540000
558650
55B410
541960
274640
ENDCHAR
STARTCHAR uni02AB
ENCODING 683
SWIDTH 580 0
DWIDTH 5 0
BBX 5 6 0 0
BITMAP
670000
370000
3A5C20
374700
37A010
6D9840
ENDCHAR
STARTCHAR uni02AC
ENCODING 684
SWIDTH 599 0
DWIDTH 5 0
BBX 5 6 0 0
BITMAP
94B260
27A500
0A3800
637140
46A410
0A3800
ENDCHAR
STARTCHAR uni02AD
ENCODING 685
SWIDTH 479 0
DWIDTH 4 0
BBX 4 5 0 0
BITMAP
79A4
6023
5993
7034
7034
ENDCHAR
STARTCHAR uni02AE
ENCODING 686
SWIDTH 595 0
DWIDTH 5 0
BBX 6 6 -1 -2
BITMAP
2750A2
009082
00A082
0097A2
000082
000085
ENDCHAR
STARTCHAR uni02AF
ENCODING 687
SWIDTH 600 0
DWIDTH 5 0
BBX 7 6 -1 -2
BITMAP
2850A200
00908200
00A08200
0097A200
00007200
00003760
ENDCHAR
STARTCHAR uni02B0
ENCODING 688
SWIDTH 488 0
DWIDTH 4 0
BBX 4 4 0 2
BITMAP
6400
5791
5453
7676
ENDCHAR
STARTCHAR uni02B1
ENCODING 689
SWIDTH 488 0
DWIDTH 4 0
BBX 4 5 0 2
BITMAP
0460
4410
5791
5453
7676
ENDCHAR
STARTCHAR uni02B2
ENCODING 690
SWIDTH 222 0
DWIDTH 2 0
BBX 3 5 -1 1
BITMAP
0430
0640
0440
0440
5820
ENDCHAR
STARTCHAR uni02B3
ENCODING 691
SWIDTH 325 0
DWIDTH 3 0
BBX 3 3 0 2
BITMAP
7840
5400
7600
ENDCHAR
STARTCHAR uni02B4
ENCODING 692
SWIDTH 325 0
DWIDTH 3 0
BBX 3 3 0 2
BITMAP
0A30
0810
6A30
ENDCHAR
STARTCHAR uni02B5
ENCODING 693
SWIDTH 325 0
DWIDTH 3 0
BBX 4 4 0 1
BITMAP
0A30
0810
7A10
0241
ENDCHAR
STARTCHAR uni02B6
ENCODING 694
SWIDTH 443 0
DWIDTH 4 0
BBX 4 3 0 2
BITMAP
7792
5960
6790
ENDCHAR
STARTCHAR uni02B7
ENCODING 695
SWIDTH 653 0
DWIDTH 5 0
BBX 6 3 0 2
BITMAP
A3B181
278640
0A1B00
ENDCHAR
STARTCHAR uni02B8
ENCODING 696
SWIDTH 427 0
DWIDTH 3 0
BBX 4 4 0 1
BITMAP
9472
1950
0810
6500
ENDCHAR
STARTCHAR uni02B9
ENCODING 697
SWIDTH 296 0
DWIDTH 2 0
BBX 2 3 0 3
BITMAP
09
35
20
ENDCHAR
STARTCHAR uni02BA
ENCODING 698
SWIDTH 456 0
DWIDTH 4 0
BBX 4 3 0 3
BITMAP
0991
3580
2120
ENDCHAR
STARTCHAR uni02BB
ENCODING 699
SWIDTH 245 0
DWIDTH 2 0
BBX 2 2 0 4
BITMAP
42
67
ENDCHAR
STARTCHAR uni02BC
ENCODING 700
SWIDTH 244 0
DWIDTH 2 0
BBX 2 2 0 4
BITMAP
75
23
ENDCHAR
STARTCHAR uni02BD
ENCODING 701
SWIDTH 244 0
DWIDTH 2 0
BBX 2 2 0 4
BITMAP
67
42
ENDCHAR
STARTCHAR uni02BE
ENCODING 702
SWIDTH 203 0
DWIDTH 2 0
BBX 2 2 0 4
BITMAP
52
52
ENDCHAR
STARTCHAR uni02BF
ENCODING 703
SWIDTH 203 0
DWIDTH 2 0
BBX 2 2 0 4
BITMAP
52
52
ENDCHAR
STARTCHAR uni02C0
ENCODING 704
SWIDTH 364 0
DWIDTH 3 0
BBX 3 3 0 3
BITMAP
4530
1280
1800
ENDCHAR
STARTCHAR uni02C1
ENCODING 705
SWIDTH 364 0
DWIDTH 3 0
BBX 3 3 0 3
BITMAP
3530
9110
1800
ENDCHAR
STARTCHAR uni02C2
ENCODING 706
SWIDTH 324 0
DWIDTH 3 0
BBX 3 3 0 3
BITMAP
1720
5600
0120
ENDCHAR
STARTCHAR uni02C3
ENCODING 707
SWIDTH 324 0
DWIDTH 3 0
BBX 3 3 0 3
BITMAP
5500
2820
3000
ENDCHAR
STARTCHAR uni02C4
ENCODING 708
SWIDTH 324 0
DWIDTH 3 0
BBX 3 2 0 4
BITMAP
2900
7350
ENDCHAR
STARTCHAR uni02C5
ENCODING 709
SWIDTH 324 0
DWIDTH 3 0
BBX 3 2 0 4
BITMAP
7350
2900
ENDCHAR
STARTCHAR circumflex
ENCODING 710
SWIDTH 342 0
DWIDTH 3 0
BBX 3 2 0 4
BITMAP
0600
5530
ENDCHAR
STARTCHAR caron
ENCODING 711
SWIDTH 342 0
DWIDTH 3 0
BBX 3 2 0 4
BITMAP
3020
3A10
ENDCHAR
STARTCHAR uni02C8
ENCODING 712
SWIDTH 284 0
DWIDTH 2 0
BBX 1 3 1 4
BITMAP
10
40
40
ENDCHAR
STARTCHAR uni02C9
ENCODING 713
SWIDTH 350 0
DWIDTH 3 0
BBX 3 1 0 4
BITMAP
5740
ENDCHAR
STARTCHAR uni02CA
ENCODING 714
SWIDTH 222 0
DWIDTH 2 0
BBX 2 2 0 4
BITMAP
24
71
ENDCHAR
STARTCHAR uni02CB
ENCODING 715
SWIDTH 222 0
DWIDTH 2 0
BBX 2 2 0 4
BITMAP
50
35
ENDCHAR
STARTCHAR uni02CC
ENCODING 716
SWIDTH 284 0
DWIDTH 2 0
BBX 1 3 1 -2
BITMAP
10
40
40
ENDCHAR
STARTCHAR uni02CD
ENCODING 717
SWIDTH 342 0
DWIDTH 3 0
BBX 3 1 0 -2
BITMAP
6740
ENDCHAR
STARTCHAR uni02CE
ENCODING 718
SWIDTH 222 0
DWIDTH 2 0
BBX 2 2 0 -2
BITMAP
50
35
ENDCHAR
STARTCHAR uni02CF
ENCODING 719
SWIDTH 223 0
DWIDTH 2 0
BBX 2 2 0 -2
BITMAP
24
71
ENDCHAR
STARTCHAR uni02D0
ENCODING 720
SWIDTH 341 0
DWIDTH 3 0
BBX 2 4 0 -1
BITMAP
1C
01
1A
12
ENDCHAR
STARTCHAR uni02D1
ENCODING 721
SWIDTH 341 0
DWIDTH 3 0
BBX 2 2 0 2
BITMAP
1C
01
ENDCHAR
STARTCHAR uni02D2
ENCODING 722
SWIDTH 341 0
DWIDTH 3 0
BBX 3 3 0 0
BITMAP
3700
0620
3700
ENDCHAR
STARTCHAR uni02D3
ENCODING 723
SWIDTH 341 0
DWIDTH 3 0
BBX 3 3 0 0
BITMAP
1810
6200
1810
ENDCHAR
STARTCHAR uni02D4
ENCODING 724
SWIDTH 341 0
DWIDTH 3 0
BBX 3 2 0 1
BITMAP
0400
3720
ENDCHAR
STARTCHAR uni02D5
ENCODING 725
SWIDTH 341 0
DWIDTH 3 0
BBX 3 2 0 1
BITMAP
3710
0400
ENDCHAR
STARTCHAR uni02D6
ENCODING 726
SWIDTH 341 0
DWIDTH 3 0
BBX 3 2 0 1
BITMAP
0400
2810
ENDCHAR
STARTCHAR uni02D7
ENCODING 727
SWIDTH 341 0
DWIDTH 3 0
BBX 3 1 0 2
BITMAP
2510
ENDCHAR
STARTCHAR breve
ENCODING 728
SWIDTH 353 0
DWIDTH 3 0
BBX 3 2 0 4
BITMAP
3030
4820
ENDCHAR
STARTCHAR dotaccent
ENCODING 729
SWIDTH 194 0
DWIDTH 2 0
BBX 2 1 0 5
BITMAP
82
ENDCHAR
STARTCHAR ring
ENCODING 730
SWIDTH 265 0
DWIDTH 2 0
BBX 2 2 0 4
BITMAP
44
44
ENDCHAR
STARTCHAR ogonek
ENCODING 731
SWIDTH 277 0
DWIDTH 2 0
BBX 2 3 0 -2
BITMAP
01
70
65
ENDCHAR
STARTCHAR tilde
ENCODING 732
SWIDTH 381 0
DWIDTH 3 0
BBX 3 1 0 4
BITMAP
4740
ENDCHAR
STARTCHAR hungarumlaut
ENCODING 733
SWIDTH 350 0
DWIDTH 3 0
BBX 3 2 0 4
BITMAP
6940
1100
ENDCHAR
STARTCHAR uni02DE
ENCODING 734
SWIDTH 205 0
DWIDTH 2 0
BBX 3 2 -1 1
BITMAP
1310
1630
ENDCHAR
STARTCHAR uni02DF
ENCODING 735
SWIDTH 302 0
DWIDTH 2 0
BBX 2 2 0 4
BITMAP
57
58
ENDCHAR
STARTCHAR uni02E0
ENCODING 736
SWIDTH 413 0
DWIDTH 3 0
BBX 4 4 0 1
BITMAP
A371
2840
0A10
0830
ENDCHAR
STARTCHAR uni02E1
ENCODING 737
SWIDTH 244 0
DWIDTH 2 0
BBX 2 4 0 2
BITMAP
64
54
54
76
ENDCHAR
STARTCHAR uni02E2
ENCODING 738
SWIDTH 337 0
DWIDTH 3 0
BBX 3 3 0 2
BITMAP
7540
4920
7650
ENDCHAR
STARTCHAR uni02E3
ENCODING 739
SWIDTH 445 0
DWIDTH 4 0
BBX 4 3 0 2
BITMAP
5881
0940
64B2
ENDCHAR
STARTCHAR uni02E4
ENCODING 740
SWIDTH 364 0
DWIDTH 3 0
BBX 3 4 0 2
BITMAP
5580
8100
1730
0760
ENDCHAR
STARTCHAR uni02E5
ENCODING 741
SWIDTH 423 0
DWIDTH 3 0
BBX 4 6 0 0
BITMAP
4681
0051
0051
0051
0051
0041
ENDCHAR
STARTCHAR uni02E6
ENCODING 742
SWIDTH 414 0
DWIDTH 3 0
BBX 3 7 0 -1
BITMAP
0020
0060
46A0
0060
0060
0060
0010
ENDCHAR
STARTCHAR uni02E7
ENCODING 743
SWIDTH 414 0
DWIDTH 3 0
BBX 3 7 0 -1
BITMAP
0020
0060
0060
46A0
0060
0060
0010
ENDCHAR
STARTCHAR uni02E8
ENCODING 744
SWIDTH 414 0
DWIDTH 3 0
BBX 3 7 0 -1
BITMAP
0020
0060
0060
0060
46A0
0060
0010
ENDCHAR
STARTCHAR uni02E9
ENCODING 745
SWIDTH 414 0
DWIDTH 3 0
BBX 3 6 0 0
BITMAP
0050
0060
0060
0060
0060
4680
ENDCHAR
STARTCHAR uni02EC
ENCODING 748
SWIDTH 341 0
DWIDTH 3 0
BBX 3 2 0 -1
BITMAP
8540
1A00
ENDCHAR
STARTCHAR uni02ED
ENCODING 749
SWIDTH 380 0
DWIDTH 3 0
BBX 3 2 0 4
BITMAP
5750
5750
ENDCHAR
STARTCHAR uni02F7
ENCODING 759
SWIDTH 381 0
DWIDTH 3 0
BBX 3 1 0 -2
BITMAP
4740
ENDCHAR
STARTCHAR uni0300
ENCODING 768
SWIDTH 0 0
DWIDTH 0 0
BBX 2 2 -3 4
BITMAP
51
25
ENDCHAR
STARTCHAR uni0301
ENCODING 769
SWIDTH 0 0
DWIDTH 0 0
BBX 2 2 -3 4
BITMAP
06
16
ENDCHAR
STARTCHAR uni0302
ENCODING 770
SWIDTH 0 0
DWIDTH 0 0
BBX 3 2 -3 4
BITMAP
2400
6610
ENDCHAR
STARTCHAR uni0303
ENCODING 771
SWIDTH 0 0
DWIDTH 0 0
BBX 3 1 -3 4
BITMAP
6720
ENDCHAR
STARTCHAR uni0304
ENCODING 772
SWIDTH 0 0
DWIDTH 0 0
BBX 3 1 -3 4
BITMAP
7720
ENDCHAR
STARTCHAR uni0305
ENCODING 773
SWIDTH 0 0
DWIDTH 0 0
BBX 4 1 -4 4
BITMAP
1777
ENDCHAR
STARTCHAR uni0306
ENCODING 774
SWIDTH 0 0
DWIDTH 0 0
BBX 3 2 -3 4
BITMAP
3130
6800
ENDCHAR
STARTCHAR uni0307
ENCODING 775
SWIDTH 0 0
DWIDTH 0 0
BBX 2 1 -3 5
BITMAP
37
ENDCHAR
STARTCHAR uni0308
ENCODING 776
SWIDTH 0 0
DWIDTH 0 0
BBX 4 1 -4 5
BITMAP
1945
ENDCHAR
STARTCHAR uni0309
ENCODING 777
SWIDTH 0 0
DWIDTH 0 0
BBX 2 2 -3 4
BITMAP
25
05
ENDCHAR
STARTCHAR uni030A
ENCODING 778
SWIDTH 0 0
DWIDTH 0 0
BBX 2 2 -3 4
BITMAP
35
35
ENDCHAR
STARTCHAR uni030B
ENCODING 779
SWIDTH 0 0
DWIDTH 0 0
BBX 3 2 -3 4
BITMAP
4860
1100
ENDCHAR
STARTCHAR uni030C
ENCODING 780
SWIDTH 0 0
DWIDTH 0 0
BBX 3 2 -3 4
BITMAP
3210
5800
ENDCHAR
STARTCHAR uni030D
ENCODING 781
SWIDTH 0 0
DWIDTH 0 0
BBX 2 2 -3 4
BITMAP
15
16
ENDCHAR
STARTCHAR uni030E
ENCODING 782
SWIDTH 0 0
DWIDTH 0 0
BBX 2 2 -3 4
BITMAP
66
77
ENDCHAR
STARTCHAR uni030F
ENCODING 783
SWIDTH 0 0
DWIDTH 0 0
BBX 3 2 -4 4
BITMAP
2970
0110
ENDCHAR
STARTCHAR uni0310
ENCODING 784
SWIDTH 0 0
DWIDTH 0 0
BBX 3 2 -3 4
BITMAP
4720
6810
ENDCHAR
STARTCHAR uni0311
ENCODING 785
SWIDTH 0 0
DWIDTH 0 0
BBX 3 2 -3 4
BITMAP
7800
3120
ENDCHAR
STARTCHAR uni0312
ENCODING 786
SWIDTH 0 0
DWIDTH 0 0
BBX 2 2 -3 4
BITMAP
23
48
ENDCHAR
STARTCHAR uni0313
ENCODING 787
SWIDTH 0 0
DWIDTH 0 0
BBX 2 2 -3 4
BITMAP
39
14
ENDCHAR
STARTCHAR uni0314
ENCODING 788
SWIDTH 0 0
DWIDTH 0 0
BBX 2 2 -3 4
BITMAP
48
23
ENDCHAR
STARTCHAR uni0315
ENCODING 789
SWIDTH 0 0
DWIDTH 0 0
BBX 1 2 -2 4
BITMAP
90
30
ENDCHAR
STARTCHAR uni0316
ENCODING 790
SWIDTH 0 0
DWIDTH 0 0
BBX 2 2 -3 -2
BITMAP
51
25
ENDCHAR
STARTCHAR uni0317
ENCODING 791
SWIDTH 0 0
DWIDTH 0 0
BBX 3 2 -3 -2
BITMAP
0510
1700
ENDCHAR
STARTCHAR uni0318
ENCODING 792
SWIDTH 0 0
DWIDTH 0 0
BBX 2 2 -3 -2
BITMAP
04
27
ENDCHAR
STARTCHAR uni0319
ENCODING 793
SWIDTH 0 0
DWIDTH 0 0
BBX 2 2 -3 -2
BITMAP
40
53
ENDCHAR
STARTCHAR uni031A
ENCODING 794
SWIDTH 0 0
DWIDTH 0 0
BBX 2 2 -3 4
BITMAP
58
06
ENDCHAR
STARTCHAR uni031B
ENCODING 795
SWIDTH 0 0
DWIDTH 0 0
BBX 2 2 -2 3
BITMAP
07
24
ENDCHAR
STARTCHAR uni031C
ENCODING 796
SWIDTH 0 0
DWIDTH 0 0
BBX 2 2 -3 -2
BITMAP
23
23
ENDCHAR
STARTCHAR uni031D
ENCODING 797
SWIDTH 0 0
DWIDTH 0 0
BBX 2 2 -3 -2
BITMAP
03
36
ENDCHAR
STARTCHAR uni031E
ENCODING 798
SWIDTH 0 0
DWIDTH 0 0
BBX 2 2 -3 -2
BITMAP
36
03
ENDCHAR
STARTCHAR uni031F
ENCODING 799
SWIDTH 0 0
DWIDTH 0 0
BBX 2 2 -3 -2
BITMAP
04
37
ENDCHAR
STARTCHAR uni0320
ENCODING 800
SWIDTH 0 0
DWIDTH 0 0
BBX 2 1 -3 -2
BITMAP
34
ENDCHAR
STARTCHAR uni0321
ENCODING 801
SWIDTH 0 0
DWIDTH 0 0
BBX 3 3 -4 -2
BITMAP
0030
1190
3730
ENDCHAR
STARTCHAR uni0322
ENCODING 802
SWIDTH 0 0
DWIDTH 0 0
BBX 3 3 -2 -2
BITMAP
3000
9110
3720
ENDCHAR
STARTCHAR uni0323
ENCODING 803
SWIDTH 0 0
DWIDTH 0 0
BBX 2 1 -3 -2
BITMAP
37
ENDCHAR
STARTCHAR uni0324
ENCODING 804
SWIDTH 0 0
DWIDTH 0 0
BBX 4 1 -4 -1
BITMAP
1945
ENDCHAR
STARTCHAR uni0325
ENCODING 805
SWIDTH 0 0
DWIDTH 0 0
BBX 2 2 -3 -2
BITMAP
35
35
ENDCHAR
STARTCHAR uni0326
ENCODING 806
SWIDTH 0 0
DWIDTH 0 0
BBX 2 2 -3 -2
BITMAP
39
14
ENDCHAR
STARTCHAR uni0327
ENCODING 807
SWIDTH 0 0
DWIDTH 0 0
BBX 2 2 -3 -2
BITMAP
16
25
ENDCHAR
STARTCHAR uni0328
ENCODING 808
SWIDTH 0 0
DWIDTH 0 0
BBX 2 3 -3 -2
BITMAP
01
61
55
ENDCHAR
STARTCHAR uni0329
ENCODING 809
SWIDTH 0 0
DWIDTH 0 0
BBX 2 2 -3 -3
BITMAP
16
01
ENDCHAR
STARTCHAR uni032A
ENCODING 810
SWIDTH 0 0
DWIDTH 0 0
BBX 3 2 -3 -2
BITMAP
6610
2110
ENDCHAR
STARTCHAR uni032B
ENCODING 811
SWIDTH 0 0
DWIDTH 0 0
BBX 3 2 -3 -2
BITMAP
1220
6620
ENDCHAR
STARTCHAR uni032C
ENCODING 812
SWIDTH 0 0
DWIDTH 0 0
BBX 3 2 -3 -2
BITMAP
3210
5800
ENDCHAR
STARTCHAR uni032D
ENCODING 813
SWIDTH 0 0
DWIDTH 0 0
BBX 3 2 -3 -2
BITMAP
2400
7610
ENDCHAR
STARTCHAR uni032E
ENCODING 814
SWIDTH 0 0
DWIDTH 0 0
BBX 3 2 -3 -2
BITMAP
3130
6800
ENDCHAR
STARTCHAR uni032F
ENCODING 815
SWIDTH 0 0
DWIDTH 0 0
BBX 3 2 -3 -2
BITMAP
7810
1010
ENDCHAR
STARTCHAR uni0330
ENCODING 816
SWIDTH 0 0
DWIDTH 0 0
BBX 3 1 -3 -2
BITMAP
6710
ENDCHAR
STARTCHAR uni0331
ENCODING 817
SWIDTH 0 0
DWIDTH 0 0
BBX 3 1 -3 -1
BITMAP
7720
ENDCHAR
STARTCHAR uni0332
ENCODING 818
SWIDTH 0 0
DWIDTH 0 0
BBX 5 1 -4 -1
BITMAP
666610
ENDCHAR
STARTCHAR uni0333
ENCODING 819
SWIDTH 0 0
DWIDTH 0 0
BBX 5 2 -4 -2
BITMAP
666610
666610
ENDCHAR
STARTCHAR uni0334
ENCODING 820
SWIDTH 0 0
DWIDTH 0 0
BBX 3 1 -3 1
BITMAP
6720
ENDCHAR
STARTCHAR uni0335
ENCODING 821
SWIDTH 0 0
DWIDTH 0 0
BBX 4 1 -4 2
BITMAP
1662
ENDCHAR
STARTCHAR uni0336
ENCODING 822
SWIDTH 0 0
DWIDTH 0 0
BBX 5 1 -4 2
BITMAP
566610
ENDCHAR
STARTCHAR uni0337
ENCODING 823
SWIDTH 0 0
DWIDTH 0 0
BBX 3 2 -3 2
BITMAP
0510
5100
ENDCHAR
STARTCHAR uni0338
ENCODING 824
SWIDTH 0 0
DWIDTH 0 0
BBX 4 7 -4 -1
BITMAP
0007
0024
0060
0160
0610
0700
4300
ENDCHAR
STARTCHAR uni0339
ENCODING 825
SWIDTH 0 0
DWIDTH 0 0
BBX 2 2 -3 -2
BITMAP
14
14
ENDCHAR
STARTCHAR uni033A
ENCODING 826
SWIDTH 0 0
DWIDTH 0 0
BBX 3 2 -3 -2
BITMAP
2110
6610
ENDCHAR
STARTCHAR uni033B
ENCODING 827
SWIDTH 0 0
DWIDTH 0 0
BBX 2 2 -3 -2
BITMAP
46
46
ENDCHAR
STARTCHAR uni033C
ENCODING 828
SWIDTH 0 0
DWIDTH 0 0
BBX 3 2 -3 -2
BITMAP
7720
0100
ENDCHAR
STARTCHAR uni033D
ENCODING 829
SWIDTH 0 0
DWIDTH 0 0
BBX 2 2 -3 4
BITMAP
45
34
ENDCHAR
STARTCHAR uni033E
ENCODING 830
SWIDTH 0 0
DWIDTH 0 0
BBX 2 3 -3 4
BITMAP
13
26
14
ENDCHAR
STARTCHAR uni033F
ENCODING 831
SWIDTH 0 0
DWIDTH 0 0
BBX 4 2 -4 4
BITMAP
3665
3665
ENDCHAR
STARTCHAR uni0346
ENCODING 838
SWIDTH 0 0
DWIDTH 0 0
BBX 3 2 -3 4
BITMAP
8730
3120
ENDCHAR
STARTCHAR uni0347
ENCODING 839
SWIDTH 0 0
DWIDTH 0 0
BBX 4 2 -4 -2
BITMAP
1773
1773
ENDCHAR
STARTCHAR uni034C
ENCODING 844
SWIDTH 0 0
DWIDTH 0 0
BBX 3 2 -3 4
BITMAP
6720
6720
ENDCHAR
STARTCHAR uni034D
ENCODING 845
SWIDTH 0 0
DWIDTH 0 0
BBX 4 3 -4 -3
BITMAP
0101
787A
0101
ENDCHAR
STARTCHAR uni0359
ENCODING 857
SWIDTH 0 0
DWIDTH 0 0
BBX 3 3 -3 -3
BITMAP
1400
7820
7920
ENDCHAR
STARTCHAR uni035C
ENCODING 860
SWIDTH 0 0
DWIDTH 0 0
BBX 6 2 -3 -2
BITMAP
400004
278871
ENDCHAR
STARTCHAR uni0360
ENCODING 864
SWIDTH 0 0
DWIDTH 0 0
BBX 4 2 -2 4
BITMAP
6812
2186
ENDCHAR
STARTCHAR uni0361
ENCODING 865
SWIDTH 0 0
DWIDTH 0 0
BBX 4 2 -2 4
BITMAP
4884
4004
ENDCHAR
STARTCHAR uni0362
ENCODING 866
SWIDTH 0 0
DWIDTH 0 0
BBX 7 3 -3 -3
BITMAP
00000100
77777A10
00000100
ENDCHAR
STARTCHAR uni037E
ENCODING 894
SWIDTH 261 0
DWIDTH 2 0
BBX 2 6 0 -2
BITMAP
35
00
00
36
15
10
ENDCHAR
STARTCHAR tonos
ENCODING 900
SWIDTH 165 0
DWIDTH 1 0
BBX 1 2 0 4
BITMAP
90
10
ENDCHAR
STARTCHAR dieresistonos
ENCODING 901
SWIDTH 426 0
DWIDTH 3 0
BBX 4 2 0 4
BITMAP
7871
0100
ENDCHAR
STARTCHAR Alphatonos
ENCODING 902
SWIDTH 718 0
DWIDTH 6 0
BBX 6 6 0 0
BITMAP
710000
109300
019A00
071C20
0A5990
8602E4
ENDCHAR
STARTCHAR anoteleia
ENCODING 903
SWIDTH 261 0
DWIDTH 2 0
BBX 2 1 0 3
BITMAP
35
ENDCHAR
STARTCHAR Epsilontonos
ENCODING 904
SWIDTH 745 0
DWIDTH 6 0
BBX 7 6 -1 0
BITMAP
18000000
014D5660
000B0500
000C6900
000B0020
004D5780
ENDCHAR
STARTCHAR Etatonos
ENCODING 905
SWIDTH 896 0
DWIDTH 7 0
BBX 8 6 -1 0
BITMAP
18000000
014D22C6
000B0092
000C55B2
000B0092
003D21C5
ENDCHAR
STARTCHAR Iotatonos
ENCODING 906
SWIDTH 478 0
DWIDTH 4 0
BBX 5 6 -1 0
BITMAP
180000
014D20
000B00
000B00
000B00
003D20
ENDCHAR
STARTCHAR Omicrontonos
ENCODING 908
SWIDTH 806 0
DWIDTH 6 0
BBX 7 6 -1 0
BITMAP
18000000
01285830
00C101C0
00C000D0
00C000C0
00285730
ENDCHAR
STARTCHAR Upsilontonos
ENCODING 910
SWIDTH 787 0
DWIDTH 6 0
BBX 8 6 -1 0
BITMAP
36000000
106D12A1
00095510
0001C400
0000A100
0002C600
ENDCHAR
STARTCHAR Omegatonos
ENCODING 911
SWIDTH 830 0
DWIDTH 7 0
BBX 8 6 -1 0
BITMAP
18000000
013BCC30
00D302D0
00D000C0
01740372
01CD1DB2
ENDCHAR
STARTCHAR iotadieresistonos
ENCODING 912
SWIDTH 259 0
DWIDTH 2 0
BBX 4 5 -1 0
BITMAP
4774
0740
0720
0710
0580
ENDCHAR
STARTCHAR Alpha
ENCODING 913
SWIDTH 718 0
DWIDTH 6 0
BBX 6 5 0 0
BITMAP
009300
019A00
071C20
0A5990
8602E4
ENDCHAR
STARTCHAR Beta
ENCODING 914
SWIDTH 618 0
DWIDTH 5 0
BBX 5 5 0 0
BITMAP
3D5920
0B0750
0C5A10
0B0490
3D4740
ENDCHAR
STARTCHAR Gamma
ENCODING 915
SWIDTH 569 0
DWIDTH 5 0
BBX 5 5 0 0
BITMAP
8EBD50
0B0050
0B0000
0B0000
8F7000
ENDCHAR
STARTCHAR Delta
ENCODING 916
SWIDTH 667 0
DWIDTH 5 0
BBX 5 5 0 0
BITMAP
00A100
037800
060B10
340670
9AAAD0
ENDCHAR
STARTCHAR Epsilon
ENCODING 917
SWIDTH 626 0
DWIDTH 5 0
BBX 5 5 0 0
BITMAP
3D5660
0B0500
0C5900
0B0020
3D5680
ENDCHAR
STARTCHAR Zeta
ENCODING 918
SWIDTH 594 0
DWIDTH 5 0
BBX 5 5 0 0
BITMAP
776D40
205800
02B000
0B2020
8A6850
ENDCHAR
STARTCHAR Eta
ENCODING 919
SWIDTH 777 0
DWIDTH 6 0
BBX 6 5 0 0
BITMAP
3D21B6
0B0092
0C55B2
0B0092
3D21B6
ENDCHAR
STARTCHAR Theta
ENCODING 920
SWIDTH 738 0
DWIDTH 6 0
BBX 6 5 0 0
BITMAP
08CC80
6933A4
95DC67
6900A5
09CC80
ENDCHAR
STARTCHAR Iota
ENCODING 921
SWIDTH 357 0
DWIDTH 3 0
BBX 3 5 0 0
BITMAP
3D20
0B00
0B00
0B00
3D20
ENDCHAR
STARTCHAR Kappa
ENCODING 922
SWIDTH 702 0
DWIDTH 6 0
BBX 6 5 0 0
BITMAP
3D2781
0B3400
0CA000
0B4A00
3D27B2
ENDCHAR
STARTCHAR Lambda
ENCODING 923
SWIDTH 710 0
DWIDTH 6 0
BBX 6 5 0 0
BITMAP
009300
026A00
060930
2502B0
D906F8
ENDCHAR
STARTCHAR Mu
ENCODING 924
SWIDTH 895 0
DWIDTH 7 0
BBX 7 5 0 0
BITMAP
4F200E50
0A805B10
06C17910
066A2910
49191B50
ENDCHAR
STARTCHAR Nu
ENCODING 925
SWIDTH 742 0
DWIDTH 6 0
BBX 6 5 0 0
BITMAP
5D11A4
09B060
065960
0608B0
4900A0
ENDCHAR
STARTCHAR Xi
ENCODING 926
SWIDTH 648 0
DWIDTH 5 0
BBX 5 5 0 0
BITMAP
7BBB90
040400
09BB00
200020
8BBBA0
ENDCHAR
STARTCHAR Omicron
ENCODING 927
SWIDTH 738 0
DWIDTH 6 0
BBX 6 5 0 0
BITMAP
075680
660085
940067
660084
075570
ENDCHAR
STARTCHAR Pi
ENCODING 928
SWIDTH 759 0
DWIDTH 6 0
BBX 6 5 0 0
BITMAP
9EBBEA
0B00B0
0B00B0
0B00B0
9F65FA
ENDCHAR
STARTCHAR Rho
ENCODING 929
SWIDTH 569 0
DWIDTH 5 0
BBX 5 5 0 0
BITMAP
3D5A20
0B0840
0C5500
0B0000
3D2000
ENDCHAR
STARTCHAR Sigma
ENCODING 931
SWIDTH 604 0
DWIDTH 5 0
BBX 5 5 0 0
BITMAP
9DBD50
0A2140
019000
051030
8CBC60
ENDCHAR
STARTCHAR Tau
ENCODING 932
SWIDTH 603 0
DWIDTH 5 0
BBX 5 5 0 0
BITMAP
96C680
20B020
00B000
00B000
03D200
ENDCHAR
STARTCHAR Upsilon
ENCODING 933
SWIDTH 647 0
DWIDTH 5 0
BBX 6 5 0 0
BITMAP
8C0391
0A3600
02C300
00B000
02D400
ENDCHAR
STARTCHAR Phi
ENCODING 934
SWIDTH 718 0
DWIDTH 6 0
BBX 6 5 0 0
BITMAP
07FF30
848494
938475
16A760
03ED00
ENDCHAR
STARTCHAR Chi
ENCODING 935
SWIDTH 664 0
DWIDTH 5 0
BBX 6 5 0 0
BITMAP
5E2581
067600
00D300
063B00
670AA1
ENDCHAR
STARTCHAR Psi
ENCODING 936
SWIDTH 720 0
DWIDTH 6 0
BBX 6 5 0 0
BITMAP
C5ED59
747483
6774B3
1ADC70
03DD10
ENDCHAR
STARTCHAR Omega
ENCODING 937
SWIDTH 777 0
DWIDTH 6 0
BBX 6 5 0 0
BITMAP
07CC91
4B0087
580058
290084
7B85C9
ENDCHAR
STARTCHAR Iotadieresis
ENCODING 938
SWIDTH 357 0
DWIDTH 3 0
BBX 3 7 0 0
BITMAP
9180
0000
3D20
0B00
0B00
0B00
3D20
ENDCHAR
STARTCHAR Upsilondieresis
ENCODING 939
SWIDTH 647 0
DWIDTH 5 0
BBX 6 7 0 0
BITMAP
062900
000000
8C0391
0A3600
02C300
00B000
02D400
ENDCHAR
STARTCHAR alphatonos
ENCODING 940
SWIDTH 561 0
DWIDTH 4 0
BBX 5 6 0 0
BITMAP
018000
001000
298A10
503700
605500
594B20
ENDCHAR
STARTCHAR epsilontonos
ENCODING 941
SWIDTH 381 0
DWIDTH 3 0
BBX 3 6 0 0
BITMAP
0360
0100
4B90
5400
6210
6C80
ENDCHAR
STARTCHAR etatonos
ENCODING 942
SWIDTH 510 0
DWIDTH 4 0
BBX 4 8 0 -2
BITMAP
0090
0010
A6B4
1A07
2706
4607
0018
0035
ENDCHAR
STARTCHAR iotatonos
ENCODING 943
SWIDTH 259 0
DWIDTH 2 0
BBX 2 6 0 0
BITMAP
26
10
74
72
71
58
ENDCHAR
STARTCHAR upsilondieresistonos
ENCODING 944
SWIDTH 491 0
DWIDTH 4 0
BBX 4 5 0 0
BITMAP
6871
B542
4407
4227
2BB1
ENDCHAR
STARTCHAR alpha
ENCODING 945
SWIDTH 561 0
DWIDTH 4 0
BBX 5 4 0 0
BITMAP
298A10
503700
605500
594B20
ENDCHAR
STARTCHAR beta
ENCODING 946
SWIDTH 530 0
DWIDTH 4 0
BBX 4 8 0 -2
BITMAP
06A7
1506
4582
6107
7408
87B7
9200
6100
ENDCHAR
STARTCHAR gamma
ENCODING 947
SWIDTH 466 0
DWIDTH 4 0
BBX 4 6 0 -2
BITMAP
A656
0791
0670
0710
0A00
0A00
ENDCHAR
STARTCHAR delta
ENCODING 948
SWIDTH 479 0
DWIDTH 4 0
BBX 4 6 0 0
BITMAP
0BB2
0721
19B1
6136
6027
5BA1
ENDCHAR
STARTCHAR epsilon
ENCODING 949
SWIDTH 381 0
DWIDTH 3 0
BBX 3 4 0 0
BITMAP
4B90
5400
6210
6C80
ENDCHAR
STARTCHAR zeta
ENCODING 950
SWIDTH 386 0
DWIDTH 3 0
BBX 4 9 0 -3
BITMAP
0200
0893
0830
5300
5000
7200
3BB0
0060
0730
ENDCHAR
STARTCHAR eta
ENCODING 951
SWIDTH 510 0
DWIDTH 4 0
BBX 4 6 0 -2
BITMAP
A6B4
1A07
2706
4607
0018
0035
ENDCHAR
STARTCHAR theta
ENCODING 952
SWIDTH 514 0
DWIDTH 4 0
BBX 4 6 0 0
BITMAP
0AB2
4106
8BB9
6006
6217
1BB2
ENDCHAR
STARTCHAR iota
ENCODING 953
SWIDTH 259 0
DWIDTH 2 0
BBX 2 4 0 0
BITMAP
74
72
71
58
ENDCHAR
STARTCHAR kappa
ENCODING 954
SWIDTH 495 0
DWIDTH 4 0
BBX 4 4 0 0
BITMAP
A558
1970
1A50
3787
ENDCHAR
STARTCHAR lambda
ENCODING 955
SWIDTH 506 0
DWIDTH 4 0
BBX 4 6 0 0
BITMAP
1B20
1250
0270
0860
3780
A25A
ENDCHAR
STARTCHAR mu
ENCODING 956
SWIDTH 552 0
DWIDTH 4 0
BBX 5 6 0 -2
BITMAP
641900
622600
615500
796B20
900000
600000
ENDCHAR
STARTCHAR nu
ENCODING 957
SWIDTH 453 0
DWIDTH 4 0
BBX 4 5 0 -1
BITMAP
B554
0756
0691
0940
0200
ENDCHAR
STARTCHAR xi
ENCODING 958
SWIDTH 390 0
DWIDTH 3 0
BBX 4 8 0 -2
BITMAP
1200
2991
4300
2970
6000
6940
0272
0780
ENDCHAR
STARTCHAR omicron
ENCODING 959
SWIDTH 475 0
DWIDTH 4 0
BBX 4 4 0 0
BITMAP
2BB2
6016
7016
4BB1
ENDCHAR
STARTCHAR pi
ENCODING 960
SWIDTH 591 0
DWIDTH 5 0
BBX 5 4 0 0
BITMAP
6CBD60
150600
072600
471C30
ENDCHAR
STARTCHAR rho
ENCODING 961
SWIDTH 515 0
DWIDTH 4 0
BBX 4 6 0 -2
BITMAP
0AB5
5307
7306
78B4
8200
5200
ENDCHAR
STARTCHAR uni03C2
ENCODING 962
SWIDTH 377 0
DWIDTH 3 0
BBX 3 6 0 -2
BITMAP
3BA0
6000
7100
3C60
0070
0860
ENDCHAR
STARTCHAR sigma
ENCODING 963
SWIDTH 545 0
DWIDTH 4 0
BBX 5 4 0 0
BITMAP
2BCC40
700600
701700
4CB200
ENDCHAR
STARTCHAR tau
ENCODING 964
SWIDTH 392 0
DWIDTH 3 0
BBX 4 4 0 0
BITMAP
8DB1
0600
0800
0A60
ENDCHAR
STARTCHAR upsilon
ENCODING 965
SWIDTH 491 0
DWIDTH 4 0
BBX 4 4 0 0
BITMAP
B442
4407
4227
2BB1
ENDCHAR
STARTCHAR phi
ENCODING 966
SWIDTH 603 0
DWIDTH 5 0
BBX 5 7 0 -2
BITMAP
010000
3B6C30
607060
607260
2AC800
009000
015000
ENDCHAR
STARTCHAR chi
ENCODING 967
SWIDTH 462 0
DWIDTH 4 0
BBX 5 6 -1 -2
BITMAP
0953A0
006910
007500
00B300
083600
2A0860
ENDCHAR
STARTCHAR psi
ENCODING 968
SWIDTH 620 0
DWIDTH 5 0
BBX 5 8 0 -2
BITMAP
00A000
008000
A57330
347080
427370
1BDB10
009000
007000
ENDCHAR
STARTCHAR omega
ENCODING 969
SWIDTH 660 0
DWIDTH 5 0
BBX 5 4 0 0
BITMAP
290140
60A080
607090
4B7B80
ENDCHAR
STARTCHAR iotadieresis
ENCODING 970
SWIDTH 259 0
DWIDTH 2 0
BBX 4 5 -1 0
BITMAP
2552
0740
0720
0710
0580
ENDCHAR
STARTCHAR upsilondieresis
ENCODING 971
SWIDTH 491 0
DWIDTH 4 0
BBX 4 5 0 0
BITMAP
4370
B442
4407
4227
2BB1
ENDCHAR
STARTCHAR omicrontonos
ENCODING 972
SWIDTH 475 0
DWIDTH 4 0
BBX 4 6 0 0
BITMAP
0080
0010
2BB2
6016
7016
4BB1
ENDCHAR
STARTCHAR upsilontonos
ENCODING 973
SWIDTH 491 0
DWIDTH 4 0
BBX 4 6 0 0
BITMAP
0360
0100
B442
4407
4227
2BB1
ENDCHAR
STARTCHAR omegatonos
ENCODING 974
SWIDTH 660 0
DWIDTH 5 0
BBX 5 6 0 0
BITMAP
007200
001000
290140
60A080
607090
4B7B80
ENDCHAR
STARTCHAR uni03D0
ENCODING 976
SWIDTH 438 0
DWIDTH 4 0
BBX 4 6 0 0
BITMAP
07B2
2714
7590
8AA0
7323
1BB1
ENDCHAR
STARTCHAR uni03D1
ENCODING 977
SWIDTH 541 0
DWIDTH 4 0
BBX 4 6 0 0
BITMAP
09B1
1516
0607
79AB
1806
08B3
ENDCHAR
STARTCHAR uni03D2
ENCODING 978
SWIDTH 616 0
DWIDTH 5 0
BBX 5 5 0 0
BITMAP
7D29B0
03A360
00C000
00B000
09F700
ENDCHAR
STARTCHAR uni03D5
ENCODING 981
SWIDTH 575 0
DWIDTH 5 0
BBX 5 8 0 -2
BITMAP
005000
00A000
07D600
638620
608240
58B910
049100
047000
ENDCHAR
STARTCHAR uni03D6
ENCODING 982
SWIDTH 821 0
DWIDTH 7 0
BBX 7 4 0 0
BITMAP
8DCBBD60
07080700
06080900
07B7B500
ENDCHAR
STARTCHAR uni03D8
ENCODING 984
SWIDTH 627 0
DWIDTH 5 0
BBX 5 5 0 0
BITMAP
2BBB20
A404A0
930390
167610
03D300
ENDCHAR
STARTCHAR uni03D9
ENCODING 985
SWIDTH 475 0
DWIDTH 4 0
BBX 4 6 0 -2
BITMAP
2BB2
7016
6016
4BA1
0710
0610
ENDCHAR
STARTCHAR uni03DA
ENCODING 986
SWIDTH 578 0
DWIDTH 5 0
BBX 5 5 0 0
BITMAP
2BBE30
930330
960000
1AC400
01A800
ENDCHAR
STARTCHAR uni03DB
ENCODING 987
SWIDTH 490 0
DWIDTH 4 0
BBX 4 6 0 -2
BITMAP
2ABA
6000
7100
3C50
0070
0950
ENDCHAR
STARTCHAR uni03DC
ENCODING 988
SWIDTH 588 0
DWIDTH 5 0
BBX 5 5 0 0
BITMAP
3D5670
0B0500
0C5900
0B0000
3D2000
ENDCHAR
STARTCHAR uni03DD
ENCODING 989
SWIDTH 386 0
DWIDTH 3 0
BBX 4 6 -1 -2
BITMAP
05CB
0530
0595
0610
0600
8600
ENDCHAR
STARTCHAR uni03DE
ENCODING 990
SWIDTH 525 0
DWIDTH 4 0
BBX 4 5 0 0
BITMAP
0D90
1500
8BBA
0032
06E3
ENDCHAR
STARTCHAR uni03DF
ENCODING 991
SWIDTH 434 0
DWIDTH 3 0
BBX 5 5 -1 0
BITMAP
1B2000
032000
069900
010500
000C30
ENDCHAR
STARTCHAR uni03E0
ENCODING 992
SWIDTH 697 0
DWIDTH 6 0
BBX 6 5 0 0
BITMAP
01C100
00A800
053D20
1673A0
7357F7
ENDCHAR
STARTCHAR uni03E1
ENCODING 993
SWIDTH 458 0
DWIDTH 4 0
BBX 5 8 -1 -3
BITMAP
1B3000
01A200
027900
052710
009840
000250
000320
000200
ENDCHAR
STARTCHAR uni03F0
ENCODING 1008
SWIDTH 504 0
DWIDTH 4 0
BBX 5 4 0 0
BITMAP
852A00
06A100
0B8000
676910
ENDCHAR
STARTCHAR uni03F1
ENCODING 1009
SWIDTH 467 0
DWIDTH 4 0
BBX 4 6 0 -2
BITMAP
1AB2
6116
8126
5AB1
0640
0950
ENDCHAR
STARTCHAR uni03F4
ENCODING 1012
SWIDTH 737 0
DWIDTH 6 0
BBX 6 5 0 0
BITMAP
08CC80
670095
9CBBD7
670094
09CC70
ENDCHAR
STARTCHAR uni03F5
ENCODING 1013
SWIDTH 380 0
DWIDTH 3 0
BBX 3 4 0 0
BITMAP
3A80
8B30
7010
4C90
ENDCHAR
STARTCHAR uni03F6
ENCODING 1014
SWIDTH 382 0
DWIDTH 3 0
BBX 3 4 0 0
BITMAP
7A30
3B90
1080
9C40
ENDCHAR
STARTCHAR uni0400
ENCODING 1024
SWIDTH 626 0
DWIDTH 5 0
BBX 5 7 0 0
BITMAP
018100
000000
3D5660
0B0500
0C5900
0B0020
3D5680
ENDCHAR
STARTCHAR uni0401
ENCODING 1025
SWIDTH 626 0
DWIDTH 5 0
BBX 5 7 0 0
BITMAP
081900
000000
3D5660
0B0500
0C5900
0B0020
3D5680
ENDCHAR
STARTCHAR uni0402
ENCODING 1026
SWIDTH 731 0
DWIDTH 6 0
BBX 6 5 0 0
BITMAP
96C690
20B020
00C682
00B038
03C754
ENDCHAR
STARTCHAR uni0403
ENCODING 1027
SWIDTH 548 0
DWIDTH 4 0
BBX 5 7 0 0
BITMAP
018100
000000
3D5930
0B0120
0B0000
0B0000
3D3000
ENDCHAR
STARTCHAR uni0404
ENCODING 1028
SWIDTH 668 0
DWIDTH 5 0
BBX 5 5 0 0
BITMAP
0866A0
660050
985400
660010
098750
ENDCHAR
STARTCHAR uni0405
ENCODING 1029
SWIDTH 504 0
DWIDTH 4 0
BBX 4 5 0 0
BITMAP
4787
7604
08B2
403A
9766
ENDCHAR
STARTCHAR uni0406
ENCODING 1030
SWIDTH 357 0
DWIDTH 3 0
BBX 3 5 0 0
BITMAP
3D20
0B00
0B00
0B00
3D20
ENDCHAR
STARTCHAR uni0407
ENCODING 1031
SWIDTH 357 0
DWIDTH 3 0
BBX 3 7 0 0
BITMAP
9180
0000
3D20
0B00
0B00
0B00
3D20
ENDCHAR
STARTCHAR uni0408
ENCODING 1032
SWIDTH 396 0
DWIDTH 3 0
BBX 3 5 0 0
BITMAP
1A80
0740
0740
0740
9810
ENDCHAR
STARTCHAR uni0409
ENCODING 1033
SWIDTH 924 0
DWIDTH 7 0
BBX 9 5 -1 0
BITMAP
0058980000
0033650000
0051687500
0060650B10
1B40986900
ENDCHAR
STARTCHAR uni040A
ENCODING 1034
SWIDTH 1013 0
DWIDTH 8 0
BBX 8 5 0 0
BITMAP
3D22C500
0B00A100
0C55C673
0B00A11C
3D21C676
ENDCHAR
STARTCHAR uni040B
ENCODING 1035
SWIDTH 761 0
DWIDTH 6 0
BBX 6 5 0 0
BITMAP
96C690
20B020
00C681
00B065
03D298
ENDCHAR
STARTCHAR uni040C
ENCODING 1036
SWIDTH 658 0
DWIDTH 5 0
BBX 6 7 0 0
BITMAP
005500
000000
3D23B1
0B0600
0C7500
0B0B10
3D24A1
ENDCHAR
STARTCHAR uni040D
ENCODING 1037
SWIDTH 780 0
DWIDTH 6 0
BBX 6 7 0 0
BITMAP
018100
000000
3D21B6
0B03B3
0B2483
0C5083
3E21B6
ENDCHAR
STARTCHAR uni040E
ENCODING 1038
SWIDTH 625 0
DWIDTH 5 0
BBX 6 8 0 0
BITMAP
041500
034500
000000
8A0491
0A1510
039500
009100
3B4000
ENDCHAR
STARTCHAR uni040F
ENCODING 1039
SWIDTH 759 0
DWIDTH 6 0
BBX 6 7 0 -2
BITMAP
3D22D4
0B00B0
0B00B0
0B00B0
3D55C4
003400
005600
ENDCHAR
STARTCHAR uni0410
ENCODING 1040
SWIDTH 718 0
DWIDTH 6 0
BBX 6 5 0 0
BITMAP
009300
019A00
071C20
0A5990
8602E4
ENDCHAR
STARTCHAR uni0411
ENCODING 1041
SWIDTH 617 0
DWIDTH 5 0
BBX 5 5 0 0
BITMAP
2D5840
0B0020
0C5710
0B0480
3D5830
ENDCHAR
STARTCHAR uni0412
ENCODING 1042
SWIDTH 618 0
DWIDTH 5 0
BBX 5 5 0 0
BITMAP
3D5920
0B0750
0C5A10
0B0490
3D4740
ENDCHAR
STARTCHAR uni0413
ENCODING 1043
SWIDTH 548 0
DWIDTH 4 0
BBX 5 5 0 0
BITMAP
3D5930
0B0120
0B0000
0B0000
3D3000
ENDCHAR
STARTCHAR uni0414
ENCODING 1044
SWIDTH 663 0
DWIDTH 5 0
BBX 5 7 0 -2
BITMAP
085A70
060830
060830
060830
965A80
900090
300030
ENDCHAR
STARTCHAR uni0415
ENCODING 1045
SWIDTH 626 0
DWIDTH 5 0
BBX 5 5 0 0
BITMAP
3D5660
0B0500
0C5900
0B0020
3D5680
ENDCHAR
STARTCHAR uni0416
ENCODING 1046
SWIDTH 937 0
DWIDTH 8 0
BBX 8 5 0 0
BITMAP
962B52B3
05191600
01AB6800
09391920
681B52B2
ENDCHAR
STARTCHAR uni0417
ENCODING 1047
SWIDTH 545 0
DWIDTH 4 0
BBX 4 5 0 0
BITMAP
7667
401A
03A5
000C
3688
ENDCHAR
STARTCHAR uni0418
ENCODING 1048
SWIDTH 780 0
DWIDTH 6 0
BBX 6 5 0 0
BITMAP
3D21B6
0B03B3
0B2483
0C5083
3E21B6
ENDCHAR
STARTCHAR uni0419
ENCODING 1049
SWIDTH 780 0
DWIDTH 6 0
BBX 6 7 0 0
BITMAP
027450
005410
3D21B6
0B03B3
0B2483
0C5083
3E21B6
ENDCHAR
STARTCHAR uni041A
ENCODING 1050
SWIDTH 658 0
DWIDTH 5 0
BBX 6 5 0 0
BITMAP
3D23B1
0B0600
0C7500
0B0B10
3D24A1
ENDCHAR
STARTCHAR uni041B
ENCODING 1051
SWIDTH 684 0
DWIDTH 5 0
BBX 7 5 -1 0
BITMAP
00589910
00335600
00515600
00605600
1B509910
ENDCHAR
STARTCHAR uni041C
ENCODING 1052
SWIDTH 895 0
DWIDTH 7 0
BBX 7 5 0 0
BITMAP
4F200E50
0A805B10
06C17910
066A2910
49191B50
ENDCHAR
STARTCHAR uni041D
ENCODING 1053
SWIDTH 777 0
DWIDTH 6 0
BBX 6 5 0 0
BITMAP
3D21B6
0B0092
0C55B2
0B0092
3D21B6
ENDCHAR
STARTCHAR uni041E
ENCODING 1054
SWIDTH 738 0
DWIDTH 6 0
BBX 6 5 0 0
BITMAP
075680
660085
940067
660084
075570
ENDCHAR
STARTCHAR uni041F
ENCODING 1055
SWIDTH 759 0
DWIDTH 6 0
BBX 6 5 0 0
BITMAP
9EBBEA
0B00B0
0B00B0
0B00B0
9F65FA
ENDCHAR
STARTCHAR uni0420
ENCODING 1056
SWIDTH 569 0
DWIDTH 5 0
BBX 5 5 0 0
BITMAP
3D5A20
0B0840
0C5500
0B0000
3D2000
ENDCHAR
STARTCHAR uni0421
ENCODING 1057
SWIDTH 670 0
DWIDTH 5 0
BBX 5 5 0 0
BITMAP
0866A0
660060
940000
670010
099750
ENDCHAR
STARTCHAR uni0422
ENCODING 1058
SWIDTH 603 0
DWIDTH 5 0
BBX 5 5 0 0
BITMAP
96C680
20B020
00B000
00B000
03D200
ENDCHAR
STARTCHAR uni0423
ENCODING 1059
SWIDTH 625 0
DWIDTH 5 0
BBX 6 5 0 0
BITMAP
8A0491
0A1510
039500
009100
3B4000
ENDCHAR
STARTCHAR uni0424
ENCODING 1060
SWIDTH 725 0
DWIDTH 6 0
BBX 6 5 0 0
BITMAP
03CA10
577493
A17447
588592
02B900
ENDCHAR
STARTCHAR uni0425
ENCODING 1061
SWIDTH 664 0
DWIDTH 5 0
BBX 6 5 0 0
BITMAP
5E2581
067600
00D300
063B00
670AA1
ENDCHAR
STARTCHAR uni0426
ENCODING 1062
SWIDTH 756 0
DWIDTH 6 0
BBX 6 7 0 -2
BITMAP
3D22D3
0B00B0
0B00B0
0B00B0
3D55C4
000018
000003
ENDCHAR
STARTCHAR uni0427
ENCODING 1063
SWIDTH 650 0
DWIDTH 5 0
BBX 5 5 0 0
BITMAP
891B60
470920
186B20
000920
002C60
ENDCHAR
STARTCHAR uni0428
ENCODING 1064
SWIDTH 1053 0
DWIDTH 8 0
BBX 8 5 0 0
BITMAP
3D26B199
0B028055
0B028055
0B028055
3D57B599
ENDCHAR
STARTCHAR uni0429
ENCODING 1065
SWIDTH 1044 0
DWIDTH 8 0
BBX 8 7 0 -2
BITMAP
3D27A1A8
0B038074
0B038074
0B038074
3D57A5A8
00000009
00000003
ENDCHAR
STARTCHAR uni042A
ENCODING 1066
SWIDTH 723 0
DWIDTH 6 0
BBX 6 5 0 0
BITMAP
95D200
20B000
00C671
00B057
03D593
ENDCHAR
STARTCHAR uni042B
ENCODING 1067
SWIDTH 887 0
DWIDTH 7 0
BBX 7 5 0 0
BITMAP
3D202D40
0B000B00
0C671B00
0B066B00
3D594D40
ENDCHAR
STARTCHAR uni042C
ENCODING 1068
SWIDTH 606 0
DWIDTH 5 0
BBX 5 5 0 0
BITMAP
3D2000
0B0000
0C6710
0B0480
3D5830
ENDCHAR
STARTCHAR uni042D
ENCODING 1069
SWIDTH 667 0
DWIDTH 5 0
BBX 5 5 0 0
BITMAP
775830
5001C0
0355D0
0001A0
378920
ENDCHAR
STARTCHAR uni042E
ENCODING 1070
SWIDTH 1042 0
DWIDTH 8 0
BBX 8 5 0 0
BITMAP
4E328582
0B0B101B
0C5C000C
0B0B001B
3D227472
ENDCHAR
STARTCHAR uni042F
ENCODING 1071
SWIDTH 654 0
DWIDTH 5 0
BBX 5 5 0 0
BITMAP
195B60
2A0930
079B30
0A2930
791B60
ENDCHAR
STARTCHAR uni0430
ENCODING 1072
SWIDTH 480 0
DWIDTH 4 0
BBX 4 4 0 0
BITMAP
46A0
22B1
6491
7895
ENDCHAR
STARTCHAR uni0431
ENCODING 1073
SWIDTH 520 0
DWIDTH 4 0
BBX 4 6 0 0
BITMAP
0277
3830
7675
A20B
820B
2764
ENDCHAR
STARTCHAR uni0432
ENCODING 1074
SWIDTH 505 0
DWIDTH 4 0
BBX 4 4 0 0
BITMAP
5A75
3828
3A84
5A58
ENDCHAR
STARTCHAR uni0433
ENCODING 1075
SWIDTH 429 0
DWIDTH 3 0
BBX 4 4 0 0
BITMAP
5A74
3702
3700
5A00
ENDCHAR
STARTCHAR uni0434
ENCODING 1076
SWIDTH 530 0
DWIDTH 4 0
BBX 4 6 0 -2
BITMAP
1878
0546
0546
9579
8008
2002
ENDCHAR
STARTCHAR uni0435
ENCODING 1077
SWIDTH 464 0
DWIDTH 4 0
BBX 4 4 0 0
BITMAP
3682
9574
A201
3B82
ENDCHAR
STARTCHAR uni0436
ENCODING 1078
SWIDTH 754 0
DWIDTH 6 0
BBX 6 4 0 0
BITMAP
837838
054540
078880
677776
ENDCHAR
STARTCHAR uni0437
ENCODING 1079
SWIDTH 435 0
DWIDTH 3 0
BBX 4 4 0 0
BITMAP
7490
16A0
0081
46A0
ENDCHAR
STARTCHAR uni0438
ENCODING 1080
SWIDTH 609 0
DWIDTH 5 0
BBX 5 4 0 0
BITMAP
5A1C30
374B10
3A3910
5A1B30
ENDCHAR
STARTCHAR uni0439
ENCODING 1081
SWIDTH 609 0
DWIDTH 5 0
BBX 5 6 0 0
BITMAP
050500
043400
5A1C30
374B10
3A3910
5A1B30
ENDCHAR
STARTCHAR uni043A
ENCODING 1082
SWIDTH 521 0
DWIDTH 4 0
BBX 5 4 0 0
BITMAP
5A2A00
375000
3A9000
595810
ENDCHAR
STARTCHAR uni043B
ENCODING 1083
SWIDTH 553 0
DWIDTH 4 0
BBX 5 4 0 0
BITMAP
095B10
051900
051900
A33B10
ENDCHAR
STARTCHAR uni043C
ENCODING 1084
SWIDTH 697 0
DWIDTH 6 0
BBX 6 4 0 0
BITMAP
7B03D1
4A35A0
43A4A0
7492C1
ENDCHAR
STARTCHAR uni043D
ENCODING 1085
SWIDTH 605 0
DWIDTH 5 0
BBX 5 4 0 0
BITMAP
591B30
3A5B00
370A00
5A1C30
ENDCHAR
STARTCHAR uni043E
ENCODING 1086
SWIDTH 514 0
DWIDTH 4 0
BBX 4 4 0 0
BITMAP
3674
A10B
A10A
3764
ENDCHAR
STARTCHAR uni043F
ENCODING 1087
SWIDTH 591 0
DWIDTH 5 0
BBX 5 4 0 0
BITMAP
6A4C20
370A00
370A00
591C20
ENDCHAR
STARTCHAR uni0440
ENCODING 1088
SWIDTH 537 0
DWIDTH 4 0
BBX 4 6 0 -2
BITMAP
6998
460B
460A
4A55
4600
6A10
ENDCHAR
STARTCHAR uni0441
ENCODING 1089
SWIDTH 446 0
DWIDTH 4 0
BBX 4 4 0 0
BITMAP
3592
9011
A101
4B81
ENDCHAR
STARTCHAR uni0442
ENCODING 1090
SWIDTH 456 0
DWIDTH 4 0
BBX 4 4 0 0
BITMAP
9A77
1821
0820
0A50
ENDCHAR
STARTCHAR uni0443
ENCODING 1091
SWIDTH 483 0
DWIDTH 4 0
BBX 4 6 0 -2
BITMAP
B529
3842
0A50
0550
0510
9500
ENDCHAR
STARTCHAR uni0444
ENCODING 1092
SWIDTH 710 0
DWIDTH 6 0
BBX 6 8 0 -2
BITMAP
006100
008200
37A791
917265
917265
47A781
007200
00A600
ENDCHAR
STARTCHAR uni0445
ENCODING 1093
SWIDTH 479 0
DWIDTH 4 0
BBX 4 4 0 0
BITMAP
7964
0A50
07A0
8397
ENDCHAR
STARTCHAR uni0446
ENCODING 1094
SWIDTH 590 0
DWIDTH 5 0
BBX 5 6 0 -2
BITMAP
6A2C20
370A00
370A00
3A5C00
000170
000030
ENDCHAR
STARTCHAR uni0447
ENCODING 1095
SWIDTH 535 0
DWIDTH 4 0
BBX 4 4 0 0
BITMAP
9569
7337
2777
0059
ENDCHAR
STARTCHAR uni0448
ENCODING 1096
SWIDTH 812 0
DWIDTH 7 0
BBX 7 4 0 0
BITMAP
694B2C10
37180A00
37180A00
695B4C10
ENDCHAR
STARTCHAR uni0449
ENCODING 1097
SWIDTH 814 0
DWIDTH 7 0
BBX 7 6 0 -2
BITMAP
694B2C10
37180A00
37180A00
3A6B5A00
00000450
00000030
ENDCHAR
STARTCHAR uni044A
ENCODING 1098
SWIDTH 568 0
DWIDTH 5 0
BBX 5 4 0 0
BITMAP
9A5000
186700
082740
0A6910
ENDCHAR
STARTCHAR uni044B
ENCODING 1099
SWIDTH 728 0
DWIDTH 6 0
BBX 6 4 0 0
BITMAP
5901C3
3A72A0
3738A0
5975B3
ENDCHAR
STARTCHAR uni044C
ENCODING 1100
SWIDTH 489 0
DWIDTH 4 0
BBX 4 4 0 0
BITMAP
6A00
3972
371A
5975
ENDCHAR
STARTCHAR uni044D
ENCODING 1101
SWIDTH 467 0
DWIDTH 4 0
BBX 4 4 0 0
BITMAP
7471
1596
0065
3691
ENDCHAR
STARTCHAR uni044E
ENCODING 1102
SWIDTH 774 0
DWIDTH 6 0
BBX 6 4 0 0
BITMAP
6A3875
39A30B
37630A
5A1645
ENDCHAR
STARTCHAR uni044F
ENCODING 1103
SWIDTH 518 0
DWIDTH 4 0
BBX 4 4 0 0
BITMAP
3777
7455
1B95
6878
ENDCHAR
STARTCHAR uni0450
ENCODING 1104
SWIDTH 464 0
DWIDTH 4 0
BBX 4 6 0 0
BITMAP
0600
0530
3682
9574
A201
3B82
ENDCHAR
STARTCHAR uni0451
ENCODING 1105
SWIDTH 464 0
DWIDTH 4 0
BBX 4 6 0 0
BITMAP
4672
0000
3682
9574
A201
3B82
ENDCHAR
STARTCHAR uni0452
ENCODING 1106
SWIDTH 563 0
DWIDTH 5 0
BBX 4 8 0 -2
BITMAP
4300
7A40
3A78
370A
370A
6A09
0008
0664
ENDCHAR
STARTCHAR uni0453
ENCODING 1107
SWIDTH 429 0
DWIDTH 3 0
BBX 4 6 0 0
BITMAP
0240
0610
5A74
3702
3700
5A00
ENDCHAR
STARTCHAR uni0454
ENCODING 1108
SWIDTH 460 0
DWIDTH 4 0
BBX 4 4 0 0
BITMAP
3683
A530
A200
3A72
ENDCHAR
STARTCHAR uni0455
ENCODING 1109
SWIDTH 394 0
DWIDTH 3 0
BBX 3 4 0 0
BITMAP
6570
7820
25B0
7580
ENDCHAR
STARTCHAR uni0456
ENCODING 1110
SWIDTH 285 0
DWIDTH 2 0
BBX 2 5 0 0
BITMAP
27
57
37
37
5A
ENDCHAR
STARTCHAR uni0457
ENCODING 1111
SWIDTH 285 0
DWIDTH 2 0
BBX 4 5 -1 0
BITMAP
2772
0770
0370
0370
05A0
ENDCHAR
STARTCHAR uni0458
ENCODING 1112
SWIDTH 263 0
DWIDTH 2 0
BBX 3 7 -1 -2
BITMAP
0360
0670
0370
0370
0370
0360
8720
ENDCHAR
STARTCHAR uni0459
ENCODING 1113
SWIDTH 742 0
DWIDTH 6 0
BBX 6 4 0 0
BITMAP
086A00
052A73
05281A
A34A75
ENDCHAR
STARTCHAR uni045A
ENCODING 1114
SWIDTH 790 0
DWIDTH 6 0
BBX 7 4 0 0
BITMAP
591C2000
394B5600
370A0920
5A1C4900
ENDCHAR
STARTCHAR uni045B
ENCODING 1115
SWIDTH 579 0
DWIDTH 5 0
BBX 5 6 0 0
BITMAP
770000
6A4000
3A8800
370A00
370A00
6A2C20
ENDCHAR
STARTCHAR uni045C
ENCODING 1116
SWIDTH 521 0
DWIDTH 4 0
BBX 5 6 0 0
BITMAP
006000
035000
5A2A00
375000
3A9000
595810
ENDCHAR
STARTCHAR uni045D
ENCODING 1117
SWIDTH 609 0
DWIDTH 5 0
BBX 5 6 0 0
BITMAP
042000
016000
5A1C30
374B10
3A3910
5A1B30
ENDCHAR
STARTCHAR uni045E
ENCODING 1118
SWIDTH 483 0
DWIDTH 4 0
BBX 4 8 0 -2
BITMAP
1432
1552
B529
3842
0B50
0660
0510
8600
ENDCHAR
STARTCHAR uni045F
ENCODING 1119
SWIDTH 587 0
DWIDTH 5 0
BBX 5 6 0 -2
BITMAP
6A1C20
370A00
370A00
5A4C20
008000
004000
ENDCHAR
STARTCHAR uni0462
ENCODING 1122
SWIDTH 727 0
DWIDTH 6 0
BBX 6 6 0 0
BITMAP
048200
76C581
41A031
01C671
01A067
05C592
ENDCHAR
STARTCHAR uni0463
ENCODING 1123
SWIDTH 561 0
DWIDTH 4 0
BBX 5 6 0 0
BITMAP
1A1000
081000
9A6700
186800
081740
0A5910
ENDCHAR
STARTCHAR uni046A
ENCODING 1130
SWIDTH 881 0
DWIDTH 7 0
BBX 8 5 0 0
BITMAP
07A67600
00A37000
026D6200
0B1B1B00
782D2781
ENDCHAR
STARTCHAR uni046B
ENCODING 1131
SWIDTH 667 0
DWIDTH 5 0
BBX 6 4 0 0
BITMAP
1C5820
03A500
0AB830
85B3B2
ENDCHAR
STARTCHAR uni0472
ENCODING 1138
SWIDTH 737 0
DWIDTH 6 0
BBX 6 5 0 0
BITMAP
085570
68A265
943A87
670094
085670
ENDCHAR
STARTCHAR uni0473
ENCODING 1139
SWIDTH 514 0
DWIDTH 4 0
BBX 4 4 0 0
BITMAP
3764
972B
A17A
3764
ENDCHAR
STARTCHAR uni0474
ENCODING 1140
SWIDTH 705 0
DWIDTH 6 0
BBX 6 5 0 0
BITMAP
9A0089
1C0250
084600
029500
009200
ENDCHAR
STARTCHAR uni0475
ENCODING 1141
SWIDTH 520 0
DWIDTH 4 0
BBX 5 4 0 0
BITMAP
B51A30
375100
0B5000
074000
ENDCHAR
STARTCHAR uni0490
ENCODING 1168
SWIDTH 525 0
DWIDTH 4 0
BBX 5 7 0 0
BITMAP
000110
000620
3D5510
0B0000
0B0000
0B0000
3D3000
ENDCHAR
STARTCHAR uni0491
ENCODING 1169
SWIDTH 404 0
DWIDTH 3 0
BBX 4 5 0 0
BITMAP
0043
5A41
3700
3700
5A00
ENDCHAR
STARTCHAR uni1D00
ENCODING 7424
SWIDTH 511 0
DWIDTH 4 0
BBX 5 4 0 0
BITMAP
057000
05B000
359400
915B10
ENDCHAR
STARTCHAR uni1D07
ENCODING 7431
SWIDTH 495 0
DWIDTH 4 0
BBX 4 4 0 0
BITMAP
5955
3740
3721
5957
ENDCHAR
STARTCHAR uni1D1C
ENCODING 7452
SWIDTH 584 0
DWIDTH 5 0
BBX 5 4 0 0
BITMAP
780920
460500
460500
196500
ENDCHAR
STARTCHAR uni1D81
ENCODING 7553
SWIDTH 539 0
DWIDTH 4 0
BBX 5 8 0 -2
BITMAP
005800
002800
267800
902800
A12800
4A7B10
000410
005600
ENDCHAR
STARTCHAR uni1D84
ENCODING 7556
SWIDTH 542 0
DWIDTH 4 0
BBX 5 8 0 -2
BITMAP
670000
370000
377600
3B4000
39A000
6A6A10
000140
003720
ENDCHAR
STARTCHAR uni1D85
ENCODING 7557
SWIDTH 283 0
DWIDTH 2 0
BBX 3 8 0 -2
BITMAP
6700
3700
3700
3700
3700
6A00
0410
5600
ENDCHAR
STARTCHAR uni1D8A
ENCODING 7562
SWIDTH 395 0
DWIDTH 3 0
BBX 3 6 0 -2
BITMAP
6570
7820
25B0
75A0
0050
0750
ENDCHAR
STARTCHAR uni1D8D
ENCODING 7565
SWIDTH 479 0
DWIDTH 4 0
BBX 4 6 0 -2
BITMAP
7964
0A50
07A0
8397
0005
0075
ENDCHAR
STARTCHAR uni1D8E
ENCODING 7566
SWIDTH 458 0
DWIDTH 4 0
BBX 4 6 0 -2
BITMAP
75C3
1480
1B11
8865
0014
0372
ENDCHAR
STARTCHAR uni1D98
ENCODING 7576
SWIDTH 368 0
DWIDTH 3 0
BBX 4 8 0 -2
BITMAP
0056
0541
0640
0640
0640
9810
5000
5600
ENDCHAR
STARTCHAR uni1D9B
ENCODING 7579
SWIDTH 462 0
DWIDTH 4 0
BBX 4 3 0 2
BITMAP
86A2
7235
6661
ENDCHAR
STARTCHAR uni1DA3
ENCODING 7587
SWIDTH 488 0
DWIDTH 4 0
BBX 4 4 0 1
BITMAP
7675
5453
3983
0055
ENDCHAR
STARTCHAR uni1E00
ENCODING 7680
SWIDTH 718 0
DWIDTH 6 0
BBX 6 7 0 -2
BITMAP
009300
019A00
071C20
0A5990
8602E4
005300
005300
ENDCHAR
STARTCHAR uni1E01
ENCODING 7681
SWIDTH 480 0
DWIDTH 4 0
BBX 4 6 0 -2
BITMAP
46A0
22B1
6491
7895
0530
0530
ENDCHAR
STARTCHAR uni1E02
ENCODING 7682
SWIDTH 618 0
DWIDTH 5 0
BBX 5 7 0 0
BITMAP
009000
000000
3D5920
0B0750
0C5A10
0B0490
3D4740
ENDCHAR
STARTCHAR uni1E03
ENCODING 7683
SWIDTH 522 0
DWIDTH 4 0
BBX 4 7 0 0
BITMAP
0450
8400
5400
5896
550B
540A
4864
ENDCHAR
STARTCHAR uni1E04
ENCODING 7684
SWIDTH 618 0
DWIDTH 5 0
BBX 5 7 0 -2
BITMAP
3D5920
0B0750
0C5A10
0B0490
3D4740
000000
009000
ENDCHAR
STARTCHAR uni1E05
ENCODING 7685
SWIDTH 522 0
DWIDTH 4 0
BBX 4 8 0 -2
BITMAP
8400
5400
5896
550B
540A
4864
0000
0550
ENDCHAR
STARTCHAR uni1E06
ENCODING 7686
SWIDTH 618 0
DWIDTH 5 0
BBX 5 6 0 -1
BITMAP
3D5920
0B0750
0C5A10
0B0490
3D4740
057300
ENDCHAR
STARTCHAR uni1E07
ENCODING 7687
SWIDTH 522 0
DWIDTH 4 0
BBX 4 7 0 -1
BITMAP
8400
5400
5896
550B
540A
4864
1771
ENDCHAR
STARTCHAR uni1E08
ENCODING 7688
SWIDTH 670 0
DWIDTH 5 0
BBX 5 9 0 -2
BITMAP
004600
000000
0866A0
660060
940000
670010
099750
004400
004300
ENDCHAR
STARTCHAR uni1E09
ENCODING 7689
SWIDTH 446 0
DWIDTH 4 0
BBX 4 8 0 -2
BITMAP
0050
0430
3692
9011
A101
4B81
0350
0360
ENDCHAR
STARTCHAR uni1E0A
ENCODING 7690
SWIDTH 730 0
DWIDTH 6 0
BBX 6 7 0 0
BITMAP
008100
000000
3D5760
0B00A3
0B0076
0B0094
3D5660
ENDCHAR
STARTCHAR uni1E0B
ENCODING 7691
SWIDTH 539 0
DWIDTH 4 0
BBX 4 7 0 0
BITMAP
0360
0058
0028
2788
9028
A128
4A7A
ENDCHAR
STARTCHAR uni1E0C
ENCODING 7692
SWIDTH 730 0
DWIDTH 6 0
BBX 6 7 0 -2
BITMAP
3D5760
0B00A3
0B0076
0B0094
3D5660
000000
00A000
ENDCHAR
STARTCHAR uni1E0D
ENCODING 7693
SWIDTH 539 0
DWIDTH 4 0
BBX 4 8 0 -2
BITMAP
0058
0028
2788
9028
A128
4A7A
0000
0370
ENDCHAR
STARTCHAR uni1E0E
ENCODING 7694
SWIDTH 730 0
DWIDTH 6 0
BBX 6 6 0 -1
BITMAP
3D5760
0B00A3
0B0076
0B0094
3D5660
047500
ENDCHAR
STARTCHAR uni1E0F
ENCODING 7695
SWIDTH 539 0
DWIDTH 4 0
BBX 4 7 0 -1
BITMAP
0058
0028
2788
9028
A128
4A7A
0772
ENDCHAR
STARTCHAR uni1E10
ENCODING 7696
SWIDTH 730 0
DWIDTH 6 0
BBX 6 7 0 -2
BITMAP
3D5760
0B00A3
0B0076
0B0094
3D5660
00B100
005000
ENDCHAR
STARTCHAR uni1E11
ENCODING 7697
SWIDTH 539 0
DWIDTH 4 0
BBX 4 8 0 -2
BITMAP
0058
0028
2788
9028
A128
4A7A
0480
0140
ENDCHAR
STARTCHAR uni1E12
ENCODING 7698
SWIDTH 730 0
DWIDTH 6 0
BBX 6 7 0 -2
BITMAP
3D5760
0B00A3
0B0076
0B0094
3D5660
006000
035500
ENDCHAR
STARTCHAR uni1E13
ENCODING 7699
SWIDTH 539 0
DWIDTH 4 0
BBX 4 8 0 -2
BITMAP
0058
0028
2788
9028
A128
4A7A
0240
0761
ENDCHAR
STARTCHAR uni1E14
ENCODING 7700
SWIDTH 626 0
DWIDTH 5 0
BBX 5 8 0 0
BITMAP
018100
046500
000000
3D5660
0B0500
0C5900
0B0020
3D5680
ENDCHAR
STARTCHAR uni1E15
ENCODING 7701
SWIDTH 464 0
DWIDTH 4 0
BBX 4 7 0 0
BITMAP
0600
0530
1771
3682
9574
A201
3B82
ENDCHAR
STARTCHAR uni1E16
ENCODING 7702
SWIDTH 626 0
DWIDTH 5 0
BBX 5 8 0 0
BITMAP
008200
046500
000000
3D5660
0B0500
0C5900
0B0020
3D5680
ENDCHAR
STARTCHAR uni1E17
ENCODING 7703
SWIDTH 464 0
DWIDTH 4 0
BBX 4 7 0 0
BITMAP
0060
0430
1771
3682
9574
A201
3B82
ENDCHAR
STARTCHAR uni1E18
ENCODING 7704
SWIDTH 626 0
DWIDTH 5 0
BBX 5 7 0 -2
BITMAP
3D5660
0B0500
0C5900
0B0020
3D5680
006000
045500
ENDCHAR
STARTCHAR uni1E19
ENCODING 7705
SWIDTH 464 0
DWIDTH 4 0
BBX 4 6 0 -2
BITMAP
3682
9574
A201
3B82
0430
0770
ENDCHAR
STARTCHAR uni1E1A
ENCODING 7706
SWIDTH 626 0
DWIDTH 5 0
BBX 5 7 0 -2
BITMAP
3D5660
0B0500
0C5900
0B0020
3D5680
000000
047400
ENDCHAR
STARTCHAR uni1E1B
ENCODING 7707
SWIDTH 464 0
DWIDTH 4 0
BBX 4 6 0 -2
BITMAP
3682
9574
A201
3B82
0000
1760
ENDCHAR
STARTCHAR uni1E1C
ENCODING 7708
SWIDTH 626 0
DWIDTH 5 0
BBX 5 10 0 -2
BITMAP
030300
038400
000000
3D5660
0B0500
0C5900
0B0020
3D6680
006200
005200
ENDCHAR
STARTCHAR uni1E1D
ENCODING 7709
SWIDTH 464 0
DWIDTH 4 0
BBX 4 8 0 -2
BITMAP
2130
0860
3682
9574
A201
3B82
0350
0340
ENDCHAR
STARTCHAR uni1E1E
ENCODING 7710
SWIDTH 588 0
DWIDTH 5 0
BBX 5 7 0 0
BITMAP
009000
000000
3D5670
0B0500
0C5900
0B0000
3D2000
ENDCHAR
STARTCHAR uni1E1F
ENCODING 7711
SWIDTH 307 0
DWIDTH 2 0
BBX 3 7 0 0
BITMAP
2700
0570
2710
6A20
3700
3700
6A10
ENDCHAR
STARTCHAR uni1E20
ENCODING 7712
SWIDTH 720 0
DWIDTH 6 0
BBX 6 7 0 0
BITMAP
016610
000000
0866A0
660050
840293
6600B0
086690
ENDCHAR
STARTCHAR uni1E21
ENCODING 7713
SWIDTH 484 0
DWIDTH 4 0
BBX 4 7 0 -2
BITMAP
1771
47B6
8374
3760
7A93
7007
8863
ENDCHAR
STARTCHAR uni1E22
ENCODING 7714
SWIDTH 777 0
DWIDTH 6 0
BBX 6 7 0 0
BITMAP
003600
000000
3D21B6
0B0092
0C55B2
0B0092
3D21B6
ENDCHAR
STARTCHAR uni1E23
ENCODING 7715
SWIDTH 577 0
DWIDTH 5 0
BBX 5 7 0 0
BITMAP
008000
770000
370000
3A8800
370A00
370A00
6A2C20
ENDCHAR
STARTCHAR uni1E24
ENCODING 7716
SWIDTH 777 0
DWIDTH 6 0
BBX 6 7 0 -2
BITMAP
3D21B6
0B0092
0C55B2
0B0092
3D21B6
000000
003600
ENDCHAR
STARTCHAR uni1E25
ENCODING 7717
SWIDTH 577 0
DWIDTH 5 0
BBX 5 8 0 -2
BITMAP
770000
370000
3A8800
370A00
370A00
6A2C20
000000
009000
ENDCHAR
STARTCHAR uni1E26
ENCODING 7718
SWIDTH 777 0
DWIDTH 6 0
BBX 6 7 0 0
BITMAP
027440
000000
3D21B6
0B0092
0C55B2
0B0092
3D21B6
ENDCHAR
STARTCHAR uni1E27
ENCODING 7719
SWIDTH 577 0
DWIDTH 5 0
BBX 5 7 0 0
BITMAP
092700
770000
370000
3A8800
370A00
370A00
6A2C20
ENDCHAR
STARTCHAR uni1E28
ENCODING 7720
SWIDTH 777 0
DWIDTH 6 0
BBX 6 7 0 -2
BITMAP
3D21B6
0B0092
0C55B2
0B0092
3E21B6
071000
160000
ENDCHAR
STARTCHAR uni1E29
ENCODING 7721
SWIDTH 577 0
DWIDTH 5 0
BBX 5 8 0 -2
BITMAP
770000
370000
3A8800
370A00
370A00
6A2C20
260000
250000
ENDCHAR
STARTCHAR uni1E2A
ENCODING 7722
SWIDTH 777 0
DWIDTH 6 0
BBX 6 7 0 -2
BITMAP
3D21B6
0B0092
0C55B2
0B0092
3D21B6
003120
006700
ENDCHAR
STARTCHAR uni1E2B
ENCODING 7723
SWIDTH 577 0
DWIDTH 5 0
BBX 5 8 0 -2
BITMAP
770000
370000
3A8800
370A00
370A00
6A2C20
030300
058200
ENDCHAR
STARTCHAR uni1E2C
ENCODING 7724
SWIDTH 357 0
DWIDTH 3 0
BBX 3 7 0 -2
BITMAP
3D20
0B00
0B00
0B00
3D20
0000
5730
ENDCHAR
STARTCHAR uni1E2D
ENCODING 7725
SWIDTH 285 0
DWIDTH 2 0
BBX 3 7 0 -2
BITMAP
2700
5700
3700
3700
5A00
0000
6710
ENDCHAR
STARTCHAR uni1E2E
ENCODING 7726
SWIDTH 357 0
DWIDTH 3 0
BBX 3 8 0 0
BITMAP
1810
9180
0000
3D20
0B00
0B00
0B00
3D20
ENDCHAR
STARTCHAR uni1E2F
ENCODING 7727
SWIDTH 285 0
DWIDTH 2 0
BBX 4 7 -1 0
BITMAP
0060
0340
2772
0770
0370
0370
05A0
ENDCHAR
STARTCHAR uni1E30
ENCODING 7728
SWIDTH 702 0
DWIDTH 6 0
BBX 6 7 0 0
BITMAP
006400
000000
3D2781
0B3400
0CA000
0B4A00
3D27B2
ENDCHAR
STARTCHAR uni1E31
ENCODING 7729
SWIDTH 542 0
DWIDTH 4 0
BBX 5 7 0 0
BITMAP
037000
670000
370000
377600
3B4000
39A000
6A6A10
ENDCHAR
STARTCHAR uni1E32
ENCODING 7730
SWIDTH 702 0
DWIDTH 6 0
BBX 6 7 0 -2
BITMAP
3D2781
0B3400
0CA000
0B4A00
3D27B2
000000
007200
ENDCHAR
STARTCHAR uni1E33
ENCODING 7731
SWIDTH 542 0
DWIDTH 4 0
BBX 5 8 0 -2
BITMAP
670000
370000
377600
3B4000
39A000
6A6A10
000000
027000
ENDCHAR
STARTCHAR uni1E34
ENCODING 7732
SWIDTH 702 0
DWIDTH 6 0
BBX 6 6 0 -1
BITMAP
3D2781
0B3400
0CA000
0B4A00
3D27B2
027700
ENDCHAR
STARTCHAR uni1E35
ENCODING 7733
SWIDTH 542 0
DWIDTH 4 0
BBX 5 7 0 -1
BITMAP
670000
370000
377600
3B4000
39A000
6A6A10
077200
ENDCHAR
STARTCHAR uni1E36
ENCODING 7734
SWIDTH 585 0
DWIDTH 5 0
BBX 5 7 0 -2
BITMAP
3D2000
0B0000
0B0000
0B0020
3D5760
000000
019000
ENDCHAR
STARTCHAR uni1E37
ENCODING 7735
SWIDTH 283 0
DWIDTH 2 0
BBX 2 8 0 -2
BITMAP
67
37
37
37
37
6A
00
36
ENDCHAR
STARTCHAR uni1E38
ENCODING 7736
SWIDTH 585 0
DWIDTH 5 0
BBX 5 9 0 -2
BITMAP
564000
000000
3D2000
0B0000
0B0000
0B0020
3D5760
000000
019000
ENDCHAR
STARTCHAR uni1E39
ENCODING 7737
SWIDTH 283 0
DWIDTH 2 0
BBX 3 9 0 -2
BITMAP
6620
6700
3700
3700
3700
3700
6A00
0000
3600
ENDCHAR
STARTCHAR uni1E3A
ENCODING 7738
SWIDTH 585 0
DWIDTH 5 0
BBX 5 6 0 -1
BITMAP
3D2000
0B0000
0B0000
0B0020
3D5760
067300
ENDCHAR
STARTCHAR uni1E3B
ENCODING 7739
SWIDTH 283 0
DWIDTH 2 0
BBX 3 7 0 -1
BITMAP
6700
3700
3700
3700
3700
6A00
7720
ENDCHAR
STARTCHAR uni1E3C
ENCODING 7740
SWIDTH 585 0
DWIDTH 5 0
BBX 5 7 0 -2
BITMAP
3D2000
0B0000
0B0000
0B0020
3D5760
015000
066200
ENDCHAR
STARTCHAR uni1E3D
ENCODING 7741
SWIDTH 283 0
DWIDTH 2 0
BBX 3 8 0 -2
BITMAP
6700
3700
3700
3700
3700
6A00
2400
7610
ENDCHAR
STARTCHAR uni1E3E
ENCODING 7742
SWIDTH 895 0
DWIDTH 7 0
BBX 7 7 0 0
BITMAP
00182000
00000000
4F200E50
0A805B10
06C17910
066A2910
49191B50
ENDCHAR
STARTCHAR uni1E3F
ENCODING 7743
SWIDTH 852 0
DWIDTH 7 0
BBX 7 6 0 0
BITMAP
00042000
00080000
59796A00
370A0910
370A0910
5A2C2B40
ENDCHAR
STARTCHAR uni1E40
ENCODING 7744
SWIDTH 895 0
DWIDTH 7 0
BBX 7 7 0 0
BITMAP
00090000
00000000
4F200E50
0A805B10
06C17910
066A2910
49191B50
ENDCHAR
STARTCHAR uni1E41
ENCODING 7745
SWIDTH 852 0
DWIDTH 7 0
BBX 7 6 0 0
BITMAP
000A0000
00000000
59796A00
370A0910
370A0910
5A2C2B40
ENDCHAR
STARTCHAR uni1E42
ENCODING 7746
SWIDTH 895 0
DWIDTH 7 0
BBX 7 7 0 -2
BITMAP
4F200E50
0A805B10
06C17910
066A2910
49191B50
00000000
000A0000
ENDCHAR
STARTCHAR uni1E43
ENCODING 7747
SWIDTH 852 0
DWIDTH 7 0
BBX 7 6 0 -2
BITMAP
59796A00
370A0910
370A0910
5A2C2B40
00000000
000A0000
ENDCHAR
STARTCHAR uni1E44
ENCODING 7748
SWIDTH 742 0
DWIDTH 6 0
BBX 6 7 0 0
BITMAP
004400
000000
5D11A4
09B060
065960
0608B0
4900A0
ENDCHAR
STARTCHAR uni1E45
ENCODING 7749
SWIDTH 576 0
DWIDTH 5 0
BBX 5 6 0 0
BITMAP
00A000
000000
6A7800
370A00
370A00
5A2C20
ENDCHAR
STARTCHAR uni1E46
ENCODING 7750
SWIDTH 742 0
DWIDTH 6 0
BBX 6 7 0 -2
BITMAP
5D11A4
09B060
065960
0608B0
4900A0
000000
007300
ENDCHAR
STARTCHAR uni1E47
ENCODING 7751
SWIDTH 576 0
DWIDTH 5 0
BBX 5 6 0 -2
BITMAP
6A7800
370A00
370A00
5A2C20
000000
019000
ENDCHAR
STARTCHAR uni1E48
ENCODING 7752
SWIDTH 742 0
DWIDTH 6 0
BBX 6 6 0 -1
BITMAP
5D11A4
09B060
065960
0608B0
4900A0
027700
ENDCHAR
STARTCHAR uni1E49
ENCODING 7753
SWIDTH 576 0
DWIDTH 5 0
BBX 5 5 0 -1
BITMAP
6A7800
370A00
370A00
5A2C20
067300
ENDCHAR
STARTCHAR uni1E4A
ENCODING 7754
SWIDTH 742 0
DWIDTH 6 0
BBX 6 7 0 -2
BITMAP
5D11A4
09B060
065960
0608B0
4900A0
004200
016600
ENDCHAR
STARTCHAR uni1E4B
ENCODING 7755
SWIDTH 576 0
DWIDTH 5 0
BBX 5 6 0 -2
BITMAP
6A7800
370A00
370A00
5A2C20
015000
066200
ENDCHAR
STARTCHAR uni1E4C
ENCODING 7756
SWIDTH 738 0
DWIDTH 6 0
BBX 6 8 0 0
BITMAP
005500
017710
000000
075680
660085
940067
660084
075570
ENDCHAR
STARTCHAR uni1E4D
ENCODING 7757
SWIDTH 514 0
DWIDTH 4 0
BBX 4 7 0 0
BITMAP
0060
0250
0771
3674
A10B
A10A
3764
ENDCHAR
STARTCHAR uni1E4E
ENCODING 7758
SWIDTH 738 0
DWIDTH 6 0
BBX 6 8 0 0
BITMAP
035620
017710
000000
075680
660085
940067
660084
075570
ENDCHAR
STARTCHAR uni1E4F
ENCODING 7759
SWIDTH 514 0
DWIDTH 4 0
BBX 4 7 0 0
BITMAP
2864
0000
0771
3674
A10B
A10A
3764
ENDCHAR
STARTCHAR uni1E50
ENCODING 7760
SWIDTH 738 0
DWIDTH 6 0
BBX 6 8 0 0
BITMAP
006400
016610
000000
075680
660085
940067
660084
075570
ENDCHAR
STARTCHAR uni1E51
ENCODING 7761
SWIDTH 514 0
DWIDTH 4 0
BBX 4 7 0 0
BITMAP
0500
0350
1772
3674
A10B
A10A
3764
ENDCHAR
STARTCHAR uni1E52
ENCODING 7762
SWIDTH 738 0
DWIDTH 6 0
BBX 6 8 0 0
BITMAP
005500
016610
000000
075680
660085
940067
660084
075570
ENDCHAR
STARTCHAR uni1E53
ENCODING 7763
SWIDTH 514 0
DWIDTH 4 0
BBX 4 7 0 0
BITMAP
0060
0250
1772
3674
A10B
A10A
3764
ENDCHAR
STARTCHAR uni1E54
ENCODING 7764
SWIDTH 569 0
DWIDTH 5 0
BBX 5 7 0 0
BITMAP
028100
000000
3D5A20
0B0840
0C5500
0B0000
3D2000
ENDCHAR
STARTCHAR uni1E55
ENCODING 7765
SWIDTH 537 0
DWIDTH 4 0
BBX 4 8 0 -2
BITMAP
0060
0160
6998
460B
460A
4A55
4600
6A10
ENDCHAR
STARTCHAR uni1E56
ENCODING 7766
SWIDTH 569 0
DWIDTH 5 0
BBX 5 7 0 0
BITMAP
008000
000000
3D5A20
0B0840
0C5500
0B0000
3D2000
ENDCHAR
STARTCHAR uni1E57
ENCODING 7767
SWIDTH 537 0
DWIDTH 4 0
BBX 4 8 0 -2
BITMAP
0370
0000
6998
460B
460A
4A55
4600
6A10
ENDCHAR
STARTCHAR uni1E58
ENCODING 7768
SWIDTH 659 0
DWIDTH 5 0
BBX 6 7 0 0
BITMAP
009000
000000
3D5920
0B0840
0C8600
0B2B00
3D25A1
ENDCHAR
STARTCHAR uni1E59
ENCODING 7769
SWIDTH 380 0
DWIDTH 3 0
BBX 3 6 0 0
BITMAP
0A00
0000
59A0
3800
3700
5A10
ENDCHAR
STARTCHAR uni1E5A
ENCODING 7770
SWIDTH 659 0
DWIDTH 5 0
BBX 6 7 0 -2
BITMAP
3D5920
0B0840
0C8600
0B2B00
3D25A1
000000
009000
ENDCHAR
STARTCHAR uni1E5B
ENCODING 7771
SWIDTH 380 0
DWIDTH 3 0
BBX 3 6 0 -2
BITMAP
59A0
3800
3700
5A10
0000
2800
ENDCHAR
STARTCHAR uni1E5C
ENCODING 7772
SWIDTH 659 0
DWIDTH 5 0
BBX 6 9 0 -2
BITMAP
046400
000000
3D5920
0B0840
0C8600
0B2B00
3D25A1
000000
009000
ENDCHAR
STARTCHAR uni1E5D
ENCODING 7773
SWIDTH 380 0
DWIDTH 3 0
BBX 3 7 0 -2
BITMAP
4750
59A0
3800
3700
5A10
0000
2800
ENDCHAR
STARTCHAR uni1E5E
ENCODING 7774
SWIDTH 659 0
DWIDTH 5 0
BBX 6 6 0 -1
BITMAP
3D5920
0B0840
0C8600
0B2B00
3D25A1
037600
ENDCHAR
STARTCHAR uni1E5F
ENCODING 7775
SWIDTH 380 0
DWIDTH 3 0
BBX 3 5 0 -1
BITMAP
59A0
3800
3700
5A10
6730
ENDCHAR
STARTCHAR uni1E60
ENCODING 7776
SWIDTH 504 0
DWIDTH 4 0
BBX 4 7 0 0
BITMAP
0450
0000
4787
7604
08B2
403A
9766
ENDCHAR
STARTCHAR uni1E61
ENCODING 7777
SWIDTH 394 0
DWIDTH 3 0
BBX 3 6 0 0
BITMAP
0A00
0000
6570
7820
25B0
7580
ENDCHAR
STARTCHAR uni1E62
ENCODING 7778
SWIDTH 504 0
DWIDTH 4 0
BBX 4 7 0 -2
BITMAP
4787
7604
08B2
403A
9766
0000
0640
ENDCHAR
STARTCHAR uni1E63
ENCODING 7779
SWIDTH 394 0
DWIDTH 3 0
BBX 3 6 0 -2
BITMAP
6570
7820
25B0
7580
0000
0A00
ENDCHAR
STARTCHAR uni1E64
ENCODING 7780
SWIDTH 504 0
DWIDTH 4 0
BBX 4 8 0 0
BITMAP
0200
0681
0000
4787
7604
08B2
403A
9766
ENDCHAR
STARTCHAR uni1E65
ENCODING 7781
SWIDTH 394 0
DWIDTH 3 0
BBX 3 7 0 0
BITMAP
3500
1340
0610
6570
7820
25B0
7580
ENDCHAR
STARTCHAR uni1E66
ENCODING 7782
SWIDTH 504 0
DWIDTH 4 0
BBX 4 8 0 0
BITMAP
0230
0890
0000
4787
7604
08B2
403A
9766
ENDCHAR
STARTCHAR uni1E67
ENCODING 7783
SWIDTH 394 0
DWIDTH 3 0
BBX 3 7 0 0
BITMAP
0700
2230
1B20
6570
7820
25B0
7580
ENDCHAR
STARTCHAR uni1E68
ENCODING 7784
SWIDTH 504 0
DWIDTH 4 0
BBX 4 9 0 -2
BITMAP
0450
0000
4787
7604
08B2
403A
9766
0000
0640
ENDCHAR
STARTCHAR uni1E69
ENCODING 7785
SWIDTH 394 0
DWIDTH 3 0
BBX 3 8 0 -2
BITMAP
0A00
0000
6570
7820
25B0
7580
0000
0A00
ENDCHAR
STARTCHAR uni1E6A
ENCODING 7786
SWIDTH 603 0
DWIDTH 5 0
BBX 5 7 0 0
BITMAP
009000
000000
96C680
20B020
00B000
00B000
03D200
ENDCHAR
STARTCHAR uni1E6B
ENCODING 7787
SWIDTH 315 0
DWIDTH 3 0
BBX 3 7 0 0
BITMAP
1900
0000
2600
6920
4600
4600
2A20
ENDCHAR
STARTCHAR uni1E6C
ENCODING 7788
SWIDTH 603 0
DWIDTH 5 0
BBX 5 7 0 -2
BITMAP
96C680
20B020
00B000
00B000
03D200
000000
00A000
ENDCHAR
STARTCHAR uni1E6D
ENCODING 7789
SWIDTH 315 0
DWIDTH 3 0
BBX 3 7 0 -2
BITMAP
2600
6920
4600
4600
2A20
0000
0A00
ENDCHAR
STARTCHAR uni1E6E
ENCODING 7790
SWIDTH 603 0
DWIDTH 5 0
BBX 5 6 0 -1
BITMAP
96C680
20B020
00B000
00B000
03D200
057400
ENDCHAR
STARTCHAR uni1E6F
ENCODING 7791
SWIDTH 315 0
DWIDTH 3 0
BBX 3 6 0 -1
BITMAP
2600
6920
4600
4600
2A20
5740
ENDCHAR
STARTCHAR uni1E70
ENCODING 7792
SWIDTH 603 0
DWIDTH 5 0
BBX 5 7 0 -2
BITMAP
96C680
20B020
00B000
00B000
03D200
006000
055300
ENDCHAR
STARTCHAR uni1E71
ENCODING 7793
SWIDTH 315 0
DWIDTH 3 0
BBX 3 7 0 -2
BITMAP
2600
6920
4600
4600
2A20
0600
4540
ENDCHAR
STARTCHAR uni1E72
ENCODING 7794
SWIDTH 752 0
DWIDTH 6 0
BBX 6 6 0 -1
BITMAP
5C2096
1A0052
1A0052
0B0061
078760
037630
ENDCHAR
STARTCHAR uni1E73
ENCODING 7795
SWIDTH 570 0
DWIDTH 5 0
BBX 5 5 0 -1
BITMAP
763B00
460A00
460A00
1B5B10
194600
ENDCHAR
STARTCHAR uni1E74
ENCODING 7796
SWIDTH 752 0
DWIDTH 6 0
BBX 6 7 0 -2
BITMAP
5C2096
1A0052
1A0052
0B0061
078760
000000
017710
ENDCHAR
STARTCHAR uni1E75
ENCODING 7797
SWIDTH 570 0
DWIDTH 5 0
BBX 5 6 0 -2
BITMAP
763B00
460A00
460A00
1B5B10
000000
067200
ENDCHAR
STARTCHAR uni1E76
ENCODING 7798
SWIDTH 752 0
DWIDTH 6 0
BBX 6 7 0 -2
BITMAP
5C2096
1A0052
1A0052
0B0061
078760
003300
007600
ENDCHAR
STARTCHAR uni1E77
ENCODING 7799
SWIDTH 570 0
DWIDTH 5 0
BBX 5 6 0 -2
BITMAP
763B00
460A00
460A00
1B5B10
025000
066100
ENDCHAR
STARTCHAR uni1E78
ENCODING 7800
SWIDTH 752 0
DWIDTH 6 0
BBX 6 8 0 0
BITMAP
003700
006720
000000
5C2096
1A0052
1A0052
0B0061
078760
ENDCHAR
STARTCHAR uni1E79
ENCODING 7801
SWIDTH 570 0
DWIDTH 5 0
BBX 5 7 0 0
BITMAP
006000
017000
067200
763B00
460A00
460A00
1B5B10
ENDCHAR
STARTCHAR uni1E7A
ENCODING 7802
SWIDTH 752 0
DWIDTH 6 0
BBX 6 8 0 0
BITMAP
018350
006620
000000
5C2096
1A0052
1A0052
0B0061
078760
ENDCHAR
STARTCHAR uni1E7B
ENCODING 7803
SWIDTH 570 0
DWIDTH 5 0
BBX 5 7 0 0
BITMAP
194600
000000
067200
763B00
460A00
460A00
1B5B10
ENDCHAR
STARTCHAR uni1E7C
ENCODING 7804
SWIDTH 680 0
DWIDTH 5 0
BBX 6 7 0 0
BITMAP
027600
000000
9A01A2
1C0160
085610
02B600
009200
ENDCHAR
STARTCHAR uni1E7D
ENCODING 7805
SWIDTH 481 0
DWIDTH 4 0
BBX 4 5 0 0
BITMAP
1771
A529
3842
0A50
0750
ENDCHAR
STARTCHAR uni1E7E
ENCODING 7806
SWIDTH 680 0
DWIDTH 5 0
BBX 6 7 0 -2
BITMAP
9A01A2
1C0160
085610
02B600
009200
000000
008100
ENDCHAR
STARTCHAR uni1E7F
ENCODING 7807
SWIDTH 481 0
DWIDTH 4 0
BBX 4 6 0 -2
BITMAP
A529
3842
0A50
0750
0000
0640
ENDCHAR
STARTCHAR Wgrave
ENCODING 7808
SWIDTH 944 0
DWIDTH 8 0
BBX 8 7 0 0
BITMAP
00182000
00000000
9A1C50A3
1B067060
0946B330
03B48A00
00902700
ENDCHAR
STARTCHAR wgrave
ENCODING 7809
SWIDTH 749 0
DWIDTH 6 0
BBX 6 6 0 0
BITMAP
006000
004300
A57819
384A23
0B5960
074470
ENDCHAR
STARTCHAR Wacute
ENCODING 7810
SWIDTH 944 0
DWIDTH 8 0
BBX 8 7 0 0
BITMAP
00073000
00000000
9A1C50A3
1B067060
0946B330
03B48A00
00902700
ENDCHAR
STARTCHAR wacute
ENCODING 7811
SWIDTH 749 0
DWIDTH 6 0
BBX 6 6 0 0
BITMAP
000600
004400
A57819
384A23
0B5960
074470
ENDCHAR
STARTCHAR Wdieresis
ENCODING 7812
SWIDTH 944 0
DWIDTH 8 0
BBX 8 7 0 0
BITMAP
00729000
00000000
9A1C50A3
1B067060
0946B330
03B48A00
00902700
ENDCHAR
STARTCHAR wdieresis
ENCODING 7813
SWIDTH 749 0
DWIDTH 6 0
BBX 6 6 0 0
BITMAP
036730
000000
A57819
384A23
0B5960
074470
ENDCHAR
STARTCHAR uni1E86
ENCODING 7814
SWIDTH 944 0
DWIDTH 8 0
BBX 8 7 0 0
BITMAP
00081000
00000000
9A1C50A3
1B067060
0946B330
03B48A00
00902700
ENDCHAR
STARTCHAR uni1E87
ENCODING 7815
SWIDTH 749 0
DWIDTH 6 0
BBX 6 6 0 0
BITMAP
005500
000000
A57819
384A23
0B5960
074470
ENDCHAR
STARTCHAR uni1E88
ENCODING 7816
SWIDTH 944 0
DWIDTH 8 0
BBX 8 7 0 -2
BITMAP
9A1C50A3
1B067060
0946B330
03B48A00
00902700
00000000
00073000
ENDCHAR
STARTCHAR uni1E89
ENCODING 7817
SWIDTH 749 0
DWIDTH 6 0
BBX 6 6 0 -2
BITMAP
A57819
384A23
0B5960
074470
000000
005500
ENDCHAR
STARTCHAR uni1E8A
ENCODING 7818
SWIDTH 664 0
DWIDTH 5 0
BBX 6 7 0 0
BITMAP
008100
000000
5E2581
067600
00D300
063B00
670AA1
ENDCHAR
STARTCHAR uni1E8B
ENCODING 7819
SWIDTH 479 0
DWIDTH 4 0
BBX 4 6 0 0
BITMAP
0640
0000
7964
0A50
07A0
8397
ENDCHAR
STARTCHAR uni1E8C
ENCODING 7820
SWIDTH 664 0
DWIDTH 5 0
BBX 6 7 0 0
BITMAP
063900
000000
5E2581
067600
00D300
063B00
670AA1
ENDCHAR
STARTCHAR uni1E8D
ENCODING 7821
SWIDTH 479 0
DWIDTH 4 0
BBX 4 6 0 0
BITMAP
4672
0000
7964
0A50
07A0
8397
ENDCHAR
STARTCHAR uni1E8E
ENCODING 7822
SWIDTH 647 0
DWIDTH 5 0
BBX 6 7 0 0
BITMAP
008100
000000
8C0391
0A3600
02C300
00B000
02D400
ENDCHAR
STARTCHAR uni1E8F
ENCODING 7823
SWIDTH 483 0
DWIDTH 4 0
BBX 4 8 0 -2
BITMAP
0460
0000
B529
3842
0A50
0550
0510
9500
ENDCHAR
STARTCHAR uni1E90
ENCODING 7824
SWIDTH 594 0
DWIDTH 5 0
BBX 5 7 0 0
BITMAP
038300
000000
776D40
205800
02B000
0B2020
8A6850
ENDCHAR
STARTCHAR uni1E91
ENCODING 7825
SWIDTH 458 0
DWIDTH 4 0
BBX 4 6 0 0
BITMAP
0420
1670
75C3
1480
1B01
8975
ENDCHAR
STARTCHAR uni1E92
ENCODING 7826
SWIDTH 594 0
DWIDTH 5 0
BBX 5 7 0 -2
BITMAP
776D40
205800
02B000
0B2020
8A6850
000000
019000
ENDCHAR
STARTCHAR uni1E93
ENCODING 7827
SWIDTH 458 0
DWIDTH 4 0
BBX 4 6 0 -2
BITMAP
75C3
1480
1B01
8975
0000
0730
ENDCHAR
STARTCHAR uni1E94
ENCODING 7828
SWIDTH 594 0
DWIDTH 5 0
BBX 5 6 0 -1
BITMAP
776D40
205800
02B000
0B2020
8A6850
067300
ENDCHAR
STARTCHAR uni1E95
ENCODING 7829
SWIDTH 458 0
DWIDTH 4 0
BBX 4 5 0 -1
BITMAP
75C3
1480
1B01
8975
2770
ENDCHAR
STARTCHAR uni1E96
ENCODING 7830
SWIDTH 577 0
DWIDTH 5 0
BBX 5 7 0 -1
BITMAP
770000
370000
3A8800
370A00
370A00
6A2C20
067300
ENDCHAR
STARTCHAR uni1E97
ENCODING 7831
SWIDTH 315 0
DWIDTH 3 0
BBX 3 7 0 0
BITMAP
A370
0000
2600
6920
4600
4600
2A20
ENDCHAR
STARTCHAR uni1E98
ENCODING 7832
SWIDTH 749 0
DWIDTH 6 0
BBX 6 6 0 0
BITMAP
004400
004400
A57819
384A23
0B5960
074470
ENDCHAR
STARTCHAR uni1E99
ENCODING 7833
SWIDTH 483 0
DWIDTH 4 0
BBX 4 8 0 -2
BITMAP
0440
0440
B529
3842
0A50
0550
0510
9500
ENDCHAR
STARTCHAR uni1E9A
ENCODING 7834
SWIDTH 480 0
DWIDTH 4 0
BBX 4 6 0 0
BITMAP
0320
0320
46A0
22B1
6491
7895
ENDCHAR
STARTCHAR uni1E9B
ENCODING 7835
SWIDTH 285 0
DWIDTH 2 0
BBX 3 7 0 0
BITMAP
2700
0570
2710
6700
3700
3700
6A10
ENDCHAR
STARTCHAR uni1E9C
ENCODING 7836
SWIDTH 300 0
DWIDTH 2 0
BBX 3 6 0 0
BITMAP
0580
1810
5B10
5900
2800
5B10
ENDCHAR
STARTCHAR uni1E9D
ENCODING 7837
SWIDTH 285 0
DWIDTH 2 0
BBX 3 6 0 0
BITMAP
0570
5A20
6700
3700
3700
6A10
ENDCHAR
STARTCHAR uni1E9E
ENCODING 7838
SWIDTH 684 0
DWIDTH 5 0
BBX 6 5 0 0
BITMAP
067790
0B0A20
1A1870
1A00B1
4A8380
ENDCHAR
STARTCHAR uni1E9F
ENCODING 7839
SWIDTH 517 0
DWIDTH 4 0
BBX 4 6 0 0
BITMAP
0663
1A12
08B1
742A
A10B
4765
ENDCHAR
STARTCHAR uni1EA0
ENCODING 7840
SWIDTH 718 0
DWIDTH 6 0
BBX 6 7 0 -2
BITMAP
009300
019A00
071C20
0A5990
8602E4
000000
009100
ENDCHAR
STARTCHAR uni1EA1
ENCODING 7841
SWIDTH 480 0
DWIDTH 4 0
BBX 4 6 0 -2
BITMAP
46A0
22B1
6491
7895
0000
0730
ENDCHAR
STARTCHAR uni1EA2
ENCODING 7842
SWIDTH 718 0
DWIDTH 6 0
BBX 6 7 0 0
BITMAP
000300
003200
009300
019A00
071C20
0A5990
8602E4
ENDCHAR
STARTCHAR uni1EA3
ENCODING 7843
SWIDTH 480 0
DWIDTH 4 0
BBX 4 6 0 0
BITMAP
0340
0220
46A0
22B1
6491
7895
ENDCHAR
STARTCHAR uni1EA4
ENCODING 7844
SWIDTH 718 0
DWIDTH 6 0
BBX 6 8 0 0
BITMAP
000050
017720
000000
009300
019A00
071C20
0A5990
8602E4
ENDCHAR
STARTCHAR uni1EA5
ENCODING 7845
SWIDTH 480 0
DWIDTH 4 0
BBX 4 6 0 0
BITMAP
0018
1770
46A0
22B1
6491
7895
ENDCHAR
STARTCHAR uni1EA6
ENCODING 7846
SWIDTH 718 0
DWIDTH 6 0
BBX 6 8 0 0
BITMAP
001510
017730
000000
009300
019A00
071C20
0A5990
8602E4
ENDCHAR
STARTCHAR uni1EA7
ENCODING 7847
SWIDTH 480 0
DWIDTH 4 0
BBX 4 6 0 0
BITMAP
0080
1761
46A0
22B1
6491
7895
ENDCHAR
STARTCHAR uni1EA8
ENCODING 7848
SWIDTH 718 0
DWIDTH 6 0
BBX 6 8 0 0
BITMAP
000440
007720
011200
009300
019A00
071C20
0A5990
8602E4
ENDCHAR
STARTCHAR uni1EA9
ENCODING 7849
SWIDTH 480 0
DWIDTH 4 0
BBX 4 7 0 0
BITMAP
0043
0017
0880
56A0
22B1
6491
7895
ENDCHAR
STARTCHAR uni1EAA
ENCODING 7850
SWIDTH 718 0
DWIDTH 6 0
BBX 6 8 0 0
BITMAP
017600
018600
000000
009300
019A00
071C20
0A5990
8602E4
ENDCHAR
STARTCHAR uni1EAB
ENCODING 7851
SWIDTH 480 0
DWIDTH 4 0
BBX 4 6 0 0
BITMAP
2770
0860
57B0
22B1
6491
7895
ENDCHAR
STARTCHAR uni1EAC
ENCODING 7852
SWIDTH 718 0
DWIDTH 6 0
BBX 6 9 0 -2
BITMAP
017600
000000
009300
019A00
071C20
0A5990
8602E4
000000
009100
ENDCHAR
STARTCHAR uni1EAD
ENCODING 7853
SWIDTH 480 0
DWIDTH 4 0
BBX 4 8 0 -2
BITMAP
0420
1660
46A0
22B1
6491
7895
0000
0730
ENDCHAR
STARTCHAR uni1EAE
ENCODING 7854
SWIDTH 718 0
DWIDTH 6 0
BBX 6 8 0 0
BITMAP
033700
018600
000000
009300
019A00
071C20
0A5990
8602E4
ENDCHAR
STARTCHAR uni1EAF
ENCODING 7855
SWIDTH 480 0
DWIDTH 4 0
BBX 4 6 0 0
BITMAP
0140
4460
5EF0
22B1
6491
7895
ENDCHAR
STARTCHAR uni1EB0
ENCODING 7856
SWIDTH 718 0
DWIDTH 6 0
BBX 6 8 0 0
BITMAP
036400
018600
000000
009300
019A00
071C20
0A5990
8602E4
ENDCHAR
STARTCHAR uni1EB1
ENCODING 7857
SWIDTH 480 0
DWIDTH 4 0
BBX 4 6 0 0
BITMAP
0500
4550
5EF0
22B1
6491
7895
ENDCHAR
STARTCHAR uni1EB2
ENCODING 7858
SWIDTH 718 0
DWIDTH 6 0
BBX 6 9 0 0
BITMAP
004400
033600
018600
000000
009300
019A00
071C20
0A5990
8602E4
ENDCHAR
STARTCHAR uni1EB3
ENCODING 7859
SWIDTH 480 0
DWIDTH 4 0
BBX 4 7 0 0
BITMAP
0430
0170
4350
5EF0
22B1
6491
7895
ENDCHAR
STARTCHAR uni1EB4
ENCODING 7860
SWIDTH 718 0
DWIDTH 6 0
BBX 6 9 0 0
BITMAP
018210
032800
018600
000000
009300
019A00
071C20
0A5990
8602E4
ENDCHAR
STARTCHAR uni1EB5
ENCODING 7861
SWIDTH 480 0
DWIDTH 4 0
BBX 4 6 0 0
BITMAP
1770
4140
5EF0
22B1
6491
7895
ENDCHAR
STARTCHAR uni1EB6
ENCODING 7862
SWIDTH 718 0
DWIDTH 6 0
BBX 6 10 0 -2
BITMAP
030300
018600
000000
009300
019A00
071C20
0A5990
8602E4
000000
009100
ENDCHAR
STARTCHAR uni1EB7
ENCODING 7863
SWIDTH 480 0
DWIDTH 4 0
BBX 4 8 0 -2
BITMAP
3030
1860
46A0
22B1
6491
7895
0000
0730
ENDCHAR
STARTCHAR uni1EB8
ENCODING 7864
SWIDTH 626 0
DWIDTH 5 0
BBX 5 7 0 -2
BITMAP
3D5660
0B0500
0C5900
0B0020
3D5680
000000
00A000
ENDCHAR
STARTCHAR uni1EB9
ENCODING 7865
SWIDTH 464 0
DWIDTH 4 0
BBX 4 6 0 -2
BITMAP
3682
9574
A201
3B82
0000
0640
ENDCHAR
STARTCHAR uni1EBA
ENCODING 7866
SWIDTH 626 0
DWIDTH 5 0
BBX 5 7 0 0
BITMAP
001200
004100
3D5660
0B0500
0C5900
0B0020
3D5680
ENDCHAR
STARTCHAR uni1EBB
ENCODING 7867
SWIDTH 464 0
DWIDTH 4 0
BBX 4 6 0 0
BITMAP
0340
0230
3682
9574
A201
3B82
ENDCHAR
STARTCHAR uni1EBC
ENCODING 7868
SWIDTH 626 0
DWIDTH 5 0
BBX 5 7 0 0
BITMAP
037500
000000
3D5660
0B0500
0C5900
0B0020
3D5680
ENDCHAR
STARTCHAR uni1EBD
ENCODING 7869
SWIDTH 464 0
DWIDTH 4 0
BBX 4 5 0 0
BITMAP
1771
3682
9574
A201
3B82
ENDCHAR
STARTCHAR uni1EBE
ENCODING 7870
SWIDTH 626 0
DWIDTH 5 0
BBX 5 8 0 0
BITMAP
000150
038710
000000
3D5660
0B0500
0C5900
0B0020
3D5680
ENDCHAR
STARTCHAR uni1EBF
ENCODING 7871
SWIDTH 464 0
DWIDTH 4 0
BBX 4 6 0 0
BITMAP
0018
0670
3682
9574
A201
3B82
ENDCHAR
STARTCHAR uni1EC0
ENCODING 7872
SWIDTH 626 0
DWIDTH 5 0
BBX 5 8 0 0
BITMAP
001600
038620
000000
3D5660
0B0500
0C5900
0B0020
3D5680
ENDCHAR
STARTCHAR uni1EC1
ENCODING 7873
SWIDTH 464 0
DWIDTH 4 0
BBX 4 6 0 0
BITMAP
0071
0771
3682
9574
A201
3B82
ENDCHAR
STARTCHAR uni1EC2
ENCODING 7874
SWIDTH 626 0
DWIDTH 5 0
BBX 5 8 0 0
BITMAP
000520
018610
020200
3D5660
0B0500
0C5900
0B0020
3D5680
ENDCHAR
STARTCHAR uni1EC3
ENCODING 7875
SWIDTH 464 0
DWIDTH 4 0
BBX 4 7 0 0
BITMAP
0043
0017
0781
3692
9574
A201
3B82
ENDCHAR
STARTCHAR uni1EC4
ENCODING 7876
SWIDTH 626 0
DWIDTH 5 0
BBX 5 8 0 0
BITMAP
038500
038400
000000
3D5660
0B0500
0C5900
0B0020
3D5680
ENDCHAR
STARTCHAR uni1EC5
ENCODING 7877
SWIDTH 464 0
DWIDTH 4 0
BBX 4 6 0 0
BITMAP
1771
0860
37A2
9574
A201
3B82
ENDCHAR
STARTCHAR uni1EC6
ENCODING 7878
SWIDTH 626 0
DWIDTH 5 0
BBX 5 9 0 -2
BITMAP
038400
000000
3D5660
0B0500
0C5900
0B0020
3D5680
000000
00A000
ENDCHAR
STARTCHAR uni1EC7
ENCODING 7879
SWIDTH 464 0
DWIDTH 4 0
BBX 4 8 0 -2
BITMAP
0430
0670
3682
9574
A201
3B82
0000
0640
ENDCHAR
STARTCHAR uni1EC8
ENCODING 7880
SWIDTH 357 0
DWIDTH 3 0
BBX 3 7 0 0
BITMAP
0210
0510
3D20
0B00
0B00
0B00
3D20
ENDCHAR
STARTCHAR uni1EC9
ENCODING 7881
SWIDTH 285 0
DWIDTH 2 0
BBX 2 6 0 0
BITMAP
35
14
57
37
37
5A
ENDCHAR
STARTCHAR uni1ECA
ENCODING 7882
SWIDTH 357 0
DWIDTH 3 0
BBX 3 7 0 -2
BITMAP
3D20
0B00
0B00
0B00
3D20
0000
0A00
ENDCHAR
STARTCHAR uni1ECB
ENCODING 7883
SWIDTH 285 0
DWIDTH 2 0
BBX 2 7 0 -2
BITMAP
27
57
37
37
5A
00
37
ENDCHAR
STARTCHAR uni1ECC
ENCODING 7884
SWIDTH 738 0
DWIDTH 6 0
BBX 6 7 0 -2
BITMAP
075680
660085
940067
660084
075570
000000
006400
ENDCHAR
STARTCHAR uni1ECD
ENCODING 7885
SWIDTH 514 0
DWIDTH 4 0
BBX 4 6 0 -2
BITMAP
3674
A10B
A10A
3764
0000
0460
ENDCHAR
STARTCHAR uni1ECE
ENCODING 7886
SWIDTH 738 0
DWIDTH 6 0
BBX 6 7 0 0
BITMAP
001300
002300
075680
660085
940067
660084
075570
ENDCHAR
STARTCHAR uni1ECF
ENCODING 7887
SWIDTH 514 0
DWIDTH 4 0
BBX 4 6 0 0
BITMAP
0350
0140
3674
A10B
A10A
3764
ENDCHAR
STARTCHAR uni1ED0
ENCODING 7888
SWIDTH 738 0
DWIDTH 6 0
BBX 6 8 0 0
BITMAP
000051
007830
000000
075680
660085
940067
660084
075570
ENDCHAR
STARTCHAR uni1ED1
ENCODING 7889
SWIDTH 514 0
DWIDTH 4 0
BBX 4 6 0 0
BITMAP
0009
0672
3674
A10B
A10A
3764
ENDCHAR
STARTCHAR uni1ED2
ENCODING 7890
SWIDTH 738 0
DWIDTH 6 0
BBX 6 8 0 0
BITMAP
000420
007730
000000
075680
660085
940067
660084
075570
ENDCHAR
STARTCHAR uni1ED3
ENCODING 7891
SWIDTH 514 0
DWIDTH 4 0
BBX 4 6 0 0
BITMAP
0062
0672
3674
A10B
A10A
3764
ENDCHAR
STARTCHAR uni1ED4
ENCODING 7892
SWIDTH 738 0
DWIDTH 6 0
BBX 6 8 0 0
BITMAP
000340
006730
001200
075680
660085
940067
660084
075570
ENDCHAR
STARTCHAR uni1ED5
ENCODING 7893
SWIDTH 514 0
DWIDTH 4 0
BBX 4 7 0 0
BITMAP
0034
0017
0682
3775
A10B
A10A
3764
ENDCHAR
STARTCHAR uni1ED6
ENCODING 7894
SWIDTH 738 0
DWIDTH 6 0
BBX 6 8 0 0
BITMAP
017710
007700
000000
075680
660085
940067
660084
075570
ENDCHAR
STARTCHAR uni1ED7
ENCODING 7895
SWIDTH 514 0
DWIDTH 4 0
BBX 4 6 0 0
BITMAP
0772
0680
3885
A10B
A10A
3764
ENDCHAR
STARTCHAR uni1ED8
ENCODING 7896
SWIDTH 738 0
DWIDTH 6 0
BBX 6 9 0 -2
BITMAP
007700
000000
075680
660085
940067
660084
075570
000000
006400
ENDCHAR
STARTCHAR uni1ED9
ENCODING 7897
SWIDTH 514 0
DWIDTH 4 0
BBX 4 8 0 -2
BITMAP
0240
0761
3674
A10B
A10A
3764
0000
0460
ENDCHAR
STARTCHAR uni1EDA
ENCODING 7898
SWIDTH 737 0
DWIDTH 6 0
BBX 6 7 0 0
BITMAP
005504
000018
0757B1
660085
940067
660084
075660
ENDCHAR
STARTCHAR uni1EDB
ENCODING 7899
SWIDTH 516 0
DWIDTH 4 0
BBX 4 6 0 0
BITMAP
0064
0257
3687
A10A
A10A
3764
ENDCHAR
STARTCHAR uni1EDC
ENCODING 7900
SWIDTH 737 0
DWIDTH 6 0
BBX 6 7 0 0
BITMAP
006404
000018
0757B1
660085
940067
660084
075660
ENDCHAR
STARTCHAR uni1EDD
ENCODING 7901
SWIDTH 516 0
DWIDTH 4 0
BBX 4 6 0 0
BITMAP
0504
0357
3687
A10A
A10A
3764
ENDCHAR
STARTCHAR uni1EDE
ENCODING 7902
SWIDTH 737 0
DWIDTH 6 0
BBX 6 7 0 0
BITMAP
001304
002318
0757B1
660085
940067
660084
075660
ENDCHAR
STARTCHAR uni1EDF
ENCODING 7903
SWIDTH 516 0
DWIDTH 4 0
BBX 4 6 0 0
BITMAP
0354
0147
3687
A10A
A10A
3764
ENDCHAR
STARTCHAR uni1EE0
ENCODING 7904
SWIDTH 737 0
DWIDTH 6 0
BBX 6 7 0 0
BITMAP
017714
000018
0757B1
660085
940067
660084
075660
ENDCHAR
STARTCHAR uni1EE1
ENCODING 7905
SWIDTH 516 0
DWIDTH 4 0
BBX 4 5 0 0
BITMAP
1888
3687
A10A
A10A
3764
ENDCHAR
STARTCHAR uni1EE2
ENCODING 7906
SWIDTH 737 0
DWIDTH 6 0
BBX 6 9 0 -2
BITMAP
000004
000018
0757B1
660085
940067
660084
075660
000000
006400
ENDCHAR
STARTCHAR uni1EE3
ENCODING 7907
SWIDTH 516 0
DWIDTH 4 0
BBX 4 8 0 -2
BITMAP
0004
0007
3687
A10A
A10A
3764
0000
0460
ENDCHAR
STARTCHAR uni1EE4
ENCODING 7908
SWIDTH 752 0
DWIDTH 6 0
BBX 6 7 0 -2
BITMAP
5C2096
1A0052
1A0052
0B0061
078760
000000
004500
ENDCHAR
STARTCHAR uni1EE5
ENCODING 7909
SWIDTH 570 0
DWIDTH 5 0
BBX 5 6 0 -2
BITMAP
763B00
460A00
460A00
1B5B10
000000
028000
ENDCHAR
STARTCHAR uni1EE6
ENCODING 7910
SWIDTH 752 0
DWIDTH 6 0
BBX 6 7 0 0
BITMAP
001300
000500
5C2096
1A0052
1A0052
0B0061
078760
ENDCHAR
STARTCHAR uni1EE7
ENCODING 7911
SWIDTH 570 0
DWIDTH 5 0
BBX 5 6 0 0
BITMAP
025000
005000
763B00
460A00
460A00
1B5B10
ENDCHAR
STARTCHAR uni1EE8
ENCODING 7912
SWIDTH 762 0
DWIDTH 6 0
BBX 7 7 0 0
BITMAP
00370370
00000230
5C209200
1A005200
1A005200
0B006000
07875000
ENDCHAR
STARTCHAR uni1EE9
ENCODING 7913
SWIDTH 574 0
DWIDTH 5 0
BBX 5 6 0 0
BITMAP
006000
026070
763C10
460A00
460A00
1B5B10
ENDCHAR
STARTCHAR uni1EEA
ENCODING 7914
SWIDTH 762 0
DWIDTH 6 0
BBX 7 7 0 0
BITMAP
00460370
00000230
5C209200
1A005200
1A005200
0B006000
07875000
ENDCHAR
STARTCHAR uni1EEB
ENCODING 7915
SWIDTH 574 0
DWIDTH 5 0
BBX 5 6 0 0
BITMAP
051000
025070
763C10
460A00
460A00
1B5B10
ENDCHAR
STARTCHAR uni1EEC
ENCODING 7916
SWIDTH 762 0
DWIDTH 6 0
BBX 7 7 0 0
BITMAP
00130370
00050230
5C209200
1A005200
1A005200
0B006000
07875000
ENDCHAR
STARTCHAR uni1EED
ENCODING 7917
SWIDTH 574 0
DWIDTH 5 0
BBX 5 6 0 0
BITMAP
025000
005070
763C10
460A00
460A00
1B5B10
ENDCHAR
STARTCHAR uni1EEE
ENCODING 7918
SWIDTH 762 0
DWIDTH 6 0
BBX 7 7 0 0
BITMAP
00672370
00000230
5C209200
1A005200
1A005200
0B006000
07875000
ENDCHAR
STARTCHAR uni1EEF
ENCODING 7919
SWIDTH 574 0
DWIDTH 5 0
BBX 5 5 0 0
BITMAP
067270
763C10
460A00
460A00
1B5B10
ENDCHAR
STARTCHAR uni1EF0
ENCODING 7920
SWIDTH 762 0
DWIDTH 6 0
BBX 7 9 0 -2
BITMAP
00000370
00000230
5C209200
1A005200
1A005200
0B006000
07875000
00000000
00450000
ENDCHAR
STARTCHAR uni1EF1
ENCODING 7921
SWIDTH 574 0
DWIDTH 5 0
BBX 5 7 0 -2
BITMAP
000070
763C10
460A00
460A00
1B5B10
000000
037000
ENDCHAR
STARTCHAR Ygrave
ENCODING 7922
SWIDTH 647 0
DWIDTH 5 0
BBX 6 7 0 0
BITMAP
008200
000000
8C0391
0A3600
02C300
00B000
02D400
ENDCHAR
STARTCHAR ygrave
ENCODING 7923
SWIDTH 483 0
DWIDTH 4 0
BBX 4 8 0 -2
BITMAP
0500
0350
B529
3842
0A50
0550
0510
9500
ENDCHAR
STARTCHAR uni1EF4
ENCODING 7924
SWIDTH 647 0
DWIDTH 5 0
BBX 6 7 0 -2
BITMAP
8C0391
0A3600
02C300
00B000
02D400
000000
00A000
ENDCHAR
STARTCHAR uni1EF5
ENCODING 7925
SWIDTH 483 0
DWIDTH 4 0
BBX 4 6 0 -2
BITMAP
B529
3842
0A50
0550
0510
9591
ENDCHAR
STARTCHAR uni1EF6
ENCODING 7926
SWIDTH 647 0
DWIDTH 5 0
BBX 6 7 0 0
BITMAP
000300
003200
8C0391
0A3600
02C300
00B000
02D400
ENDCHAR
STARTCHAR uni1EF7
ENCODING 7927
SWIDTH 483 0
DWIDTH 4 0
BBX 4 8 0 -2
BITMAP
0350
0140
B529
3842
0A50
0550
0510
9500
ENDCHAR
STARTCHAR uni1EF8
ENCODING 7928
SWIDTH 647 0
DWIDTH 5 0
BBX 6 7 0 0
BITMAP
027600
000000
8C0391
0A3600
02C300
00B000
02D400
ENDCHAR
STARTCHAR uni1EF9
ENCODING 7929
SWIDTH 483 0
DWIDTH 4 0
BBX 4 7 0 -2
BITMAP
0771
B529
3842
0A50
0550
0510
9500
ENDCHAR
STARTCHAR uni2000
ENCODING 8192
SWIDTH 500 0
DWIDTH 4 0
BBX 1 1 0 0
BITMAP
00
ENDCHAR
STARTCHAR uni2001
ENCODING 8193
SWIDTH 1000 0
DWIDTH 8 0
BBX 1 1 0 0
BITMAP
00
ENDCHAR
STARTCHAR uni2002
ENCODING 8194
SWIDTH 500 0
DWIDTH 4 0
BBX 1 1 0 0
BITMAP
00
ENDCHAR
STARTCHAR uni2003
ENCODING 8195
SWIDTH 1000 0
DWIDTH 8 0
BBX 1 1 0 0
BITMAP
00
ENDCHAR
STARTCHAR uni2004
ENCODING 8196
SWIDTH 334 0
DWIDTH 3 0
BBX 1 1 0 0
BITMAP
00
ENDCHAR
STARTCHAR uni2005
ENCODING 8197
SWIDTH 250 0
DWIDTH 2 0
BBX 1 1 0 0
BITMAP
00
ENDCHAR
STARTCHAR uni2006
ENCODING 8198
SWIDTH 167 0
DWIDTH 1 0
BBX 1 1 0 0
BITMAP
00
ENDCHAR
STARTCHAR uni2007
ENCODING 8199
SWIDTH 560 0
DWIDTH 4 0
BBX 1 1 0 0
BITMAP
00
ENDCHAR
STARTCHAR uni2008
ENCODING 8200
SWIDTH 297 0
DWIDTH 2 0
BBX 1 1 0 0
BITMAP
00
ENDCHAR
STARTCHAR uni2009
ENCODING 8201
SWIDTH 125 0
DWIDTH 1 0
BBX 1 1 0 0
BITMAP
00
ENDCHAR
STARTCHAR uni200A
ENCODING 8202
SWIDTH 63 0
DWIDTH 1 0
BBX 1 1 0 0
BITMAP
00
ENDCHAR
STARTCHAR uni200B
ENCODING 8203
SWIDTH 0 0
DWIDTH 0 0
BBX 1 1 0 0
BITMAP
00
ENDCHAR
STARTCHAR uni200C
ENCODING 8204
SWIDTH 0 0
DWIDTH 0 0
BBX 2 9 -1 -2
BITMAP
11
22
22
22
22
22
22
22
22
ENDCHAR
STARTCHAR uni200D
ENCODING 8205
SWIDTH 0 0
DWIDTH 0 0
BBX 2 10 -1 -2
BITMAP
22
55
33
22
22
22
22
22
22
22
ENDCHAR
STARTCHAR uni2010
ENCODING 8208
SWIDTH 315 0
DWIDTH 3 0
BBX 3 1 0 2
BITMAP
5810
ENDCHAR
STARTCHAR uni2011
ENCODING 8209
SWIDTH 315 0
DWIDTH 3 0
BBX 3 1 0 2
BITMAP
5810
ENDCHAR
STARTCHAR figuredash
ENCODING 8210
SWIDTH 495 0
DWIDTH 4 0
BBX 4 1 0 2
BITMAP
5775
ENDCHAR
STARTCHAR endash
ENCODING 8211
SWIDTH 500 0
DWIDTH 4 0
BBX 4 1 0 2
BITMAP
5775
ENDCHAR
STARTCHAR emdash
ENCODING 8212
SWIDTH 1000 0
DWIDTH 8 0
BBX 8 1 0 2
BITMAP
57777775
ENDCHAR
STARTCHAR uni2015
ENCODING 8213
SWIDTH 940 0
DWIDTH 8 0
BBX 8 1 0 2
BITMAP
77777774
ENDCHAR
STARTCHAR uni2016
ENCODING 8214
SWIDTH 427 0
DWIDTH 3 0
BBX 3 8 0 -2
BITMAP
2470
2470
2470
2470
2470
2470
2470
2470
ENDCHAR
STARTCHAR underscoredbl
ENCODING 8215
SWIDTH 512 0
DWIDTH 4 0
BBX 5 2 0 -2
BITMAP
666610
666610
ENDCHAR
STARTCHAR quoteleft
ENCODING 8216
SWIDTH 245 0
DWIDTH 2 0
BBX 2 2 0 4
BITMAP
42
66
ENDCHAR
STARTCHAR quoteright
ENCODING 8217
SWIDTH 245 0
DWIDTH 2 0
BBX 2 2 0 4
BITMAP
75
23
ENDCHAR
STARTCHAR quotesinglbase
ENCODING 8218
SWIDTH 243 0
DWIDTH 2 0
BBX 2 2 0 -1
BITMAP
75
23
ENDCHAR
STARTCHAR quotereversed
ENCODING 8219
SWIDTH 243 0
DWIDTH 2 0
BBX 2 2 0 4
BITMAP
66
32
ENDCHAR
STARTCHAR quotedblleft
ENCODING 8220
SWIDTH 435 0
DWIDTH 3 0
BBX 3 2 0 4
BITMAP
4260
66B0
ENDCHAR
STARTCHAR quotedblright
ENCODING 8221
SWIDTH 434 0
DWIDTH 3 0
BBX 3 2 0 4
BITMAP
76C0
2350
ENDCHAR
STARTCHAR quotedblbase
ENCODING 8222
SWIDTH 433 0
DWIDTH 3 0
BBX 3 2 0 -1
BITMAP
75B0
2460
ENDCHAR
STARTCHAR uni201F
ENCODING 8223
SWIDTH 434 0
DWIDTH 3 0
BBX 3 2 0 4
BITMAP
66C0
3250
ENDCHAR
STARTCHAR dagger
ENCODING 8224
SWIDTH 512 0
DWIDTH 4 0
BBX 4 8 0 -2
BITMAP
0450
0130
5786
0340
0450
0130
0020
0010
ENDCHAR
STARTCHAR daggerdbl
ENCODING 8225
SWIDTH 512 0
DWIDTH 4 0
BBX 4 8 0 -2
BITMAP
0450
0130
5886
0340
0240
5566
0450
0110
ENDCHAR
STARTCHAR bullet
ENCODING 8226
SWIDTH 457 0
DWIDTH 4 0
BBX 2 2 1 1
BITMAP
E9
D9
ENDCHAR
STARTCHAR twodotenleader
ENCODING 8229
SWIDTH 500 0
DWIDTH 4 0
BBX 4 1 0 0
BITMAP
7227
ENDCHAR
STARTCHAR ellipsis
ENCODING 8230
SWIDTH 887 0
DWIDTH 7 0
BBX 7 1 0 0
BITMAP
290A0820
ENDCHAR
STARTCHAR uni202F
ENCODING 8239
SWIDTH 125 0
DWIDTH 1 0
BBX 1 1 0 0
BITMAP
00
ENDCHAR
STARTCHAR perthousand
ENCODING 8240
SWIDTH 1017 0
DWIDTH 8 0
BBX 8 5 0 0
BITMAP
46755000
80470000
34655053
01582644
06085463
ENDCHAR
STARTCHAR uni2031
ENCODING 8241
SWIDTH 1342 0
DWIDTH 11 0
BBX 11 5 0 0
BITMAP
467550000000
804700000000
346550532510
015826448040
060854637510
ENDCHAR
STARTCHAR minute
ENCODING 8242
SWIDTH 296 0
DWIDTH 2 0
BBX 2 3 0 3
BITMAP
09
35
20
ENDCHAR
STARTCHAR second
ENCODING 8243
SWIDTH 436 0
DWIDTH 3 0
BBX 3 3 0 3
BITMAP
0990
3660
2200
ENDCHAR
STARTCHAR uni2034
ENCODING 8244
SWIDTH 576 0
DWIDTH 5 0
BBX 4 3 0 3
BITMAP
0999
3678
2221
ENDCHAR
STARTCHAR uni2035
ENCODING 8245
SWIDTH 296 0
DWIDTH 2 0
BBX 2 3 0 3
BITMAP
54
17
03
ENDCHAR
STARTCHAR uni2036
ENCODING 8246
SWIDTH 436 0
DWIDTH 3 0
BBX 3 3 0 3
BITMAP
5860
1880
0320
ENDCHAR
STARTCHAR uni2037
ENCODING 8247
SWIDTH 576 0
DWIDTH 5 0
BBX 4 3 0 3
BITMAP
5888
1888
0322
ENDCHAR
STARTCHAR uni2038
ENCODING 8248
SWIDTH 523 0
DWIDTH 4 0
BBX 4 3 0 -2
BITMAP
0560
3424
1001
ENDCHAR
STARTCHAR guilsinglleft
ENCODING 8249
SWIDTH 307 0
DWIDTH 2 0
BBX 2 4 0 0
BITMAP
03
45
64
04
ENDCHAR
STARTCHAR guilsinglright
ENCODING 8250
SWIDTH 307 0
DWIDTH 2 0
BBX 3 4 0 0
BITMAP
2000
1700
0810
3100
ENDCHAR
STARTCHAR uni203B
ENCODING 8251
SWIDTH 701 0
DWIDTH 6 0
BBX 5 5 0 0
BITMAP
458380
054710
46A5A0
053720
458380
ENDCHAR
STARTCHAR exclamdbl
ENCODING 8252
SWIDTH 565 0
DWIDTH 5 0
BBX 4 5 0 0
BITMAP
470B
370B
2608
0303
370A
ENDCHAR
STARTCHAR uni203E
ENCODING 8254
SWIDTH 512 0
DWIDTH 4 0
BBX 5 1 0 6
BITMAP
666610
ENDCHAR
STARTCHAR uni2040
ENCODING 8256
SWIDTH 810 0
DWIDTH 6 0
BBX 6 2 0 4
BITMAP
048871
230014
ENDCHAR
STARTCHAR uni2043
ENCODING 8259
SWIDTH 352 0
DWIDTH 3 0
BBX 3 3 0 1
BITMAP
1110
9F60
2420
ENDCHAR
STARTCHAR fraction
ENCODING 8260
SWIDTH 205 0
DWIDTH 2 0
BBX 4 6 -1 0
BITMAP
0016
0060
0240
0600
3300
6000
ENDCHAR
STARTCHAR uni2047
ENCODING 8263
SWIDTH 822 0
DWIDTH 7 0
BBX 7 5 0 0
BITMAP
75946920
50A32740
03500800
03002100
09006400
ENDCHAR
STARTCHAR uni204B
ENCODING 8267
SWIDTH 605 0
DWIDTH 5 0
BBX 5 7 0 -2
BITMAP
2BA810
088450
088630
089300
088000
088000
288200
ENDCHAR
STARTCHAR uni204C
ENCODING 8268
SWIDTH 479 0
DWIDTH 4 0
BBX 4 3 0 1
BITMAP
1841
4E40
0841
ENDCHAR
STARTCHAR uni204D
ENCODING 8269
SWIDTH 479 0
DWIDTH 4 0
BBX 4 3 0 1
BITMAP
2570
05F1
2570
ENDCHAR
STARTCHAR uni204E
ENCODING 8270
SWIDTH 410 0
DWIDTH 3 0
BBX 3 3 0 -1
BITMAP
6970
5870
0700
ENDCHAR
STARTCHAR uni204F
ENCODING 8271
SWIDTH 245 0
DWIDTH 2 0
BBX 2 5 0 -1
BITMAP
65
00
00
65
52
ENDCHAR
STARTCHAR uni2050
ENCODING 8272
SWIDTH 809 0
DWIDTH 6 0
BBX 6 6 0 0
BITMAP
067782
430007
000000
100001
450018
037760
ENDCHAR
STARTCHAR uni2051
ENCODING 8273
SWIDTH 410 0
DWIDTH 3 0
BBX 3 7 0 -1
BITMAP
0700
6870
5970
0000
6970
5870
0700
ENDCHAR
STARTCHAR uni2052
ENCODING 8274
SWIDTH 482 0
DWIDTH 4 0
BBX 4 8 0 -2
BITMAP
5444
0080
0080
0360
0710
0900
2700
6263
ENDCHAR
STARTCHAR uni2057
ENCODING 8279
SWIDTH 727 0
DWIDTH 6 0
BBX 6 3 0 3
BITMAP
099973
367880
222120
ENDCHAR
STARTCHAR uni205F
ENCODING 8287
SWIDTH 222 0
DWIDTH 2 0
BBX 1 1 0 0
BITMAP
00
ENDCHAR
STARTCHAR uni2061
ENCODING 8289
SWIDTH 0 0
DWIDTH 0 0
BBX 1 1 0 0
BITMAP
00
ENDCHAR
STARTCHAR uni2062
ENCODING 8290
SWIDTH 0 0
DWIDTH 0 0
BBX 1 1 0 0
BITMAP
00
ENDCHAR
STARTCHAR uni2063
ENCODING 8291
SWIDTH 0 0
DWIDTH 0 0
BBX 1 1 0 0
BITMAP
00
ENDCHAR
STARTCHAR uni2064
ENCODING 8292
SWIDTH 0 0
DWIDTH 0 0
BBX 1 1 0 0
BITMAP
00
ENDCHAR
STARTCHAR zerosuperior
ENCODING 8304
SWIDTH 412 0
DWIDTH 3 0
BBX 3 4 0 2
BITMAP
4560
9080
9080
4560
ENDCHAR
STARTCHAR uni2071
ENCODING 8305
SWIDTH 245 0
DWIDTH 2 0
BBX 2 4 0 2
BITMAP
33
64
44
76
ENDCHAR
STARTCHAR foursuperior
ENCODING 8308
SWIDTH 403 0
DWIDTH 3 0
BBX 4 4 0 2
BITMAP
0570
3470
88B1
0270
ENDCHAR
STARTCHAR fivesuperior
ENCODING 8309
SWIDTH 358 0
DWIDTH 3 0
BBX 3 4 0 2
BITMAP
5830
5820
0070
5530
ENDCHAR
STARTCHAR sixsuperior
ENCODING 8310
SWIDTH 390 0
DWIDTH 3 0
BBX 3 4 0 2
BITMAP
1620
9650
9090
5570
ENDCHAR
STARTCHAR sevensuperior
ENCODING 8311
SWIDTH 364 0
DWIDTH 3 0
BBX 3 4 0 2
BITMAP
7890
0250
0700
0700
ENDCHAR
STARTCHAR eightsuperior
ENCODING 8312
SWIDTH 374 0
DWIDTH 3 0
BBX 3 4 0 2
BITMAP
6350
7740
5580
7360
ENDCHAR
STARTCHAR ninesuperior
ENCODING 8313
SWIDTH 390 0
DWIDTH 3 0
BBX 3 4 0 2
BITMAP
6560
90A0
46A0
2630
ENDCHAR
STARTCHAR uni207A
ENCODING 8314
SWIDTH 536 0
DWIDTH 4 0
BBX 4 4 0 2
BITMAP
0130
0160
4795
0160
ENDCHAR
STARTCHAR uni207B
ENCODING 8315
SWIDTH 536 0
DWIDTH 4 0
BBX 4 1 0 3
BITMAP
4665
ENDCHAR
STARTCHAR uni207C
ENCODING 8316
SWIDTH 534 0
DWIDTH 4 0
BBX 4 2 0 2
BITMAP
4666
4666
ENDCHAR
STARTCHAR parenleftsuperior
ENCODING 8317
SWIDTH 268 0
DWIDTH 2 0
BBX 2 6 0 1
BITMAP
03
52
80
80
61
05
ENDCHAR
STARTCHAR parenrightsuperior
ENCODING 8318
SWIDTH 268 0
DWIDTH 2 0
BBX 2 6 0 1
BITMAP
30
16
08
08
07
41
ENDCHAR
STARTCHAR nsuperior
ENCODING 8319
SWIDTH 491 0
DWIDTH 4 0
BBX 4 3 0 2
BITMAP
7792
5454
7676
ENDCHAR
STARTCHAR zeroinferior
ENCODING 8320
SWIDTH 412 0
DWIDTH 3 0
BBX 3 4 0 -2
BITMAP
4560
9080
9080
4560
ENDCHAR
STARTCHAR oneinferior
ENCODING 8321
SWIDTH 333 0
DWIDTH 3 0
BBX 3 4 0 -2
BITMAP
3900
0900
0900
2B10
ENDCHAR
STARTCHAR twoinferior
ENCODING 8322
SWIDTH 373 0
DWIDTH 3 0
BBX 3 4 0 -2
BITMAP
4860
0180
0610
8880
ENDCHAR
STARTCHAR threeinferior
ENCODING 8323
SWIDTH 374 0
DWIDTH 3 0
BBX 3 4 0 -2
BITMAP
3840
1930
0090
6540
ENDCHAR
STARTCHAR fourinferior
ENCODING 8324
SWIDTH 403 0
DWIDTH 3 0
BBX 4 4 0 -2
BITMAP
0570
3470
88B1
0270
ENDCHAR
STARTCHAR fiveinferior
ENCODING 8325
SWIDTH 358 0
DWIDTH 3 0
BBX 3 4 0 -2
BITMAP
5830
5820
0070
5530
ENDCHAR
STARTCHAR sixinferior
ENCODING 8326
SWIDTH 390 0
DWIDTH 3 0
BBX 3 4 0 -2
BITMAP
1620
9650
9090
5570
ENDCHAR
STARTCHAR seveninferior
ENCODING 8327
SWIDTH 364 0
DWIDTH 3 0
BBX 3 4 0 -2
BITMAP
7890
0250
0700
0700
ENDCHAR
STARTCHAR eightinferior
ENCODING 8328
SWIDTH 374 0
DWIDTH 3 0
BBX 3 4 0 -2
BITMAP
6350
7740
5580
7360
ENDCHAR
STARTCHAR nineinferior
ENCODING 8329
SWIDTH 390 0
DWIDTH 3 0
BBX 3 4 0 -2
BITMAP
6560
90A0
46A0
2630
ENDCHAR
STARTCHAR uni208A
ENCODING 8330
SWIDTH 536 0
DWIDTH 4 0
BBX 4 4 0 -2
BITMAP
0130
0160
4795
0160
ENDCHAR
STARTCHAR uni208B
ENCODING 8331
SWIDTH 536 0
DWIDTH 4 0
BBX 4 1 0 -1
BITMAP
4665
ENDCHAR
STARTCHAR uni208C
ENCODING 8332
SWIDTH 534 0
DWIDTH 4 0
BBX 4 2 0 -2
BITMAP
4666
4666
ENDCHAR
STARTCHAR parenleftinferior
ENCODING 8333
SWIDTH 268 0
DWIDTH 2 0
BBX 2 6 0 -3
BITMAP
03
52
80
80
61
05
ENDCHAR
STARTCHAR parenrightinferior
ENCODING 8334
SWIDTH 268 0
DWIDTH 2 0
BBX 2 6 0 -3
BITMAP
30
16
08
08
07
41
ENDCHAR
STARTCHAR uni20A3
ENCODING 8355
SWIDTH 495 0
DWIDTH 4 0
BBX 4 6 0 0
BITMAP
5867
2904
2900
5B50
2900
5C20
ENDCHAR
STARTCHAR uni20A4
ENCODING 8356
SWIDTH 495 0
DWIDTH 4 0
BBX 4 5 0 0
BITMAP
0765
3C50
3C50
0900
5885
ENDCHAR
STARTCHAR uni20A7
ENCODING 8359
SWIDTH 1193 0
DWIDTH 10 0
BBX 10 6 0 0
BITMAP
3955010000
0B0A360000
0B095A2882
0C53371B30
0B003712B3
3D201A5772
ENDCHAR
STARTCHAR uni20AB
ENCODING 8363
SWIDTH 495 0
DWIDTH 4 0
BBX 4 5 0 0
BITMAP
03B5
36B2
9082
9182
4CC6
ENDCHAR
STARTCHAR Euro
ENCODING 8364
SWIDTH 495 0
DWIDTH 4 0
BBX 4 5 0 0
BITMAP
1858
9853
9740
4701
0A95
ENDCHAR
STARTCHAR uni20B9
ENCODING 8377
SWIDTH 495 0
DWIDTH 4 0
BBX 4 6 0 0
BITMAP
3693
35D3
00A0
3A20
03A0
0056
ENDCHAR
STARTCHAR uni20BA
ENCODING 8378
SWIDTH 495 0
DWIDTH 4 0
BBX 4 6 0 0
BITMAP
5810
2800
6B40
6B41
380B
6A75
ENDCHAR
STARTCHAR uni20BD
ENCODING 8381
SWIDTH 495 0
DWIDTH 4 0
BBX 4 6 0 0
BITMAP
5872
291B
291A
5B61
5B50
5B10
ENDCHAR
STARTCHAR uni20D0
ENCODING 8400
SWIDTH 0 0
DWIDTH 0 0
BBX 4 2 -4 5
BITMAP
0200
5765
ENDCHAR
STARTCHAR uni20D1
ENCODING 8401
SWIDTH 0 0
DWIDTH 0 0
BBX 4 2 -4 5
BITMAP
0011
3667
ENDCHAR
STARTCHAR uni20D2
ENCODING 8402
SWIDTH 0 0
DWIDTH 0 0
BBX 2 7 -3 -1
BITMAP
15
15
15
15
15
15
15
ENDCHAR
STARTCHAR uni20D3
ENCODING 8403
SWIDTH 0 0
DWIDTH 0 0
BBX 2 6 -3 -1
BITMAP
03
15
15
15
15
15
ENDCHAR
STARTCHAR uni20D4
ENCODING 8404
SWIDTH 0 0
DWIDTH 0 0
BBX 5 3 -5 4
BITMAP
005520
261060
072020
ENDCHAR
STARTCHAR uni20D5
ENCODING 8405
SWIDTH 0 0
DWIDTH 0 0
BBX 5 3 -4 4
BITMAP
055100
510530
201620
ENDCHAR
STARTCHAR uni20D6
ENCODING 8406
SWIDTH 0 0
DWIDTH 0 0
BBX 4 3 -4 4
BITMAP
0200
6765
0200
ENDCHAR
STARTCHAR uni20D7
ENCODING 8407
SWIDTH 0 0
DWIDTH 0 0
BBX 4 3 -4 4
BITMAP
0011
366A
0011
ENDCHAR
STARTCHAR uni20D8
ENCODING 8408
SWIDTH 0 0
DWIDTH 0 0
BBX 3 3 -3 1
BITMAP
5710
7250
6710
ENDCHAR
STARTCHAR uni20D9
ENCODING 8409
SWIDTH 0 0
DWIDTH 0 0
BBX 3 3 -3 1
BITMAP
5620
7560
6710
ENDCHAR
STARTCHAR uni20DA
ENCODING 8410
SWIDTH 0 0
DWIDTH 0 0
BBX 3 3 -3 1
BITMAP
6710
7560
6720
ENDCHAR
STARTCHAR uni20DB
ENCODING 8411
SWIDTH 0 0
DWIDTH 0 0
BBX 5 1 -4 4
BITMAP
725610
ENDCHAR
STARTCHAR uni20DC
ENCODING 8412
SWIDTH 0 0
DWIDTH 0 0
BBX 6 1 -5 4
BITMAP
717437
ENDCHAR
STARTCHAR uni20DD
ENCODING 8413
SWIDTH 0 0
DWIDTH 0 0
BBX 8 8 -6 -2
BITMAP
00599710
08400291
54000018
90000008
90000008
54000018
08400291
00599710
ENDCHAR
STARTCHAR uni20DE
ENCODING 8414
SWIDTH 0 0
DWIDTH 0 0
BBX 9 8 -6 -2
BITMAP
8888888A10
8000000710
8000000710
8000000710
8000000710
8000000710
8000000710
8888888A10
ENDCHAR
STARTCHAR uni20DF
ENCODING 8415
SWIDTH 0 0
DWIDTH 0 0
BBX 10 10 -7 -3
BITMAP
0000480000
0004748000
0047004800
0470000480
4700000048
3800000057
0380000570
0038005700
0003857000
0000370000
ENDCHAR
STARTCHAR uni20E1
ENCODING 8417
SWIDTH 0 0
DWIDTH 0 0
BBX 4 3 -4 4
BITMAP
1202
966A
1202
ENDCHAR
STARTCHAR uni20E4
ENCODING 8420
SWIDTH 0 0
DWIDTH 0 0
BBX 12 10 -8 -1
BITMAP
000002500000
00000AB10000
000056380000
0001A0083000
00093001A000
003800004700
00A100000920
0750000001A0
2A0000000065
79888888888A
ENDCHAR
STARTCHAR uni20E5
ENCODING 8421
SWIDTH 0 0
DWIDTH 0 0
BBX 4 7 -4 -1
BITMAP
2100
1600
0700
0340
0070
0052
0007
ENDCHAR
STARTCHAR uni20E6
ENCODING 8422
SWIDTH 0 0
DWIDTH 0 0
BBX 3 7 -3 -1
BITMAP
3210
6420
6420
6420
6420
6420
6420
ENDCHAR
STARTCHAR uni20E7
ENCODING 8423
SWIDTH 0 0
DWIDTH 0 0
BBX 7 8 -5 -2
BITMAP
88888870
00000080
00000080
00000080
00000080
00000080
00000080
00000060
ENDCHAR
STARTCHAR uni20E8
ENCODING 8424
SWIDTH 0 0
DWIDTH 0 0
BBX 5 1 -4 -2
BITMAP
725610
ENDCHAR
STARTCHAR uni20E9
ENCODING 8425
SWIDTH 0 0
DWIDTH 0 0
BBX 5 2 -4 4
BITMAP
877740
300120
ENDCHAR
STARTCHAR uni20EA
ENCODING 8426
SWIDTH 0 0
DWIDTH 0 0
BBX 8 3 -6 1
BITMAP
01300000
1C988881
01300000
ENDCHAR
STARTCHAR uni20EB
ENCODING 8427
SWIDTH 0 0
DWIDTH 0 0
BBX 6 8 -5 -2
BITMAP
000516
000742
003470
007250
016600
061600
075200
437000
ENDCHAR
STARTCHAR uni20EC
ENCODING 8428
SWIDTH 0 0
DWIDTH 0 0
BBX 4 2 -4 -3
BITMAP
3668
0011
ENDCHAR
STARTCHAR uni20ED
ENCODING 8429
SWIDTH 0 0
DWIDTH 0 0
BBX 4 2 -4 -3
BITMAP
5765
0200
ENDCHAR
STARTCHAR uni20EE
ENCODING 8430
SWIDTH 0 0
DWIDTH 0 0
BBX 4 3 -4 -3
BITMAP
0200
6765
0200
ENDCHAR
STARTCHAR uni20EF
ENCODING 8431
SWIDTH 0 0
DWIDTH 0 0
BBX 4 3 -4 -3
BITMAP
0011
366A
0011
ENDCHAR
STARTCHAR uni20F0
ENCODING 8432
SWIDTH 0 0
DWIDTH 0 0
BBX 3 3 -3 4
BITMAP
0300
6910
4710
ENDCHAR
STARTCHAR uni2100
ENCODING 8448
SWIDTH 939 0
DWIDTH 8 0
BBX 8 6 0 0
BITMAP
35400500
23902400
72906460
45764531
00153701
00500861
ENDCHAR
STARTCHAR uni2101
ENCODING 8449
SWIDTH 936 0
DWIDTH 7 0
BBX 8 6 0 0
BITMAP
35400500
24903300
81906770
46761A40
001502A2
00400650
ENDCHAR
STARTCHAR uni2102
ENCODING 8450
SWIDTH 695 0
DWIDTH 6 0
BBX 6 6 0 0
BITMAP
035530
380031
650000
650000
380041
035530
ENDCHAR
STARTCHAR uni2103
ENCODING 8451
SWIDTH 1028 0
DWIDTH 8 0
BBX 8 6 0 0
BITMAP
27400000
70718679
27484006
000B2000
00085001
0001A974
ENDCHAR
STARTCHAR uni2104
ENCODING 8452
SWIDTH 646 0
DWIDTH 5 0
BBX 5 6 0 0
BITMAP
176000
4CA300
B74100
AA5100
1A8060
177670
ENDCHAR
STARTCHAR uni2105
ENCODING 8453
SWIDTH 953 0
DWIDTH 8 0
BBX 8 6 0 0
BITMAP
15501400
70206000
91234550
39468163
00518163
00401540
ENDCHAR
STARTCHAR uni2106
ENCODING 8454
SWIDTH 1072 0
DWIDTH 9 0
BBX 9 6 0 0
BITMAP
1550050000
7030510000
9111551500
2846090900
0033090900
0040046810
ENDCHAR
STARTCHAR uni2107
ENCODING 8455
SWIDTH 612 0
DWIDTH 5 0
BBX 5 6 0 0
BITMAP
295760
660040
1B7100
A50000
950370
175610
ENDCHAR
STARTCHAR uni2108
ENCODING 8456
SWIDTH 669 0
DWIDTH 5 0
BBX 5 6 0 0
BITMAP
675710
6002A0
0095D0
0040D0
300680
178700
ENDCHAR
STARTCHAR uni2109
ENCODING 8457
SWIDTH 949 0
DWIDTH 8 0
BBX 8 6 0 0
BITMAP
27400000
7075C566
2741A050
0001C680
0001A000
0005C200
ENDCHAR
STARTCHAR uni210A
ENCODING 8458
SWIDTH 657 0
DWIDTH 5 0
BBX 6 6 -1 -2
BITMAP
000584
007264
05B1C4
21A6A0
072280
036500
ENDCHAR
STARTCHAR uni210B
ENCODING 8459
SWIDTH 951 0
DWIDTH 8 0
BBX 8 6 0 0
BITMAP
02491057
18090620
00395A00
00622800
20603710
64101730
ENDCHAR
STARTCHAR uni210C
ENCODING 8460
SWIDTH 728 0
DWIDTH 6 0
BBX 6 8 0 -2
BITMAP
001010
04A910
0B1860
0991B4
13A076
4A2092
05B730
011100
ENDCHAR
STARTCHAR uni210D
ENCODING 8461
SWIDTH 715 0
DWIDTH 6 0
BBX 6 6 0 0
BITMAP
460271
550262
550262
565762
550262
460271
ENDCHAR
STARTCHAR uni210E
ENCODING 8462
SWIDTH 569 0
DWIDTH 5 0
BBX 5 6 0 0
BITMAP
071000
0A0000
0A4900
2B2A00
661900
612910
ENDCHAR
STARTCHAR uni210F
ENCODING 8463
SWIDTH 569 0
DWIDTH 5 0
BBX 5 6 0 0
BITMAP
061000
0A4100
394900
2B2A00
561900
612910
ENDCHAR
STARTCHAR uni2110
ENCODING 8464
SWIDTH 496 0
DWIDTH 4 0
BBX 4 6 0 0
BITMAP
0248
2629
1246
0072
2080
7510
ENDCHAR
STARTCHAR uni2111
ENCODING 8465
SWIDTH 673 0
DWIDTH 5 0
BBX 5 6 0 -1
BITMAP
1AC320
541960
151B20
3A1790
185390
017510
ENDCHAR
STARTCHAR uni2112
ENCODING 8466
SWIDTH 699 0
DWIDTH 6 0
BBX 5 6 0 0
BITMAP
003640
018140
055000
081010
5A2050
418940
ENDCHAR
STARTCHAR uni2113
ENCODING 8467
SWIDTH 529 0
DWIDTH 4 0
BBX 4 6 0 0
BITMAP
0036
0265
0834
4920
5340
2620
ENDCHAR
STARTCHAR uni2114
ENCODING 8468
SWIDTH 787 0
DWIDTH 6 0
BBX 6 6 0 0
BITMAP
566500
262875
37470C
37460A
374609
472752
ENDCHAR
STARTCHAR uni2115
ENCODING 8469
SWIDTH 692 0
DWIDTH 6 0
BBX 5 6 0 0
BITMAP
460030
655050
555350
506660
5016A0
300370
ENDCHAR
STARTCHAR uni2116
ENCODING 8470
SWIDTH 1070 0
DWIDTH 9 0
BBX 9 6 0 0
BITMAP
0740057000
05B1237500
0548437440
0518737440
3501C24400
8300426610
ENDCHAR
STARTCHAR uni2117
ENCODING 8471
SWIDTH 781 0
DWIDTH 6 0
BBX 6 6 0 0
BITMAP
024430
257554
509525
508005
258124
024430
ENDCHAR
STARTCHAR uni2118
ENCODING 8472
SWIDTH 846 0
DWIDTH 7 0
BBX 7 7 0 -2
BITMAP
04620000
48035520
83770470
2A841820
1B844300
37800000
16300000
ENDCHAR
STARTCHAR uni2119
ENCODING 8473
SWIDTH 665 0
DWIDTH 5 0
BBX 5 6 0 0
BITMAP
475630
550570
550560
565630
550000
460000
ENDCHAR
STARTCHAR uni211A
ENCODING 8474
SWIDTH 751 0
DWIDTH 6 0
BBX 6 7 0 -1
BITMAP
035630
290092
650056
550056
550056
0766A2
001363
ENDCHAR
STARTCHAR uni211B
ENCODING 8475
SWIDTH 789 0
DWIDTH 6 0
BBX 6 6 0 0
BITMAP
014962
19282A
125554
008940
207291
740084
ENDCHAR
STARTCHAR uni211C
ENCODING 8476
SWIDTH 778 0
DWIDTH 6 0
BBX 6 6 0 0
BITMAP
255690
94D2A2
2BB690
14B3C0
1470E1
391084
ENDCHAR
STARTCHAR uni211D
ENCODING 8477
SWIDTH 729 0
DWIDTH 6 0
BBX 6 6 0 0
BITMAP
475630
550560
550570
567830
551660
460264
ENDCHAR
STARTCHAR uni211E
ENCODING 8478
SWIDTH 725 0
DWIDTH 6 0
BBX 6 7 0 -1
BITMAP
385600
0B0760
0B0840
0C9701
0B1B61
383582
001000
ENDCHAR
STARTCHAR uni211F
ENCODING 8479
SWIDTH 659 0
DWIDTH 5 0
BBX 6 9 0 -2
BITMAP
006400
385900
0B3D40
0B6830
0CC600
0D2B20
3B2271
052000
045000
ENDCHAR
STARTCHAR uni2120
ENCODING 8480
SWIDTH 937 0
DWIDTH 8 0
BBX 8 4 0 2
BITMAP
68571081
55057480
23647580
54362271
ENDCHAR
STARTCHAR uni2121
ENCODING 8481
SWIDTH 1200 0
DWIDTH 10 0
BBX 10 4 0 2
BITMAP
5654543700
0802860800
0802611801
0713543742
ENDCHAR
STARTCHAR trademark
ENCODING 8482
SWIDTH 881 0
DWIDTH 7 0
BBX 7 3 0 2
BITMAP
56572360
18158570
16054350
ENDCHAR
STARTCHAR uni2123
ENCODING 8483
SWIDTH 680 0
DWIDTH 5 0
BBX 6 9 0 -2
BITMAP
006300
770682
3A2470
0B7340
068600
05C600
058100
052000
055000
ENDCHAR
STARTCHAR uni2124
ENCODING 8484
SWIDTH 648 0
DWIDTH 5 0
BBX 5 6 0 0
BITMAP
355770
003560
016700
065200
454000
775550
ENDCHAR
STARTCHAR uni2125
ENCODING 8485
SWIDTH 434 0
DWIDTH 3 0
BBX 4 8 0 -2
BITMAP
5480
1840
3880
0A30
02A0
0093
00A0
5520
ENDCHAR
STARTCHAR uni2126
ENCODING 8486
SWIDTH 763 0
DWIDTH 6 0
BBX 6 6 0 0
BITMAP
036640
3A0094
860059
690077
284382
9A76AA
ENDCHAR
STARTCHAR uni2127
ENCODING 8487
SWIDTH 763 0
DWIDTH 6 0
BBX 6 6 0 0
BITMAP
9A76AA
274382
690077
860059
3A0094
036540
ENDCHAR
STARTCHAR uni2128
ENCODING 8488
SWIDTH 641 0
DWIDTH 5 0
BBX 5 8 0 -2
BITMAP
036710
130670
010660
019B10
010580
3A02B0
193370
027500
ENDCHAR
STARTCHAR uni2129
ENCODING 8489
SWIDTH 368 0
DWIDTH 3 0
BBX 3 5 0 -1
BITMAP
3810
1C40
0C40
0C40
0210
ENDCHAR
STARTCHAR uni212A
ENCODING 8490
SWIDTH 702 0
DWIDTH 6 0
BBX 6 5 0 0
BITMAP
3D2781
0B3400
0CA000
0B4A00
3D27B2
ENDCHAR
STARTCHAR uni212B
ENCODING 8491
SWIDTH 722 0
DWIDTH 6 0
BBX 6 7 0 0
BITMAP
005300
007500
009700
032B00
065950
2501C0
640294
ENDCHAR
STARTCHAR uni212C
ENCODING 8492
SWIDTH 754 0
DWIDTH 6 0
BBX 6 6 0 0
BITMAP
036963
284637
007691
007047
024073
5A8730
ENDCHAR
STARTCHAR uni212D
ENCODING 8493
SWIDTH 639 0
DWIDTH 5 0
BBX 5 6 0 0
BITMAP
064840
567410
939500
942B00
4B3430
07B800
ENDCHAR
STARTCHAR estimated
ENCODING 8494
SWIDTH 863 0
DWIDTH 7 0
BBX 7 6 0 0
BITMAP
01444200
27000820
99444750
97000000
29000500
01545100
ENDCHAR
STARTCHAR uni212F
ENCODING 8495
SWIDTH 527 0
DWIDTH 4 0
BBX 4 5 0 0
BITMAP
0154
0747
3C80
8615
1860
ENDCHAR
STARTCHAR uni2130
ENCODING 8496
SWIDTH 572 0
DWIDTH 5 0
BBX 5 6 0 0
BITMAP
026620
0A1230
067200
840000
A20600
265200
ENDCHAR
STARTCHAR uni2131
ENCODING 8497
SWIDTH 713 0
DWIDTH 6 0
BBX 7 6 0 0
BITMAP
025A8710
190A0000
005B4000
00440000
20700000
74100000
ENDCHAR
STARTCHAR uni2132
ENCODING 8498
SWIDTH 588 0
DWIDTH 5 0
BBX 5 6 0 0
BITMAP
005820
001A00
221A00
286A00
401A00
766820
ENDCHAR
STARTCHAR uni2133
ENCODING 8499
SWIDTH 1038 0
DWIDTH 8 0
BBX 9 6 0 0
BITMAP
0492003750
026A03B200
005B15A000
005970A000
2328629000
7305118300
ENDCHAR
STARTCHAR uni2134
ENCODING 8500
SWIDTH 691 0
DWIDTH 6 0
BBX 7 5 -1 0
BITMAP
00047000
00357530
01D14A20
19B06300
10364000
ENDCHAR
STARTCHAR uni2135
ENCODING 8501
SWIDTH 698 0
DWIDTH 6 0
BBX 6 6 0 0
BITMAP
610440
5C11D1
1BC271
764D30
2C13C1
271031
ENDCHAR
STARTCHAR uni2136
ENCODING 8502
SWIDTH 654 0
DWIDTH 5 0
BBX 5 6 0 0
BITMAP
220000
3CDC20
000560
000250
000320
3BCD60
ENDCHAR
STARTCHAR uni2137
ENCODING 8503
SWIDTH 517 0
DWIDTH 4 0
BBX 4 6 0 0
BITMAP
0400
0AD0
0070
0060
00A7
4B28
ENDCHAR
STARTCHAR uni2138
ENCODING 8504
SWIDTH 613 0
DWIDTH 5 0
BBX 4 6 0 0
BITMAP
4000
6CDC
0007
0029
002B
0029
ENDCHAR
STARTCHAR uni2139
ENCODING 8505
SWIDTH 361 0
DWIDTH 3 0
BBX 3 6 0 0
BITMAP
3E10
2910
7F20
4F20
4F20
6A50
ENDCHAR
STARTCHAR uni213A
ENCODING 8506
SWIDTH 907 0
DWIDTH 7 0
BBX 8 6 0 0
BITMAP
00000021
07CB7051
650027B0
60000830
54003700
07BB8100
ENDCHAR
STARTCHAR uni213B
ENCODING 8507
SWIDTH 1216 0
DWIDTH 10 0
BBX 10 4 0 2
BITMAP
4550903642
4653830850
44175907A0
4515075264
ENDCHAR
STARTCHAR uni213C
ENCODING 8508
SWIDTH 689 0
DWIDTH 6 0
BBX 5 4 0 0
BITMAP
487750
186700
186700
172550
ENDCHAR
STARTCHAR uni213D
ENCODING 8509
SWIDTH 552 0
DWIDTH 4 0
BBX 5 6 0 -2
BITMAP
650320
464600
069100
029400
056600
027100
ENDCHAR
STARTCHAR uni213E
ENCODING 8510
SWIDTH 550 0
DWIDTH 4 0
BBX 5 6 0 0
BITMAP
475520
550000
550000
550000
550000
460000
ENDCHAR
STARTCHAR uni213F
ENCODING 8511
SWIDTH 714 0
DWIDTH 6 0
BBX 6 6 0 0
BITMAP
475671
550362
550362
550362
550362
460271
ENDCHAR
STARTCHAR uni2140
ENCODING 8512
SWIDTH 945 0
DWIDTH 8 0
BBX 8 9 0 -2
BITMAP
58977720
17530000
06280000
00826000
00538000
00826000
06380000
17530000
58977772
ENDCHAR
STARTCHAR uni2141
ENCODING 8513
SWIDTH 711 0
DWIDTH 6 0
BBX 6 6 0 0
BITMAP
299930
7401B1
5A1056
100056
5401B1
089920
ENDCHAR
STARTCHAR uni2142
ENCODING 8514
SWIDTH 572 0
DWIDTH 5 0
BBX 4 6 0 0
BITMAP
799B
000B
000B
000B
000B
0008
ENDCHAR
STARTCHAR uni2143
ENCODING 8515
SWIDTH 572 0
DWIDTH 5 0
BBX 4 6 0 0
BITMAP
0008
000B
000B
000B
000B
799B
ENDCHAR
STARTCHAR uni2144
ENCODING 8516
SWIDTH 645 0
DWIDTH 5 0
BBX 5 6 0 0
BITMAP
005000
00B000
00B000
03D500
0A1A10
740290
ENDCHAR
STARTCHAR uni2145
ENCODING 8517
SWIDTH 717 0
DWIDTH 6 0
BBX 6 6 0 0
BITMAP
067530
164073
361066
660164
660490
675500
ENDCHAR
STARTCHAR uni2146
ENCODING 8518
SWIDTH 607 0
DWIDTH 5 0
BBX 5 6 0 0
BITMAP
000370
000560
075560
660750
663720
367700
ENDCHAR
STARTCHAR uni2147
ENCODING 8519
SWIDTH 520 0
DWIDTH 4 0
BBX 4 4 0 0
BITMAP
0450
4766
8514
2650
ENDCHAR
STARTCHAR uni2148
ENCODING 8520
SWIDTH 285 0
DWIDTH 2 0
BBX 3 6 0 0
BITMAP
0640
0730
3700
5600
5600
6400
ENDCHAR
STARTCHAR uni2149
ENCODING 8521
SWIDTH 284 0
DWIDTH 2 0
BBX 5 8 -2 -2
BITMAP
000640
000730
002700
005600
006500
006500
018200
164000
ENDCHAR
STARTCHAR uni214A
ENCODING 8522
SWIDTH 680 0
DWIDTH 5 0
BBX 5 6 0 0
BITMAP
024000
79B850
826090
02B850
026000
029840
ENDCHAR
STARTCHAR uni214B
ENCODING 8523
SWIDTH 736 0
DWIDTH 6 0
BBX 6 6 0 0
BITMAP
3946A4
10D31A
062A54
282860
007090
003430
ENDCHAR
STARTCHAR uni214C
ENCODING 8524
SWIDTH 794 0
DWIDTH 6 0
BBX 6 6 0 0
BITMAP
361554
28A60C
477389
098854
054502
016100
ENDCHAR
STARTCHAR uni214D
ENCODING 8525
SWIDTH 1010 0
DWIDTH 8 0
BBX 8 6 0 0
BITMAP
06300240
04700600
34814666
515553A2
00060219
00130444
ENDCHAR
STARTCHAR uni214E
ENCODING 8526
SWIDTH 473 0
DWIDTH 4 0
BBX 3 5 0 0
BITMAP
0070
00A0
39D0
00A0
59B0
ENDCHAR
STARTCHAR uni214F
ENCODING 8527
SWIDTH 1161 0
DWIDTH 9 0
BBX 10 4 0 0
BITMAP
0792A37900
0776277700
0772947700
89998A99A1
ENDCHAR
STARTCHAR onethird
ENCODING 8531
SWIDTH 899 0
DWIDTH 7 0
BBX 7 6 0 0
BITMAP
00005100
29015000
09062640
27240080
00600660
03304560
ENDCHAR
STARTCHAR twothirds
ENCODING 8532
SWIDTH 948 0
DWIDTH 8 0
BBX 8 6 0 0
BITMAP
00001500
37706000
04424580
68760180
00330391
00600761
ENDCHAR
STARTCHAR uni2155
ENCODING 8533
SWIDTH 867 0
DWIDTH 7 0
BBX 7 6 0 0
BITMAP
00005100
29015000
09063840
27244820
00600070
03305540
ENDCHAR
STARTCHAR uni2156
ENCODING 8534
SWIDTH 916 0
DWIDTH 7 0
BBX 7 6 0 0
BITMAP
00001500
37706000
05524870
88760960
00330070
00602660
ENDCHAR
STARTCHAR uni2157
ENCODING 8535
SWIDTH 896 0
DWIDTH 7 0
BBX 7 6 0 0
BITMAP
00003300
38406000
16642960
54362950
00510070
01503550
ENDCHAR
STARTCHAR uni2158
ENCODING 8536
SWIDTH 929 0
DWIDTH 7 0
BBX 8 6 0 0
BITMAP
00000600
06606100
79B15780
01260970
00330061
00601660
ENDCHAR
STARTCHAR uni2159
ENCODING 8537
SWIDTH 871 0
DWIDTH 7 0
BBX 7 6 0 0
BITMAP
00005100
29015000
09061510
27249640
00609090
03306460
ENDCHAR
STARTCHAR uni215A
ENCODING 8538
SWIDTH 871 0
DWIDTH 7 0
BBX 7 6 0 0
BITMAP
00005200
6F506000
01662510
54259640
00609090
03306460
ENDCHAR
STARTCHAR oneeighth
ENCODING 8539
SWIDTH 887 0
DWIDTH 7 0
BBX 7 6 0 0
BITMAP
00005100
29015000
09063330
27246750
00605980
03306370
ENDCHAR
STARTCHAR threeeighths
ENCODING 8540
SWIDTH 911 0
DWIDTH 7 0
BBX 7 6 0 0
BITMAP
00003300
38406000
16643440
54364860
005139B0
01504470
ENDCHAR
STARTCHAR fiveeighths
ENCODING 8541
SWIDTH 891 0
DWIDTH 7 0
BBX 7 6 0 0
BITMAP
00005200
6F506000
00663330
65356750
00605990
03306370
ENDCHAR
STARTCHAR seveneighths
ENCODING 8542
SWIDTH 847 0
DWIDTH 7 0
BBX 7 6 0 0
BITMAP
00006000
88642000
06164410
2451A620
01507A20
06007540
ENDCHAR
STARTCHAR uni2190
ENCODING 8592
SWIDTH 948 0
DWIDTH 8 0
BBX 7 3 0 1
BITMAP
03400000
2E888880
02300000
ENDCHAR
STARTCHAR uni2191
ENCODING 8593
SWIDTH 523 0
DWIDTH 4 0
BBX 4 7 0 -1
BITMAP
0120
1791
1351
0350
0350
0350
0350
ENDCHAR
STARTCHAR uni2192
ENCODING 8594
SWIDTH 948 0
DWIDTH 8 0
BBX 7 3 0 1
BITMAP
00000500
48888BA0
00000500
ENDCHAR
STARTCHAR uni2193
ENCODING 8595
SWIDTH 523 0
DWIDTH 4 0
BBX 4 7 0 -1
BITMAP
0130
0360
0360
0360
1361
29B3
0470
ENDCHAR
STARTCHAR uni2194
ENCODING 8596
SWIDTH 948 0
DWIDTH 8 0
BBX 8 3 0 1
BITMAP
04200520
5D8889D1
04200510
ENDCHAR
STARTCHAR uni2195
ENCODING 8597
SWIDTH 523 0
DWIDTH 4 0
BBX 4 8 0 -2
BITMAP
0460
19B3
1361
0360
0360
1361
19B3
0460
ENDCHAR
STARTCHAR uni2196
ENCODING 8598
SWIDTH 948 0
DWIDTH 8 0
BBX 7 7 0 -2
BITMAP
4A400000
29500000
11650000
00074000
00008400
00000830
00000070
ENDCHAR
STARTCHAR uni2197
ENCODING 8599
SWIDTH 948 0
DWIDTH 8 0
BBX 7 7 0 -2
BITMAP
000026B0
00001970
00009220
00092000
00930000
08300000
34000000
ENDCHAR
STARTCHAR uni2198
ENCODING 8600
SWIDTH 948 0
DWIDTH 8 0
BBX 7 7 0 -1
BITMAP
22000000
19200000
01920000
001A2000
0001A210
00001A70
000026B0
ENDCHAR
STARTCHAR uni2199
ENCODING 8601
SWIDTH 948 0
DWIDTH 8 0
BBX 7 7 0 -1
BITMAP
00000040
00000660
00006600
00066000
11660000
29600000
4A400000
ENDCHAR
STARTCHAR uni219A
ENCODING 8602
SWIDTH 948 0
DWIDTH 8 0
BBX 8 5 0 0
BITMAP
00100200
04303400
3E88B881
04343000
00120000
ENDCHAR
STARTCHAR uni219B
ENCODING 8603
SWIDTH 948 0
DWIDTH 8 0
BBX 7 5 0 0
BITMAP
00010100
00070610
48AA8AC0
00700610
00100100
ENDCHAR
STARTCHAR uni219C
ENCODING 8604
SWIDTH 948 0
DWIDTH 8 0
BBX 7 3 0 0
BITMAP
4D506850
05683050
02000000
ENDCHAR
STARTCHAR uni219D
ENCODING 8605
SWIDTH 948 0
DWIDTH 8 0
BBX 7 4 0 0
BITMAP
00001000
079329B0
32078450
00000020
ENDCHAR
STARTCHAR uni219E
ENCODING 8606
SWIDTH 948 0
DWIDTH 8 0
BBX 7 3 0 1
BITMAP
03452000
2E9D8880
02341000
ENDCHAR
STARTCHAR uni219F
ENCODING 8607
SWIDTH 523 0
DWIDTH 4 0
BBX 4 7 0 -1
BITMAP
0120
0791
2472
19B3
1351
0350
0350
ENDCHAR
STARTCHAR uni21A0
ENCODING 8608
SWIDTH 948 0
DWIDTH 8 0
BBX 7 3 0 1
BITMAP
00042600
4889DBA0
00042500
ENDCHAR
STARTCHAR uni21A1
ENCODING 8609
SWIDTH 523 0
DWIDTH 4 0
BBX 4 7 0 -1
BITMAP
0130
0350
0350
2573
1791
29B3
0460
ENDCHAR
STARTCHAR uni21A2
ENCODING 8610
SWIDTH 948 0
DWIDTH 8 0
BBX 7 3 0 1
BITMAP
03400150
2E888C20
02300150
ENDCHAR
STARTCHAR uni21A3
ENCODING 8611
SWIDTH 948 0
DWIDTH 8 0
BBX 7 3 0 1
BITMAP
24000600
09988BA0
24000500
ENDCHAR
STARTCHAR uni21A4
ENCODING 8612
SWIDTH 948 0
DWIDTH 8 0
BBX 7 5 0 0
BITMAP
00100010
03300060
2E8888B0
03300060
00100010
ENDCHAR
STARTCHAR uni21A5
ENCODING 8613
SWIDTH 523 0
DWIDTH 4 0
BBX 4 7 0 -2
BITMAP
0350
2683
0350
0350
0350
0350
3784
ENDCHAR
STARTCHAR uni21A6
ENCODING 8614
SWIDTH 948 0
DWIDTH 8 0
BBX 7 5 0 0
BITMAP
10000100
60000610
68888BB0
60000610
20000100
ENDCHAR
STARTCHAR uni21A7
ENCODING 8615
SWIDTH 523 0
DWIDTH 4 0
BBX 4 7 0 -1
BITMAP
3784
0350
0350
0350
0350
2683
0680
ENDCHAR
STARTCHAR uni21A8
ENCODING 8616
SWIDTH 523 0
DWIDTH 4 0
BBX 4 7 0 -2
BITMAP
0350
2683
0350
0350
2463
0790
3674
ENDCHAR
STARTCHAR uni21A9
ENCODING 8617
SWIDTH 948 0
DWIDTH 8 0
BBX 7 4 0 1
BITMAP
00001860
02300080
2D888850
02300000
ENDCHAR
STARTCHAR uni21AA
ENCODING 8618
SWIDTH 948 0
DWIDTH 8 0
BBX 7 4 0 1
BITMAP
18600000
53000400
18888BA0
00000500
ENDCHAR
STARTCHAR uni21AB
ENCODING 8619
SWIDTH 948 0
DWIDTH 8 0
BBX 7 5 0 0
BITMAP
00003960
02308080
2E88C850
03308000
00106000
ENDCHAR
STARTCHAR uni21AC
ENCODING 8620
SWIDTH 948 0
DWIDTH 8 0
BBX 7 5 0 0
BITMAP
18800000
53530400
18AA8BA0
00440610
00330100
ENDCHAR
STARTCHAR uni21AD
ENCODING 8621
SWIDTH 1229 0
DWIDTH 10 0
BBX 10 5 0 0
BITMAP
0010000100
0520640330
4D816728E2
0428127330
0010000100
ENDCHAR
STARTCHAR uni21AE
ENCODING 8622
SWIDTH 948 0
DWIDTH 8 0
BBX 8 5 0 0
BITMAP
00102100
05116520
6D8B99D1
05170420
00110100
ENDCHAR
STARTCHAR uni21AF
ENCODING 8623
SWIDTH 523 0
DWIDTH 4 0
BBX 4 7 0 -1
BITMAP
0014
0092
0740
2BA5
21A0
4920
4A40
ENDCHAR
STARTCHAR uni21B0
ENCODING 8624
SWIDTH 474 0
DWIDTH 4 0
BBX 4 7 0 -2
BITMAP
0420
6D85
0537
0017
0017
0017
0015
ENDCHAR
STARTCHAR uni21B1
ENCODING 8625
SWIDTH 474 0
DWIDTH 4 0
BBX 4 7 0 -2
BITMAP
0330
88E3
8330
8000
8000
8000
6000
ENDCHAR
STARTCHAR uni21B2
ENCODING 8626
SWIDTH 474 0
DWIDTH 4 0
BBX 4 7 0 -1
BITMAP
0015
0027
0027
0027
0537
7D85
0510
ENDCHAR
STARTCHAR uni21B3
ENCODING 8627
SWIDTH 474 0
DWIDTH 4 0
BBX 4 7 0 -1
BITMAP
6000
8000
8000
8000
8330
78E3
0330
ENDCHAR
STARTCHAR uni21B4
ENCODING 8628
SWIDTH 948 0
DWIDTH 8 0
BBX 7 7 0 -1
BITMAP
48888700
00000800
00000800
00000800
00001810
00006C40
00000600
ENDCHAR
STARTCHAR uni21B5
ENCODING 8629
SWIDTH 948 0
DWIDTH 8 0
BBX 7 7 0 -1
BITMAP
00000060
00000080
00000080
00000080
02300080
2E8888A0
02300000
ENDCHAR
STARTCHAR uni21B6
ENCODING 8630
SWIDTH 948 0
DWIDTH 8 0
BBX 8 5 0 0
BITMAP
00188700
00910280
24420071
1B800010
04100000
ENDCHAR
STARTCHAR uni21B7
ENCODING 8631
SWIDTH 948 0
DWIDTH 8 0
BBX 8 5 0 0
BITMAP
03885000
28004600
71002811
10003C60
00000500
ENDCHAR
STARTCHAR uni21B8
ENCODING 8632
SWIDTH 948 0
DWIDTH 8 0
BBX 7 8 0 -2
BITMAP
48888880
6A400000
48500000
20650000
00065000
00006500
00000750
00000050
ENDCHAR
STARTCHAR uni21B9
ENCODING 8633
SWIDTH 948 0
DWIDTH 8 0
BBX 8 6 0 -1
BITMAP
40400000
6BA88881
61601010
20101651
48888DA1
00001341
ENDCHAR
STARTCHAR uni21BA
ENCODING 8634
SWIDTH 997 0
DWIDTH 8 0
BBX 6 7 1 -1
BITMAP
000363
2915C3
910059
800008
800008
650055
058840
ENDCHAR
STARTCHAR uni21BB
ENCODING 8635
SWIDTH 997 0
DWIDTH 8 0
BBX 6 7 1 -1
BITMAP
363000
3D5192
950019
800008
800008
650055
058840
ENDCHAR
STARTCHAR uni21BC
ENCODING 8636
SWIDTH 978 0
DWIDTH 8 0
BBX 8 3 0 2
BITMAP
00200000
03500000
2B988883
ENDCHAR
STARTCHAR uni21BD
ENCODING 8637
SWIDTH 978 0
DWIDTH 8 0
BBX 8 3 0 0
BITMAP
2B988883
03500000
00200000
ENDCHAR
STARTCHAR uni21BE
ENCODING 8638
SWIDTH 523 0
DWIDTH 4 0
BBX 3 7 1 -1
BITMAP
2200
3A10
3510
3500
3500
3500
3500
ENDCHAR
STARTCHAR uni21BF
ENCODING 8639
SWIDTH 523 0
DWIDTH 4 0
BBX 3 7 0 -1
BITMAP
0140
1850
1350
0350
0350
0350
0350
ENDCHAR
STARTCHAR uni21C0
ENCODING 8640
SWIDTH 978 0
DWIDTH 8 0
BBX 8 3 0 2
BITMAP
00001100
00000610
488889A1
ENDCHAR
STARTCHAR uni21C1
ENCODING 8641
SWIDTH 978 0
DWIDTH 8 0
BBX 8 3 0 0
BITMAP
588889A1
00000610
00001100
ENDCHAR
STARTCHAR uni21C2
ENCODING 8642
SWIDTH 523 0
DWIDTH 4 0
BBX 3 8 1 -2
BITMAP
1300
3500
3500
3500
3500
3730
3700
1000
ENDCHAR
STARTCHAR uni21C3
ENCODING 8643
SWIDTH 523 0
DWIDTH 4 0
BBX 3 8 0 -2
BITMAP
0130
0350
0350
0350
0350
2550
0550
0010
ENDCHAR
STARTCHAR uni21C4
ENCODING 8644
SWIDTH 948 0
DWIDTH 8 0
BBX 7 6 0 -1
BITMAP
00000500
38888BA0
00100610
03300100
2E888880
02400000
ENDCHAR
STARTCHAR uni21C5
ENCODING 8645
SWIDTH 791 0
DWIDTH 6 0
BBX 6 7 0 -1
BITMAP
031040
2A7080
162180
062080
062181
0626C6
0620A0
ENDCHAR
STARTCHAR uni21C6
ENCODING 8646
SWIDTH 948 0
DWIDTH 8 0
BBX 7 6 0 -1
BITMAP
02400000
2E888880
03300100
00100610
38888BA0
00000500
ENDCHAR
STARTCHAR uni21C7
ENCODING 8647
SWIDTH 948 0
DWIDTH 8 0
BBX 7 6 0 -1
BITMAP
02400000
2E888880
03300000
03300000
2E888880
02400000
ENDCHAR
STARTCHAR uni21C8
ENCODING 8648
SWIDTH 791 0
DWIDTH 6 0
BBX 6 7 0 -1
BITMAP
031030
2A74C3
162181
062080
062080
062080
062080
ENDCHAR
STARTCHAR uni21C9
ENCODING 8649
SWIDTH 948 0
DWIDTH 8 0
BBX 7 6 0 -1
BITMAP
00000500
48888BA0
00000600
00000610
48888BA0
00000500
ENDCHAR
STARTCHAR uni21CA
ENCODING 8650
SWIDTH 791 0
DWIDTH 6 0
BBX 6 7 0 -1
BITMAP
031040
062080
062080
062080
162081
3B86C5
073090
ENDCHAR
STARTCHAR uni21CB
ENCODING 8651
SWIDTH 948 0
DWIDTH 8 0
BBX 7 5 0 0
BITMAP
01400000
19888880
00000000
38888A60
00000500
ENDCHAR
STARTCHAR uni21CC
ENCODING 8652
SWIDTH 948 0
DWIDTH 8 0
BBX 7 5 0 0
BITMAP
00000500
38888950
00000000
19888880
01400000
ENDCHAR
STARTCHAR uni21CD
ENCODING 8653
SWIDTH 948 0
DWIDTH 8 0
BBX 8 6 0 -1
BITMAP
00120050
03988A91
48000700
05B8AA81
00537000
00012000
ENDCHAR
STARTCHAR uni21CE
ENCODING 8654
SWIDTH 948 0
DWIDTH 8 0
BBX 8 5 0 0
BITMAP
00516300
189A9B40
93060093
08AB8A40
00552300
ENDCHAR
STARTCHAR uni21CF
ENCODING 8655
SWIDTH 948 0
DWIDTH 8 0
BBX 7 6 0 -1
BITMAP
00233000
48B89710
016000B0
4A989A20
07006100
01001000
ENDCHAR
STARTCHAR uni21D0
ENCODING 8656
SWIDTH 887 0
DWIDTH 7 0
BBX 8 5 0 0
BITMAP
00330000
05B88881
48000000
05B88881
00430000
ENDCHAR
STARTCHAR uni21D1
ENCODING 8657
SWIDTH 720 0
DWIDTH 6 0
BBX 6 7 0 -2
BITMAP
007400
036810
295870
135801
035800
035800
035700
ENDCHAR
STARTCHAR uni21D2
ENCODING 8658
SWIDTH 887 0
DWIDTH 7 0
BBX 7 5 0 0
BITMAP
00034000
8888B500
00000650
8888B500
00034000
ENDCHAR
STARTCHAR uni21D3
ENCODING 8659
SWIDTH 720 0
DWIDTH 6 0
BBX 6 7 0 -1
BITMAP
023400
035800
035800
135801
2A5880
046810
007400
ENDCHAR
STARTCHAR uni21D4
ENCODING 8660
SWIDTH 948 0
DWIDTH 8 0
BBX 8 5 0 0
BITMAP
00502300
18988B40
93000093
08A88A40
00502300
ENDCHAR
STARTCHAR uni21D5
ENCODING 8661
SWIDTH 720 0
DWIDTH 6 0
BBX 6 8 0 -2
BITMAP
007400
046810
295870
135801
135801
295871
046820
007400
ENDCHAR
STARTCHAR uni21D6
ENCODING 8662
SWIDTH 948 0
DWIDTH 8 0
BBX 7 8 0 -2
BITMAP
22000000
78E82000
56380000
39638000
11662800
00066290
00005610
00000300
ENDCHAR
STARTCHAR uni21D7
ENCODING 8663
SWIDTH 948 0
DWIDTH 8 0
BBX 8 8 0 -2
BITMAP
00000031
0005BBB1
000281A0
00281990
03819230
38192000
11910000
02100000
ENDCHAR
STARTCHAR uni21D8
ENCODING 8664
SWIDTH 948 0
DWIDTH 8 0
BBX 8 7 0 -1
BITMAP
02300000
31830000
19183000
01918240
00191790
00019190
000389B1
ENDCHAR
STARTCHAR uni21D9
ENCODING 8665
SWIDTH 948 0
DWIDTH 8 0
BBX 7 7 0 -1
BITMAP
00000600
00007340
00074470
22644700
49447000
54480000
78B51000
ENDCHAR
STARTCHAR uni21DA
ENCODING 8666
SWIDTH 872 0
DWIDTH 7 0
BBX 7 6 0 -1
BITMAP
00330000
04B88880
5D888880
06000000
00888880
00130000
ENDCHAR
STARTCHAR uni21DB
ENCODING 8667
SWIDTH 872 0
DWIDTH 7 0
BBX 7 6 0 -1
BITMAP
00033000
8888B400
88888D50
00000600
88888000
00031000
ENDCHAR
STARTCHAR uni21DC
ENCODING 8668
SWIDTH 948 0
DWIDTH 8 0
BBX 8 3 0 1
BITMAP
03305000
3E989881
03350500
ENDCHAR
STARTCHAR uni21DD
ENCODING 8669
SWIDTH 948 0
DWIDTH 8 0
BBX 7 3 0 1
BITMAP
00130510
49998AB0
01314510
ENDCHAR
STARTCHAR uni21DE
ENCODING 8670
SWIDTH 523 0
DWIDTH 4 0
BBX 4 8 0 -2
BITMAP
0010
0690
2794
0350
3894
3894
0350
0240
ENDCHAR
STARTCHAR uni21DF
ENCODING 8671
SWIDTH 523 0
DWIDTH 4 0
BBX 4 7 0 -1
BITMAP
0240
0350
3894
3894
0350
2784
0680
ENDCHAR
STARTCHAR uni21E0
ENCODING 8672
SWIDTH 948 0
DWIDTH 8 0
BBX 8 3 0 1
BITMAP
03300000
3E844661
03300000
ENDCHAR
STARTCHAR uni21E1
ENCODING 8673
SWIDTH 523 0
DWIDTH 4 0
BBX 4 7 0 -1
BITMAP
0130
0781
2352
0250
0000
0250
0250
ENDCHAR
STARTCHAR uni21E2
ENCODING 8674
SWIDTH 948 0
DWIDTH 8 0
BBX 7 3 0 1
BITMAP
00000510
44664AB0
00000510
ENDCHAR
STARTCHAR uni21E3
ENCODING 8675
SWIDTH 523 0
DWIDTH 4 0
BBX 4 7 0 -1
BITMAP
0250
0000
0250
0250
1131
28A3
0360
ENDCHAR
STARTCHAR uni21E4
ENCODING 8676
SWIDTH 948 0
DWIDTH 8 0
BBX 8 5 0 0
BITMAP
10100000
61600000
6CA88881
61600000
20100000
ENDCHAR
STARTCHAR uni21E5
ENCODING 8677
SWIDTH 948 0
DWIDTH 8 0
BBX 8 5 0 0
BITMAP
00001010
00001551
48888DA1
00001551
00001010
ENDCHAR
STARTCHAR uni21E6
ENCODING 8678
SWIDTH 948 0
DWIDTH 8 0
BBX 8 5 0 0
BITMAP
00380000
05566671
48000051
05566671
00380000
ENDCHAR
STARTCHAR uni21E7
ENCODING 8679
SWIDTH 720 0
DWIDTH 6 0
BBX 6 7 0 -2
BITMAP
008500
063540
392481
033600
033600
033600
027800
ENDCHAR
STARTCHAR uni21E8
ENCODING 8680
SWIDTH 948 0
DWIDTH 8 0
BBX 7 5 0 0
BITMAP
0001A100
56664720
600000B0
56664720
0001A100
ENDCHAR
STARTCHAR uni21E9
ENCODING 8681
SWIDTH 720 0
DWIDTH 6 0
BBX 6 7 0 -1
BITMAP
027800
033600
033600
033600
392481
063540
008500
ENDCHAR
STARTCHAR uni21EA
ENCODING 8682
SWIDTH 720 0
DWIDTH 6 0
BBX 6 7 0 -2
BITMAP
008500
053540
392581
033600
027800
027800
027800
ENDCHAR
STARTCHAR uni21F4
ENCODING 8692
SWIDTH 948 0
DWIDTH 8 0
BBX 7 3 0 1
BITMAP
00571500
48B9BBA0
00571500
ENDCHAR
STARTCHAR uni21F5
ENCODING 8693
SWIDTH 791 0
DWIDTH 6 0
BBX 6 7 0 -1
BITMAP
031030
0624C3
062181
062080
162180
3B9180
073080
ENDCHAR
STARTCHAR uni21F6
ENCODING 8694
SWIDTH 948 0
DWIDTH 8 0
BBX 7 8 0 -2
BITMAP
00000500
48888AB0
00000610
00000610
48888AA0
00000600
48888AA0
00000500
ENDCHAR
STARTCHAR uni21F7
ENCODING 8695
SWIDTH 948 0
DWIDTH 8 0
BBX 8 5 0 0
BITMAP
00101000
04306000
3E88B881
04306000
00102000
ENDCHAR
STARTCHAR uni21F8
ENCODING 8696
SWIDTH 948 0
DWIDTH 8 0
BBX 7 5 0 0
BITMAP
00010100
00060610
488B8AB0
00060610
00020100
ENDCHAR
STARTCHAR uni21F9
ENCODING 8697
SWIDTH 948 0
DWIDTH 8 0
BBX 8 5 0 0
BITMAP
00110100
05260510
5D8B8AD1
04260510
00120100
ENDCHAR
STARTCHAR uni21FA
ENCODING 8698
SWIDTH 948 0
DWIDTH 8 0
BBX 8 5 0 0
BITMAP
00111100
04335400
3E8ABA81
04335400
00111100
ENDCHAR
STARTCHAR uni21FB
ENCODING 8699
SWIDTH 948 0
DWIDTH 8 0
BBX 7 5 0 0
BITMAP
00110100
00660610
48BB8AC0
00660610
00220100
ENDCHAR
STARTCHAR uni21FC
ENCODING 8700
SWIDTH 948 0
DWIDTH 8 0
BBX 8 5 0 0
BITMAP
00111100
05166520
6D8BB9D1
05166420
00122100
ENDCHAR
STARTCHAR uni21FD
ENCODING 8701
SWIDTH 948 0
DWIDTH 8 0
BBX 8 3 0 1
BITMAP
03800000
3A988881
03800000
ENDCHAR
STARTCHAR uni21FE
ENCODING 8702
SWIDTH 948 0
DWIDTH 8 0
BBX 7 3 0 1
BITMAP
00002900
488897A0
00002900
ENDCHAR
STARTCHAR uni21FF
ENCODING 8703
SWIDTH 948 0
DWIDTH 8 0
BBX 8 3 0 1
BITMAP
06500920
77B888A2
06500920
ENDCHAR
STARTCHAR uni2200
ENCODING 8704
SWIDTH 573 0
DWIDTH 5 0
BBX 5 7 0 -1
BITMAP
200020
900540
5A8B00
091800
087300
04C000
002000
ENDCHAR
STARTCHAR uni2201
ENCODING 8705
SWIDTH 474 0
DWIDTH 4 0
BBX 4 7 0 0
BITMAP
2881
7144
8011
8000
8011
7144
2981
ENDCHAR
STARTCHAR partialdiff
ENCODING 8706
SWIDTH 478 0
DWIDTH 4 0
BBX 4 6 0 0
BITMAP
1770
0043
1996
6036
6133
2980
ENDCHAR
STARTCHAR uni2203
ENCODING 8707
SWIDTH 573 0
DWIDTH 5 0
BBX 4 6 0 0
BITMAP
388A
0008
0008
288C
0008
388A
ENDCHAR
STARTCHAR uni2204
ENCODING 8708
SWIDTH 573 0
DWIDTH 5 0
BBX 4 8 0 -1
BITMAP
0004
38AB
0078
0078
29AC
0708
4B8A
3200
ENDCHAR
STARTCHAR uni2205
ENCODING 8709
SWIDTH 780 0
DWIDTH 6 0
BBX 6 6 0 -1
BITMAP
038865
2801B5
710919
718208
2C3055
268850
ENDCHAR
STARTCHAR uni2206
ENCODING 8710
SWIDTH 748 0
DWIDTH 6 0
BBX 6 6 0 0
BITMAP
004300
008900
024B10
060570
1500C0
365583
ENDCHAR
STARTCHAR uni2207
ENCODING 8711
SWIDTH 748 0
DWIDTH 6 0
BBX 6 6 0 0
BITMAP
385563
1C0050
075060
01B410
009700
002200
ENDCHAR
STARTCHAR uni2208
ENCODING 8712
SWIDTH 720 0
DWIDTH 6 0
BBX 6 5 0 0
BITMAP
049881
380000
6A8881
280000
049881
ENDCHAR
STARTCHAR uni2209
ENCODING 8713
SWIDTH 720 0
DWIDTH 6 0
BBX 6 7 0 -1
BITMAP
000060
049A91
380700
6AA981
387000
089881
060000
ENDCHAR
STARTCHAR uni220A
ENCODING 8714
SWIDTH 497 0
DWIDTH 4 0
BBX 4 4 0 0
BITMAP
0784
5400
5984
0684
ENDCHAR
STARTCHAR uni220B
ENCODING 8715
SWIDTH 720 0
DWIDTH 6 0
BBX 6 5 0 0
BITMAP
388920
0000A0
3888C2
0000A0
388920
ENDCHAR
STARTCHAR uni220C
ENCODING 8716
SWIDTH 720 0
DWIDTH 6 0
BBX 6 7 0 -1
BITMAP
000060
388A50
0008A0
38A9C2
0080A0
3A9920
070000
ENDCHAR
STARTCHAR uni220D
ENCODING 8717
SWIDTH 497 0
DWIDTH 4 0
BBX 4 4 0 0
BITMAP
4870
0055
4895
4860
ENDCHAR
STARTCHAR uni220E
ENCODING 8718
SWIDTH 558 0
DWIDTH 4 0
BBX 4 5 0 0
BITMAP
8FFF
8FFF
8FFF
8FFF
8FFF
ENDCHAR
STARTCHAR uni220F
ENCODING 8719
SWIDTH 1135 0
DWIDTH 9 0
BBX 9 9 0 -2
BITMAP
2896669830
04A0009500
04A0009400
04A0009400
04A0009400
04A0009400
04A0009400
04B000A500
2794049830
ENDCHAR
STARTCHAR uni2210
ENCODING 8720
SWIDTH 1135 0
DWIDTH 9 0
BBX 9 9 0 -2
BITMAP
2894049830
04B000A500
04A0009400
04A0009400
04A0009400
04A0009400
04A0009400
04A0009500
2896668830
ENDCHAR
STARTCHAR uni2211
ENCODING 8721
SWIDTH 936 0
DWIDTH 7 0
BBX 7 9 0 -2
BITMAP
3B667960
0A700170
01D30020
003D1000
00082000
00360000
01800040
08100180
4DCCCD70
ENDCHAR
STARTCHAR uni2212
ENCODING 8722
SWIDTH 720 0
DWIDTH 6 0
BBX 6 1 0 2
BITMAP
488882
ENDCHAR
STARTCHAR uni2213
ENCODING 8723
SWIDTH 720 0
DWIDTH 6 0
BBX 6 6 0 -1
BITMAP
488882
004100
006200
48B982
006200
002100
ENDCHAR
STARTCHAR uni2214
ENCODING 8724
SWIDTH 720 0
DWIDTH 6 0
BBX 6 7 0 0
BITMAP
007400
002100
006200
006200
48B982
006200
004200
ENDCHAR
STARTCHAR uni2215
ENCODING 8725
SWIDTH 535 0
DWIDTH 4 0
BBX 4 8 0 -2
BITMAP
0004
0017
0072
0090
0450
0900
1800
6200
ENDCHAR
STARTCHAR uni2216
ENCODING 8726
SWIDTH 535 0
DWIDTH 4 0
BBX 4 8 0 -2
BITMAP
4000
4500
0900
0720
0180
0090
0045
0009
ENDCHAR
STARTCHAR uni2217
ENCODING 8727
SWIDTH 536 0
DWIDTH 4 0
BBX 4 4 0 0
BITMAP
0130
3676
3675
0160
ENDCHAR
STARTCHAR uni2218
ENCODING 8728
SWIDTH 436 0
DWIDTH 3 0
BBX 4 3 0 0
BITMAP
2760
8181
2860
ENDCHAR
STARTCHAR uni2219
ENCODING 8729
SWIDTH 457 0
DWIDTH 4 0
BBX 2 2 1 1
BITMAP
D9
D9
ENDCHAR
STARTCHAR uni221A
ENCODING 8730
SWIDTH 794 0
DWIDTH 6 0
BBX 7 10 0 -2
BITMAP
00000850
00001700
00004400
00007000
27007000
3B116000
05652000
00B70000
00890000
00240000
ENDCHAR
STARTCHAR uni221B
ENCODING 8731
SWIDTH 794 0
DWIDTH 6 0
BBX 7 10 0 -2
BITMAP
27200850
08201700
02704400
45307000
27007000
3B116000
05652000
00B70000
00890000
00240000
ENDCHAR
STARTCHAR uni221C
ENCODING 8732
SWIDTH 794 0
DWIDTH 6 0
BBX 7 10 0 -2
BITMAP
02300850
09601700
65804400
36907000
27107000
3B116000
05652000
00B70000
00890000
00240000
ENDCHAR
STARTCHAR uni221D
ENCODING 8733
SWIDTH 720 0
DWIDTH 6 0
BBX 6 4 0 0
BITMAP
179273
602D30
721A60
2B9184
ENDCHAR
STARTCHAR uni221E
ENCODING 8734
SWIDTH 953 0
DWIDTH 8 0
BBX 7 4 0 0
BITMAP
06935A50
421C5090
5618A070
08A15830
ENDCHAR
STARTCHAR uni221F
ENCODING 8735
SWIDTH 720 0
DWIDTH 6 0
BBX 6 6 0 0
BITMAP
200000
800000
800000
800000
800000
688882
ENDCHAR
STARTCHAR uni2220
ENCODING 8736
SWIDTH 720 0
DWIDTH 6 0
BBX 6 5 0 0
BITMAP
000061
000650
006600
066000
3B8883
ENDCHAR
STARTCHAR uni2221
ENCODING 8737
SWIDTH 720 0
DWIDTH 6 0
BBX 6 6 0 -1
BITMAP
000061
002860
006B10
066360
3B88C3
000030
ENDCHAR
STARTCHAR uni2222
ENCODING 8738
SWIDTH 720 0
DWIDTH 6 0
BBX 6 5 0 0
BITMAP
000010
0007C2
288380
059680
0004B2
ENDCHAR
STARTCHAR uni2223
ENCODING 8739
SWIDTH 272 0
DWIDTH 2 0
BBX 2 7 0 -2
BITMAP
35
35
35
35
35
35
35
ENDCHAR
STARTCHAR uni2224
ENCODING 8740
SWIDTH 413 0
DWIDTH 3 0
BBX 3 7 0 -2
BITMAP
0800
0800
0820
2B60
4800
0800
0800
ENDCHAR
STARTCHAR uni2225
ENCODING 8741
SWIDTH 535 0
DWIDTH 4 0
BBX 3 7 1 -2
BITMAP
8530
8530
8530
8530
8530
8530
8530
ENDCHAR
STARTCHAR uni2226
ENCODING 8742
SWIDTH 623 0
DWIDTH 5 0
BBX 5 7 0 -2
BITMAP
080800
080800
080A50
098900
5B0800
080800
080800
ENDCHAR
STARTCHAR uni2227
ENCODING 8743
SWIDTH 636 0
DWIDTH 5 0
BBX 5 5 0 0
BITMAP
002000
01C200
073800
180720
720180
ENDCHAR
STARTCHAR uni2228
ENCODING 8744
SWIDTH 636 0
DWIDTH 5 0
BBX 5 5 0 0
BITMAP
400040
450450
080800
048500
009000
ENDCHAR
STARTCHAR uni2229
ENCODING 8745
SWIDTH 636 0
DWIDTH 5 0
BBX 5 5 0 0
BITMAP
068700
630270
800080
800080
600060
ENDCHAR
STARTCHAR uni222A
ENCODING 8746
SWIDTH 636 0
DWIDTH 5 0
BBX 5 5 0 0
BITMAP
600060
800080
800080
630270
067600
ENDCHAR
STARTCHAR uni222B
ENCODING 8747
SWIDTH 684 0
DWIDTH 5 0
BBX 6 8 0 -2
BITMAP
000361
001951
006600
00A300
00C000
01A000
555000
550000
ENDCHAR
STARTCHAR uni222C
ENCODING 8748
SWIDTH 1016 0
DWIDTH 8 0
BBX 8 8 0 -2
BITMAP
00036156
00195655
00660B10
00A30C00
00C03900
01B06500
55559100
55064000
ENDCHAR
STARTCHAR uni222D
ENCODING 8749
SWIDTH 1348 0
DWIDTH 11 0
BBX 11 8 0 -2
BITMAP
000361561630
001956559230
00660B11A000
00A30C057000
00C039084000
01B0650A1000
555594390000
550642610000
ENDCHAR
STARTCHAR uni222E
ENCODING 8750
SWIDTH 684 0
DWIDTH 5 0
BBX 6 8 0 -2
BITMAP
000371
001951
038900
05A450
06C140
03C400
555000
550000
ENDCHAR
STARTCHAR uni222F
ENCODING 8751
SWIDTH 1016 0
DWIDTH 8 0
BBX 8 8 0 -2
BITMAP
00037156
00195555
02994C20
06A30C70
16C03A60
02C49920
54559100
55063000
ENDCHAR
STARTCHAR uni2230
ENCODING 8752
SWIDTH 1348 0
DWIDTH 11 0
BBX 11 8 0 -2
BITMAP
000371561630
001955559330
01894C55B000
16A30C058700
16C03A085700
02C5995C5000
555594390000
550642710000
ENDCHAR
STARTCHAR uni2231
ENCODING 8753
SWIDTH 684 0
DWIDTH 5 0
BBX 6 8 0 -2
BITMAP
000361
001951
006600
04C730
03C160
01B000
555000
550000
ENDCHAR
STARTCHAR uni2232
ENCODING 8754
SWIDTH 684 0
DWIDTH 5 0
BBX 6 8 0 -2
BITMAP
000461
037A30
158690
42B170
25C150
04B500
554000
550000
ENDCHAR
STARTCHAR uni2233
ENCODING 8755
SWIDTH 684 0
DWIDTH 5 0
BBX 6 8 0 -2
BITMAP
000371
000951
038900
159670
15C140
04C400
555000
550000
ENDCHAR
STARTCHAR uni2234
ENCODING 8756
SWIDTH 635 0
DWIDTH 5 0
BBX 5 4 0 0
BITMAP
00B000
000000
000000
830290
ENDCHAR
STARTCHAR uni2235
ENCODING 8757
SWIDTH 635 0
DWIDTH 5 0
BBX 5 4 0 0
BITMAP
830290
000000
000000
00B000
ENDCHAR
STARTCHAR uni2236
ENCODING 8758
SWIDTH 523 0
DWIDTH 4 0
BBX 2 4 1 0
BITMAP
47
00
00
47
ENDCHAR
STARTCHAR uni2237
ENCODING 8759
SWIDTH 720 0
DWIDTH 6 0
BBX 5 4 0 0
BITMAP
2900B0
000000
000000
2900B0
ENDCHAR
STARTCHAR uni2238
ENCODING 8760
SWIDTH 720 0
DWIDTH 6 0
BBX 6 3 0 2
BITMAP
008400
000000
488882
ENDCHAR
STARTCHAR uni2239
ENCODING 8761
SWIDTH 720 0
DWIDTH 6 0
BBX 6 4 0 0
BITMAP
000092
000000
488600
000092
ENDCHAR
STARTCHAR uni223A
ENCODING 8762
SWIDTH 720 0
DWIDTH 6 0
BBX 6 4 0 0
BITMAP
560092
000000
488882
560092
ENDCHAR
STARTCHAR uni223B
ENCODING 8763
SWIDTH 720 0
DWIDTH 6 0
BBX 6 4 0 0
BITMAP
006500
188112
302970
006500
ENDCHAR
STARTCHAR uni223C
ENCODING 8764
SWIDTH 720 0
DWIDTH 6 0
BBX 6 2 0 1
BITMAP
187122
402870
ENDCHAR
STARTCHAR uni223D
ENCODING 8765
SWIDTH 720 0
DWIDTH 6 0
BBX 6 2 0 1
BITMAP
402870
187122
ENDCHAR
STARTCHAR uni223E
ENCODING 8766
SWIDTH 720 0
DWIDTH 6 0
BBX 6 3 0 1
BITMAP
284061
404214
250581
ENDCHAR
STARTCHAR uni223F
ENCODING 8767
SWIDTH 720 0
DWIDTH 6 0
BBX 6 4 0 0
BITMAP
196000
618100
004553
000870
ENDCHAR
STARTCHAR uni2240
ENCODING 8768
SWIDTH 293 0
DWIDTH 2 0
BBX 2 5 0 0
BITMAP
46
08
27
80
36
ENDCHAR
STARTCHAR uni2241
ENCODING 8769
SWIDTH 720 0
DWIDTH 6 0
BBX 6 4 0 0
BITMAP
000200
188622
408870
002000
ENDCHAR
STARTCHAR uni2242
ENCODING 8770
SWIDTH 720 0
DWIDTH 6 0
BBX 6 4 0 0
BITMAP
488882
000000
188122
402870
ENDCHAR
STARTCHAR uni2243
ENCODING 8771
SWIDTH 720 0
DWIDTH 6 0
BBX 6 4 0 0
BITMAP
187122
402870
000000
488882
ENDCHAR
STARTCHAR uni2244
ENCODING 8772
SWIDTH 720 0
DWIDTH 6 0
BBX 6 6 0 -1
BITMAP
000200
077802
31A831
205950
48B882
021000
ENDCHAR
STARTCHAR uni2245
ENCODING 8773
SWIDTH 720 0
DWIDTH 6 0
BBX 6 5 0 0
BITMAP
178112
302860
488882
000000
488882
ENDCHAR
STARTCHAR uni2246
ENCODING 8774
SWIDTH 720 0
DWIDTH 6 0
BBX 6 7 0 -1
BITMAP
075002
317431
200850
488B82
006200
49B882
031000
ENDCHAR
STARTCHAR uni2247
ENCODING 8775
SWIDTH 720 0
DWIDTH 6 0
BBX 6 8 0 -2
BITMAP
000040
187632
402B70
48A982
006000
48A882
061000
020000
ENDCHAR
STARTCHAR uni2248
ENCODING 8776
SWIDTH 720 0
DWIDTH 6 0
BBX 6 4 0 0
BITMAP
188122
402870
188122
402870
ENDCHAR
STARTCHAR uni2249
ENCODING 8777
SWIDTH 720 0
DWIDTH 6 0
BBX 6 6 0 -1
BITMAP
000410
187712
304A70
18B112
317870
010000
ENDCHAR
STARTCHAR uni224A
ENCODING 8778
SWIDTH 720 0
DWIDTH 6 0
BBX 6 6 0 -1
BITMAP
000001
187121
200100
286112
100100
488882
ENDCHAR
STARTCHAR uni224B
ENCODING 8779
SWIDTH 720 0
DWIDTH 6 0
BBX 6 5 0 0
BITMAP
188112
302970
103771
188112
302870
ENDCHAR
STARTCHAR uni224C
ENCODING 8780
SWIDTH 720 0
DWIDTH 6 0
BBX 6 5 0 0
BITMAP
302860
178112
488882
000000
488882
ENDCHAR
STARTCHAR uni224D
ENCODING 8781
SWIDTH 720 0
DWIDTH 6 0
BBX 6 4 0 0
BITMAP
320032
068840
068840
310031
ENDCHAR
STARTCHAR uni224E
ENCODING 8782
SWIDTH 720 0
DWIDTH 6 0
BBX 6 4 0 0
BITMAP
008600
493682
494682
008600
ENDCHAR
STARTCHAR uni224F
ENCODING 8783
SWIDTH 720 0
DWIDTH 6 0
BBX 6 3 0 1
BITMAP
483582
000000
488882
ENDCHAR
STARTCHAR uni2250
ENCODING 8784
SWIDTH 720 0
DWIDTH 6 0
BBX 6 4 0 1
BITMAP
007400
488882
000000
488882
ENDCHAR
STARTCHAR uni2251
ENCODING 8785
SWIDTH 720 0
DWIDTH 6 0
BBX 6 6 0 -1
BITMAP
007400
000000
488882
488882
000000
007400
ENDCHAR
STARTCHAR uni2252
ENCODING 8786
SWIDTH 720 0
DWIDTH 6 0
BBX 6 6 0 -1
BITMAP
650000
000000
488882
488882
000000
000092
ENDCHAR
STARTCHAR uni2253
ENCODING 8787
SWIDTH 720 0
DWIDTH 6 0
BBX 6 6 0 -1
BITMAP
000093
000000
488882
488882
000000
650000
ENDCHAR
STARTCHAR uni2254
ENCODING 8788
SWIDTH 844 0
DWIDTH 7 0
BBX 7 3 0 1
BITMAP
74688830
00000000
74688830
ENDCHAR
STARTCHAR uni2255
ENCODING 8789
SWIDTH 844 0
DWIDTH 7 0
BBX 7 3 0 1
BITMAP
58884830
00000000
58884830
ENDCHAR
STARTCHAR uni2256
ENCODING 8790
SWIDTH 720 0
DWIDTH 6 0
BBX 6 3 0 1
BITMAP
48BA82
007700
48BA82
ENDCHAR
STARTCHAR uni2257
ENCODING 8791
SWIDTH 720 0
DWIDTH 6 0
BBX 6 6 0 1
BITMAP
006400
016600
006400
488882
000000
488882
ENDCHAR
STARTCHAR uni2258
ENCODING 8792
SWIDTH 720 0
DWIDTH 6 0
BBX 6 5 0 1
BITMAP
048830
010020
488882
000000
488882
ENDCHAR
STARTCHAR uni2259
ENCODING 8793
SWIDTH 720 0
DWIDTH 6 0
BBX 6 7 0 1
BITMAP
001000
008500
026810
060250
488882
000000
488882
ENDCHAR
STARTCHAR uni225A
ENCODING 8794
SWIDTH 720 0
DWIDTH 6 0
BBX 6 7 0 1
BITMAP
020020
072630
009700
002000
488882
000000
488882
ENDCHAR
STARTCHAR uni225B
ENCODING 8795
SWIDTH 720 0
DWIDTH 6 0
BBX 6 5 0 1
BITMAP
018600
00A800
488882
000000
488882
ENDCHAR
STARTCHAR uni225C
ENCODING 8796
SWIDTH 720 0
DWIDTH 6 0
BBX 6 7 0 1
BITMAP
001000
008500
026810
088950
488882
000000
488882
ENDCHAR
STARTCHAR uni225D
ENCODING 8797
SWIDTH 720 0
DWIDTH 6 0
BBX 6 6 0 1
BITMAP
040023
262260
554440
488882
000000
488882
ENDCHAR
STARTCHAR uni225E
ENCODING 8798
SWIDTH 720 0
DWIDTH 6 0
BBX 6 5 0 1
BITMAP
044320
043330
488882
000000
488882
ENDCHAR
STARTCHAR uni225F
ENCODING 8799
SWIDTH 720 0
DWIDTH 6 0
BBX 6 7 0 1
BITMAP
005500
004900
003200
004100
488882
000000
488882
ENDCHAR
STARTCHAR uni2260
ENCODING 8800
SWIDTH 720 0
DWIDTH 6 0
BBX 6 7 0 -1
BITMAP
000140
000600
488B82
005200
48B882
034000
050000
ENDCHAR
STARTCHAR uni2261
ENCODING 8801
SWIDTH 720 0
DWIDTH 6 0
BBX 6 4 0 0
BITMAP
488882
488882
000000
488882
ENDCHAR
STARTCHAR uni2262
ENCODING 8802
SWIDTH 720 0
DWIDTH 6 0
BBX 6 8 0 -2
BITMAP
000020
000330
488B82
48A982
007000
49A882
060000
020000
ENDCHAR
STARTCHAR uni2263
ENCODING 8803
SWIDTH 720 0
DWIDTH 6 0
BBX 6 5 0 -1
BITMAP
488882
488882
000000
488882
488882
ENDCHAR
STARTCHAR uni2264
ENCODING 8804
SWIDTH 720 0
DWIDTH 6 0
BBX 6 6 0 -1
BITMAP
000382
048500
2A5000
003850
000031
488882
ENDCHAR
STARTCHAR uni2265
ENCODING 8805
SWIDTH 720 0
DWIDTH 6 0
BBX 6 6 0 -1
BITMAP
372000
016820
001791
167200
310000
488882
ENDCHAR
STARTCHAR uni2266
ENCODING 8806
SWIDTH 720 0
DWIDTH 6 0
BBX 6 8 0 -2
BITMAP
000681
068300
187100
001771
000011
488882
000000
488882
ENDCHAR
STARTCHAR uni2267
ENCODING 8807
SWIDTH 720 0
DWIDTH 6 0
BBX 6 9 0 -2
BITMAP
100000
384000
004950
002870
286000
200000
488882
000000
488882
ENDCHAR
STARTCHAR uni2268
ENCODING 8808
SWIDTH 720 0
DWIDTH 6 0
BBX 6 9 0 -3
BITMAP
000681
068300
187100
001771
000311
489B82
006100
49B882
021000
ENDCHAR
STARTCHAR uni2269
ENCODING 8809
SWIDTH 720 0
DWIDTH 6 0
BBX 6 10 0 -3
BITMAP
100000
384000
004950
002870
286000
200210
488B82
005200
49B882
021000
ENDCHAR
STARTCHAR uni226A
ENCODING 8810
SWIDTH 955 0
DWIDTH 8 0
BBX 8 6 0 -1
BITMAP
00002002
00385682
49578200
28758400
00276483
00001001
ENDCHAR
STARTCHAR uni226B
ENCODING 8811
SWIDTH 955 0
DWIDTH 8 0
BBX 8 6 0 -1
BITMAP
20110000
48477100
00595781
01684860
57386000
10000000
ENDCHAR
STARTCHAR uni226C
ENCODING 8812
SWIDTH 477 0
DWIDTH 4 0
BBX 3 8 0 -2
BITMAP
1330
0740
0770
2680
2680
0770
0640
1220
ENDCHAR
STARTCHAR uni226D
ENCODING 8813
SWIDTH 720 0
DWIDTH 6 0
BBX 6 6 0 -1
BITMAP
000410
320742
068710
049840
335021
010000
ENDCHAR
STARTCHAR uni226E
ENCODING 8814
SWIDTH 720 0
DWIDTH 6 0
BBX 6 7 0 -1
BITMAP
000030
000451
003A60
2A8400
04C500
015381
060000
ENDCHAR
STARTCHAR uni226F
ENCODING 8815
SWIDTH 720 0
DWIDTH 6 0
BBX 5 7 0 -1
BITMAP
000030
210510
177700
005890
01A820
3A4000
070000
ENDCHAR
STARTCHAR uni2270
ENCODING 8816
SWIDTH 720 0
DWIDTH 6 0
BBX 6 9 0 -2
BITMAP
000020
000250
000991
059800
298300
008850
006031
4A9882
050000
ENDCHAR
STARTCHAR uni2271
ENCODING 8817
SWIDTH 720 0
DWIDTH 6 0
BBX 6 9 0 -2
BITMAP
000010
100430
384700
006B30
005981
17A100
335000
4B9882
050000
ENDCHAR
STARTCHAR uni2272
ENCODING 8818
SWIDTH 720 0
DWIDTH 6 0
BBX 6 7 0 -1
BITMAP
000171
017710
2C3000
017820
000161
188122
402870
ENDCHAR
STARTCHAR uni2273
ENCODING 8819
SWIDTH 720 0
DWIDTH 6 0
BBX 6 7 0 -1
BITMAP
350000
038600
0006B1
038500
350000
188122
402870
ENDCHAR
STARTCHAR uni2274
ENCODING 8820
SWIDTH 720 0
DWIDTH 6 0
BBX 6 9 0 -2
BITMAP
000100
000751
006A30
2C5500
01A810
007161
18A122
454870
020000
ENDCHAR
STARTCHAR uni2275
ENCODING 8821
SWIDTH 720 0
DWIDTH 6 0
BBX 6 9 0 -2
BITMAP
000200
330700
048800
0057B1
03A600
357000
199122
472870
020000
ENDCHAR
STARTCHAR uni2276
ENCODING 8822
SWIDTH 720 0
DWIDTH 6 0
BBX 6 8 0 -2
BITMAP
000172
038710
2A6000
212771
277211
0007A1
048610
340000
ENDCHAR
STARTCHAR uni2277
ENCODING 8823
SWIDTH 720 0
DWIDTH 6 0
BBX 6 8 0 -2
BITMAP
460000
027720
001790
286121
104861
2B5000
027720
000062
ENDCHAR
STARTCHAR uni2278
ENCODING 8824
SWIDTH 720 0
DWIDTH 6 0
BBX 6 8 0 -2
BITMAP
000642
017B40
2B5600
106961
38A211
007891
04A610
456000
ENDCHAR
STARTCHAR uni2279
ENCODING 8825
SWIDTH 720 0
DWIDTH 6 0
BBX 6 8 0 -2
BITMAP
420600
158900
000CA1
279401
207871
2AA000
02A720
016052
ENDCHAR
STARTCHAR uni227A
ENCODING 8826
SWIDTH 720 0
DWIDTH 6 0
BBX 6 5 0 0
BITMAP
000001
000291
279710
158820
000181
ENDCHAR
STARTCHAR uni227B
ENCODING 8827
SWIDTH 720 0
DWIDTH 6 0
BBX 6 5 0 0
BITMAP
100000
381000
028961
049851
460000
ENDCHAR
STARTCHAR uni227C
ENCODING 8828
SWIDTH 720 0
DWIDTH 6 0
BBX 6 7 0 -1
BITMAP
000001
000291
38A700
148920
387271
002760
000032
ENDCHAR
STARTCHAR uni227D
ENCODING 8829
SWIDTH 720 0
DWIDTH 6 0
BBX 6 7 0 -1
BITMAP
100000
381000
028A71
049740
453881
186100
310000
ENDCHAR
STARTCHAR uni227E
ENCODING 8830
SWIDTH 720 0
DWIDTH 6 0
BBX 6 7 0 -1
BITMAP
000031
002860
4CD300
002770
000031
188122
402870
ENDCHAR
STARTCHAR uni227F
ENCODING 8831
SWIDTH 720 0
DWIDTH 6 0
BBX 6 7 0 -1
BITMAP
310000
086100
006EB1
186100
310000
188122
402870
ENDCHAR
STARTCHAR uni2280
ENCODING 8832
SWIDTH 720 0
DWIDTH 6 0
BBX 6 7 0 -1
BITMAP
000030
000161
000791
39B900
028940
007062
025000
ENDCHAR
STARTCHAR uni2281
ENCODING 8833
SWIDTH 720 0
DWIDTH 6 0
BBX 6 7 0 -1
BITMAP
000300
200700
285400
01BB91
06A520
491000
070000
ENDCHAR
STARTCHAR uni2282
ENCODING 8834
SWIDTH 720 0
DWIDTH 6 0
BBX 6 5 0 0
BITMAP
049881
380000
640000
280000
049881
ENDCHAR
STARTCHAR uni2283
ENCODING 8835
SWIDTH 720 0
DWIDTH 6 0
BBX 6 5 0 0
BITMAP
388920
0000A0
000082
0000A0
388920
ENDCHAR
STARTCHAR uni2284
ENCODING 8836
SWIDTH 720 0
DWIDTH 6 0
BBX 6 7 0 -1
BITMAP
000150
049A91
380700
644200
387000
07A881
050000
ENDCHAR
STARTCHAR uni2285
ENCODING 8837
SWIDTH 720 0
DWIDTH 6 0
BBX 6 7 0 -1
BITMAP
000130
388C30
0017A0
006182
0070A0
3A9930
060000
ENDCHAR
STARTCHAR uni2286
ENCODING 8838
SWIDTH 720 0
DWIDTH 6 0
BBX 6 6 0 -1
BITMAP
059881
380000
640000
280000
049881
388881
ENDCHAR
STARTCHAR uni2287
ENCODING 8839
SWIDTH 720 0
DWIDTH 6 0
BBX 6 6 0 -1
BITMAP
388920
0000A0
000082
0000A0
388920
388881
ENDCHAR
STARTCHAR uni2288
ENCODING 8840
SWIDTH 720 0
DWIDTH 6 0
BBX 6 8 0 -2
BITMAP
000050
059A91
380700
641500
286100
05C881
3A9881
050000
ENDCHAR
STARTCHAR uni2289
ENCODING 8841
SWIDTH 720 0
DWIDTH 6 0
BBX 6 9 0 -2
BITMAP
000020
000150
388A30
000790
002582
0061A0
38B920
3A9881
050000
ENDCHAR
STARTCHAR uni228A
ENCODING 8842
SWIDTH 720 0
DWIDTH 6 0
BBX 6 8 0 -2
BITMAP
049881
380000
640000
280000
049881
000400
28A981
004000
ENDCHAR
STARTCHAR uni228B
ENCODING 8843
SWIDTH 720 0
DWIDTH 6 0
BBX 6 8 0 -2
BITMAP
388920
0000A0
000082
0000A0
388920
000400
38A981
004000
ENDCHAR
STARTCHAR uni228C
ENCODING 8844
SWIDTH 636 0
DWIDTH 5 0
BBX 5 5 0 0
BITMAP
600060
805080
84B480
633270
067600
ENDCHAR
STARTCHAR uni228D
ENCODING 8845
SWIDTH 636 0
DWIDTH 5 0
BBX 5 5 0 0
BITMAP
600060
800080
80B080
630270
067600
ENDCHAR
STARTCHAR uni228E
ENCODING 8846
SWIDTH 636 0
DWIDTH 5 0
BBX 5 5 0 0
BITMAP
602060
808080
85C680
634270
067600
ENDCHAR
STARTCHAR uni228F
ENCODING 8847
SWIDTH 720 0
DWIDTH 6 0
BBX 6 5 0 0
BITMAP
588881
620000
620000
620000
588881
ENDCHAR
STARTCHAR uni2290
ENCODING 8848
SWIDTH 720 0
DWIDTH 6 0
BBX 6 5 0 0
BITMAP
388892
000063
000063
000063
388892
ENDCHAR
STARTCHAR uni2291
ENCODING 8849
SWIDTH 720 0
DWIDTH 6 0
BBX 6 6 0 -1
BITMAP
598881
620000
620000
620000
598881
388881
ENDCHAR
STARTCHAR uni2292
ENCODING 8850
SWIDTH 720 0
DWIDTH 6 0
BBX 6 6 0 -1
BITMAP
3888A2
000063
000063
000063
388892
388881
ENDCHAR
STARTCHAR uni2293
ENCODING 8851
SWIDTH 635 0
DWIDTH 5 0
BBX 5 5 0 0
BITMAP
788880
800080
800080
800080
600060
ENDCHAR
STARTCHAR uni2294
ENCODING 8852
SWIDTH 635 0
DWIDTH 5 0
BBX 5 5 0 0
BITMAP
600060
800080
800080
800080
788870
ENDCHAR
STARTCHAR uni2295
ENCODING 8853
SWIDTH 862 0
DWIDTH 7 0
BBX 7 7 0 -1
BITMAP
018A7100
1A282A00
73080450
888C8960
44080530
066A7500
00131000
ENDCHAR
STARTCHAR uni2296
ENCODING 8854
SWIDTH 862 0
DWIDTH 7 0
BBX 7 7 0 -1
BITMAP
01787100
1A102900
62000440
88888970
62000440
1A102900
01787100
ENDCHAR
STARTCHAR uni2297
ENCODING 8855
SWIDTH 862 0
DWIDTH 7 0
BBX 7 7 0 -1
BITMAP
01887100
1C304B00
63A5A540
803E1270
63A39440
1C304B00
01787100
ENDCHAR
STARTCHAR uni2298
ENCODING 8856
SWIDTH 862 0
DWIDTH 7 0
BBX 7 7 0 -1
BITMAP
01887100
19104C00
6203C840
803C2270
67C20440
1D301900
01787100
ENDCHAR
STARTCHAR uni2299
ENCODING 8857
SWIDTH 862 0
DWIDTH 7 0
BBX 7 7 0 -1
BITMAP
01887100
19102900
63000440
801D0270
63010440
19102900
01887100
ENDCHAR
STARTCHAR uni229A
ENCODING 8858
SWIDTH 862 0
DWIDTH 7 0
BBX 7 7 0 -1
BITMAP
01887100
19102900
63392440
80817270
63392440
19102900
01887100
ENDCHAR
STARTCHAR uni229B
ENCODING 8859
SWIDTH 862 0
DWIDTH 7 0
BBX 7 7 0 -1
BITMAP
01887100
19132900
63676440
80694270
63777440
19132900
01887100
ENDCHAR
STARTCHAR uni229C
ENCODING 8860
SWIDTH 862 0
DWIDTH 7 0
BBX 7 7 0 -1
BITMAP
01887100
19102900
63000440
82888370
65888640
19102900
01887100
ENDCHAR
STARTCHAR uni229D
ENCODING 8861
SWIDTH 862 0
DWIDTH 7 0
BBX 7 7 0 -1
BITMAP
01887100
19102900
63000440
82888370
63000440
19102900
01887100
ENDCHAR
STARTCHAR uni229E
ENCODING 8862
SWIDTH 932 0
DWIDTH 7 0
BBX 8 7 0 -2
BITMAP
788A88A1
80060071
80060071
966A66A1
80060071
80060071
788A88A1
ENDCHAR
STARTCHAR uni229F
ENCODING 8863
SWIDTH 932 0
DWIDTH 7 0
BBX 8 7 0 -2
BITMAP
788888A1
80000071
80000071
966666A1
80000071
80000071
788888A1
ENDCHAR
STARTCHAR uni22A0
ENCODING 8864
SWIDTH 932 0
DWIDTH 7 0
BBX 8 7 0 -2
BITMAP
798888B1
872007A1
80727371
800B4071
80727271
87200691
798888B1
ENDCHAR
STARTCHAR uni22A1
ENCODING 8865
SWIDTH 932 0
DWIDTH 7 0
BBX 8 7 0 -1
BITMAP
788888A1
80000071
80000071
80092071
80000071
80000071
788888A1
ENDCHAR
STARTCHAR uni22A2
ENCODING 8866
SWIDTH 720 0
DWIDTH 6 0
BBX 6 7 0 -1
BITMAP
110000
620000
620000
698881
620000
620000
210000
ENDCHAR
STARTCHAR uni22A3
ENCODING 8867
SWIDTH 720 0
DWIDTH 6 0
BBX 6 7 0 -1
BITMAP
000011
000063
000063
3888B3
000063
000063
000011
ENDCHAR
STARTCHAR uni22A4
ENCODING 8868
SWIDTH 720 0
DWIDTH 6 0
BBX 6 6 0 0
BITMAP
489982
006200
006200
006200
006200
005200
ENDCHAR
STARTCHAR uni22A5
ENCODING 8869
SWIDTH 720 0
DWIDTH 6 0
BBX 6 6 0 0
BITMAP
004200
006200
006200
006200
006200
489982
ENDCHAR
STARTCHAR uni22A6
ENCODING 8870
SWIDTH 509 0
DWIDTH 4 0
BBX 4 7 0 -1
BITMAP
2000
7100
7100
7884
7100
7100
2000
ENDCHAR
STARTCHAR uni22A7
ENCODING 8871
SWIDTH 510 0
DWIDTH 4 0
BBX 4 7 0 -1
BITMAP
2000
7100
7884
7100
7884
7100
2000
ENDCHAR
STARTCHAR uni22A8
ENCODING 8872
SWIDTH 720 0
DWIDTH 6 0
BBX 6 7 0 -1
BITMAP
100000
620000
698881
620000
698881
620000
210000
ENDCHAR
STARTCHAR uni22A9
ENCODING 8873
SWIDTH 880 0
DWIDTH 7 0
BBX 7 7 0 -1
BITMAP
20200000
80800000
80800000
80B88850
80800000
80800000
20200000
ENDCHAR
STARTCHAR uni22AA
ENCODING 8874
SWIDTH 880 0
DWIDTH 7 0
BBX 7 7 0 -1
BITMAP
20211000
80853000
80853000
80859850
80853000
80853000
20211000
ENDCHAR
STARTCHAR uni22AB
ENCODING 8875
SWIDTH 880 0
DWIDTH 7 0
BBX 7 7 0 -1
BITMAP
20200000
80800000
80B88850
80800000
80B88850
80800000
20200000
ENDCHAR
STARTCHAR uni22AC
ENCODING 8876
SWIDTH 805 0
DWIDTH 6 0
BBX 6 7 0 -1
BITMAP
020002
080054
080540
09AA87
095000
3B0000
220000
ENDCHAR
STARTCHAR uni22AD
ENCODING 8877
SWIDTH 805 0
DWIDTH 6 0
BBX 6 7 0 -1
BITMAP
020002
080053
098AA7
084400
09A887
3B0000
220000
ENDCHAR
STARTCHAR uni22AE
ENCODING 8878
SWIDTH 991 0
DWIDTH 8 0
BBX 8 7 0 -1
BITMAP
02020011
08080270
08084500
080CA884
08780000
2B180000
22020000
ENDCHAR
STARTCHAR uni22AF
ENCODING 8879
SWIDTH 991 0
DWIDTH 8 0
BBX 8 7 0 -1
BITMAP
02020011
08080360
080CBA85
080D3000
087C8885
2B180000
32020000
ENDCHAR
STARTCHAR uni22B0
ENCODING 8880
SWIDTH 720 0
DWIDTH 6 0
BBX 6 6 0 -1
BITMAP
000270
000071
257860
268A60
000071
000370
ENDCHAR
STARTCHAR uni22B1
ENCODING 8881
SWIDTH 720 0
DWIDTH 6 0
BBX 6 6 0 -1
BITMAP
271000
530000
089751
079861
540000
271000
ENDCHAR
STARTCHAR uni22B2
ENCODING 8882
SWIDTH 720 0
DWIDTH 6 0
BBX 6 6 0 -1
BITMAP
000001
0017A6
288236
169436
0005A6
000001
ENDCHAR
STARTCHAR uni22B3
ENCODING 8883
SWIDTH 720 0
DWIDTH 6 0
BBX 6 6 0 -1
BITMAP
200000
996000
803971
805950
994000
100000
ENDCHAR
STARTCHAR uni22B4
ENCODING 8884
SWIDTH 720 0
DWIDTH 6 0
BBX 6 6 0 -1
BITMAP
000395
049636
3B6036
003896
000022
488883
ENDCHAR
STARTCHAR uni22B5
ENCODING 8885
SWIDTH 720 0
DWIDTH 6 0
BBX 6 6 0 -1
BITMAP
871000
817820
801891
988200
310000
588882
ENDCHAR
STARTCHAR uni22B6
ENCODING 8886
SWIDTH 1172 0
DWIDTH 9 0
BBX 9 3 0 1
BITMAP
2740001950
708888BFD0
2740001950
ENDCHAR
STARTCHAR uni22B7
ENCODING 8887
SWIDTH 1172 0
DWIDTH 9 0
BBX 9 3 0 1
BITMAP
2A50001750
8FE888B170
2A50001750
ENDCHAR
STARTCHAR uni22B8
ENCODING 8888
SWIDTH 869 0
DWIDTH 7 0
BBX 7 3 0 1
BITMAP
00004720
58888060
00004720
ENDCHAR
STARTCHAR uni22B9
ENCODING 8889
SWIDTH 720 0
DWIDTH 6 0
BBX 6 5 0 0
BITMAP
005200
006200
482482
005200
006200
ENDCHAR
STARTCHAR uni22BA
ENCODING 8890
SWIDTH 491 0
DWIDTH 4 0
BBX 4 6 0 -2
BITMAP
3A93
0650
0650
0650
0650
0440
ENDCHAR
STARTCHAR uni22BB
ENCODING 8891
SWIDTH 635 0
DWIDTH 5 0
BBX 5 6 0 -1
BITMAP
500060
260530
081800
02B300
005000
588860
ENDCHAR
STARTCHAR uni22BC
ENCODING 8892
SWIDTH 635 0
DWIDTH 5 0
BBX 5 6 0 0
BITMAP
588850
006000
02A400
080800
260530
600060
ENDCHAR
STARTCHAR uni22BD
ENCODING 8893
SWIDTH 635 0
DWIDTH 5 0
BBX 5 6 0 0
BITMAP
588850
610070
270530
071800
02B300
005000
ENDCHAR
STARTCHAR uni22BE
ENCODING 8894
SWIDTH 720 0
DWIDTH 6 0
BBX 6 6 0 0
BITMAP
200000
800000
892000
829200
801900
688A82
ENDCHAR
STARTCHAR uni22BF
ENCODING 8895
SWIDTH 933 0
DWIDTH 7 0
BBX 8 7 0 -2
BITMAP
00000051
000005C1
00005671
00056071
00560071
05600071
3B8888A1
ENDCHAR
STARTCHAR uni22C0
ENCODING 8896
SWIDTH 946 0
DWIDTH 8 0
BBX 7 9 0 -2
BITMAP
00041000
000C6000
0038A000
00828200
00A03700
04600A00
09100630
19000180
64000090
ENDCHAR
STARTCHAR uni22C1
ENCODING 8897
SWIDTH 946 0
DWIDTH 8 0
BBX 7 9 0 -2
BITMAP
41000040
36000090
0A000460
07300910
02801900
00A05400
00649000
001B8000
000A3000
ENDCHAR
STARTCHAR uni22C2
ENCODING 8898
SWIDTH 946 0
DWIDTH 8 0
BBX 7 9 0 -2
BITMAP
01799400
09300740
27000090
46000090
46000090
46000090
46000090
46000090
34000070
ENDCHAR
STARTCHAR uni22C3
ENCODING 8899
SWIDTH 946 0
DWIDTH 8 0
BBX 7 9 0 -2
BITMAP
24000060
46000090
46000090
46000090
46000090
46000090
27000090
0A300740
01799400
ENDCHAR
STARTCHAR uni22C4
ENCODING 8900
SWIDTH 535 0
DWIDTH 4 0
BBX 4 4 0 0
BITMAP
0580
5638
4747
0470
ENDCHAR
STARTCHAR uni22C5
ENCODING 8901
SWIDTH 293 0
DWIDTH 2 0
BBX 2 1 0 2
BITMAP
37
ENDCHAR
STARTCHAR uni22C6
ENCODING 8902
SWIDTH 716 0
DWIDTH 6 0
BBX 6 5 0 0
BITMAP
004100
009500
3DFFB1
04FE00
063640
ENDCHAR
STARTCHAR uni22C7
ENCODING 8903
SWIDTH 720 0
DWIDTH 6 0
BBX 6 5 0 -1
BITMAP
389781
48ED82
066930
3874A1
100010
ENDCHAR
STARTCHAR uni22C8
ENCODING 8904
SWIDTH 829 0
DWIDTH 7 0
BBX 7 6 0 -1
BITMAP
51000320
89206B30
80895530
81986530
89104C30
40000220
ENDCHAR
STARTCHAR uni22C9
ENCODING 8905
SWIDTH 829 0
DWIDTH 7 0
BBX 6 6 0 -1
BITMAP
220005
4B3075
458A40
459850
4C2066
220004
ENDCHAR
STARTCHAR uni22CA
ENCODING 8906
SWIDTH 829 0
DWIDTH 7 0
BBX 6 6 0 -1
BITMAP
220005
08307B
008948
009858
19206B
220003
ENDCHAR
STARTCHAR uni22CB
ENCODING 8907
SWIDTH 829 0
DWIDTH 7 0
BBX 6 6 0 -1
BITMAP
240000
074000
007400
008940
083074
230005
ENDCHAR
STARTCHAR uni22CC
ENCODING 8908
SWIDTH 829 0
DWIDTH 7 0
BBX 6 6 0 -1
BITMAP
000006
000083
000830
008940
083074
230005
ENDCHAR
STARTCHAR uni22CD
ENCODING 8909
SWIDTH 720 0
DWIDTH 6 0
BBX 6 4 0 0
BITMAP
402870
187122
000000
488882
ENDCHAR
STARTCHAR uni22CE
ENCODING 8910
SWIDTH 594 0
DWIDTH 5 0
BBX 5 5 0 0
BITMAP
410220
170800
076400
02D000
00A000
ENDCHAR
STARTCHAR uni22CF
ENCODING 8911
SWIDTH 594 0
DWIDTH 5 0
BBX 5 5 0 0
BITMAP
005000
01C000
05C100
092700
640720
ENDCHAR
STARTCHAR uni22D0
ENCODING 8912
SWIDTH 720 0
DWIDTH 6 0
BBX 6 5 0 0
BITMAP
049881
388881
676000
288881
049881
ENDCHAR
STARTCHAR uni22D1
ENCODING 8913
SWIDTH 720 0
DWIDTH 6 0
BBX 6 5 0 0
BITMAP
388920
3887A0
000982
3887A0
388920
ENDCHAR
STARTCHAR uni22D2
ENCODING 8914
SWIDTH 635 0
DWIDTH 5 0
BBX 5 5 0 -1
BITMAP
079700
679670
872880
871880
651660
ENDCHAR
STARTCHAR uni22D3
ENCODING 8915
SWIDTH 635 0
DWIDTH 5 0
BBX 5 5 0 0
BITMAP
651660
871880
872880
679670
078700
ENDCHAR
STARTCHAR uni22D4
ENCODING 8916
SWIDTH 635 0
DWIDTH 5 0
BBX 5 6 0 0
BITMAP
004000
06C600
558560
808080
808080
808080
ENDCHAR
STARTCHAR uni22D5
ENCODING 8917
SWIDTH 720 0
DWIDTH 6 0
BBX 6 8 0 -2
BITMAP
024600
035800
49AC82
035800
49AC82
035800
035800
011200
ENDCHAR
STARTCHAR uni22D6
ENCODING 8918
SWIDTH 720 0
DWIDTH 6 0
BBX 6 5 0 0
BITMAP
000062
006830
2C3660
017810
000172
ENDCHAR
STARTCHAR uni22D7
ENCODING 8919
SWIDTH 720 0
DWIDTH 6 0
BBX 6 5 0 0
BITMAP
440000
048400
0936B1
038610
460000
ENDCHAR
STARTCHAR uni22D8
ENCODING 8920
SWIDTH 1304 0
DWIDTH 10 0
BBX 10 6 0 -1
BITMAP
0000200202
0038668586
3867858610
1775867820
0017738468
0000100100
ENDCHAR
STARTCHAR uni22D9
ENCODING 8921
SWIDTH 1304 0
DWIDTH 10 0
BBX 10 6 0 -1
BITMAP
2012020000
3857858500
0039678596
0068587683
4838648300
1000010000
ENDCHAR
STARTCHAR uni22DA
ENCODING 8922
SWIDTH 720 0
DWIDTH 6 0
BBX 6 11 0 -3
BITMAP
000001
003881
2B8000
005871
000011
488882
210000
278400
001A90
387200
100000
ENDCHAR
STARTCHAR uni22DB
ENCODING 8923
SWIDTH 720 0
DWIDTH 6 0
BBX 6 11 0 -3
BITMAP
100000
387200
001A90
278400
210000
488882
000021
005871
2B8000
003881
000001
ENDCHAR
STARTCHAR uni22DC
ENCODING 8924
SWIDTH 720 0
DWIDTH 6 0
BBX 6 6 0 -1
BITMAP
388881
000031
003860
2A6000
049500
000381
ENDCHAR
STARTCHAR uni22DD
ENCODING 8925
SWIDTH 720 0
DWIDTH 6 0
BBX 6 6 0 -1
BITMAP
388881
310000
178200
001890
017820
382000
ENDCHAR
STARTCHAR uni22DE
ENCODING 8926
SWIDTH 720 0
DWIDTH 6 0
BBX 6 7 0 -2
BITMAP
000032
002760
397271
148920
28A710
000291
000001
ENDCHAR
STARTCHAR uni22DF
ENCODING 8927
SWIDTH 720 0
DWIDTH 6 0
BBX 6 7 0 -2
BITMAP
310000
186100
453881
049740
028A71
381000
100000
ENDCHAR
STARTCHAR uni22E0
ENCODING 8928
SWIDTH 720 0
DWIDTH 6 0
BBX 6 8 0 -2
BITMAP
000070
0003A1
147B20
399900
365770
13A941
006062
025000
ENDCHAR
STARTCHAR uni22E1
ENCODING 8929
SWIDTH 720 0
DWIDTH 6 0
BBX 6 8 0 -2
BITMAP
000700
342500
04B620
00AA91
187251
26A630
4A0000
070000
ENDCHAR
STARTCHAR uni22E2
ENCODING 8930
SWIDTH 720 0
DWIDTH 6 0
BBX 6 8 0 -2
BITMAP
000050
598A91
620700
622500
626000
59B881
3A9881
050000
ENDCHAR
STARTCHAR uni22E3
ENCODING 8931
SWIDTH 720 0
DWIDTH 6 0
BBX 6 8 0 -2
BITMAP
000050
388AB2
000763
001663
006163
38B892
3AA881
050000
ENDCHAR
STARTCHAR uni22E4
ENCODING 8932
SWIDTH 720 0
DWIDTH 6 0
BBX 6 8 0 -2
BITMAP
588881
620000
620000
620000
588881
000400
38A981
004000
ENDCHAR
STARTCHAR uni22E5
ENCODING 8933
SWIDTH 720 0
DWIDTH 6 0
BBX 6 8 0 -2
BITMAP
388892
000063
000063
000063
388892
000400
38A981
004000
ENDCHAR
STARTCHAR uni22E6
ENCODING 8934
SWIDTH 720 0
DWIDTH 6 0
BBX 6 9 0 -3
BITMAP
000011
001771
187100
178200
000681
000500
189422
407870
004000
ENDCHAR
STARTCHAR uni22E7
ENCODING 8935
SWIDTH 720 0
DWIDTH 6 0
BBX 6 9 0 -3
BITMAP
200000
286000
003860
004950
384000
100500
188522
407870
005000
ENDCHAR
STARTCHAR uni22E8
ENCODING 8936
SWIDTH 720 0
DWIDTH 6 0
BBX 6 9 0 -3
BITMAP
000001
000291
279710
158920
000181
000500
189422
407870
015000
ENDCHAR
STARTCHAR uni22E9
ENCODING 8937
SWIDTH 720 0
DWIDTH 6 0
BBX 6 9 0 -3
BITMAP
100000
371000
028961
049851
460000
000500
188522
407870
005000
ENDCHAR
STARTCHAR uni22EA
ENCODING 8938
SWIDTH 650 0
DWIDTH 5 0
BBX 5 7 0 -1
BITMAP
000220
000630
005BA0
4A9180
06C380
033590
070000
ENDCHAR
STARTCHAR uni22EB
ENCODING 8939
SWIDTH 650 0
DWIDTH 5 0
BBX 5 7 0 -1
BITMAP
000300
300700
888400
807960
82B710
7B1000
060000
ENDCHAR
STARTCHAR uni22EC
ENCODING 8940
SWIDTH 650 0
DWIDTH 5 0
BBX 5 9 0 -2
BITMAP
000100
000610
001BA0
18A480
4A9080
00A9A0
034040
7B8860
050000
ENDCHAR
STARTCHAR uni22ED
ENCODING 8941
SWIDTH 650 0
DWIDTH 5 0
BBX 5 9 0 -2
BITMAP
000200
100700
884500
81A920
808960
889000
343000
5B8880
050000
ENDCHAR
STARTCHAR uni22EE
ENCODING 8942
SWIDTH 519 0
DWIDTH 4 0
BBX 2 6 1 -1
BITMAP
46
00
00
46
00
46
ENDCHAR
STARTCHAR uni22EF
ENCODING 8943
SWIDTH 953 0
DWIDTH 8 0
BBX 7 1 0 2
BITMAP
28072190
ENDCHAR
STARTCHAR uni22F0
ENCODING 8944
SWIDTH 962 0
DWIDTH 8 0
BBX 5 4 1 0
BITMAP
000090
007300
000000
460000
ENDCHAR
STARTCHAR uni22F1
ENCODING 8945
SWIDTH 962 0
DWIDTH 8 0
BBX 5 4 1 0
BITMAP
460000
007300
000000
000090
ENDCHAR
STARTCHAR uni22F2
ENCODING 8946
SWIDTH 838 0
DWIDTH 7 0
BBX 7 5 0 0
BITMAP
00498810
02800000
4AA88810
02800000
00498810
ENDCHAR
STARTCHAR uni22F3
ENCODING 8947
SWIDTH 720 0
DWIDTH 6 0
BBX 6 5 0 0
BITMAP
049881
380042
6A88B3
280042
049881
ENDCHAR
STARTCHAR uni22F4
ENCODING 8948
SWIDTH 497 0
DWIDTH 4 0
BBX 4 4 0 0
BITMAP
0783
6415
6997
0783
ENDCHAR
STARTCHAR uni22F5
ENCODING 8949
SWIDTH 720 0
DWIDTH 6 0
BBX 6 6 0 0
BITMAP
005600
049881
380000
6A8881
280000
049881
ENDCHAR
STARTCHAR uni22F6
ENCODING 8950
SWIDTH 720 0
DWIDTH 6 0
BBX 6 6 0 0
BITMAP
288881
049881
380000
6A8881
280000
049881
ENDCHAR
STARTCHAR uni22F7
ENCODING 8951
SWIDTH 497 0
DWIDTH 4 0
BBX 4 5 0 0
BITMAP
3883
0783
6400
6983
0783
ENDCHAR
STARTCHAR uni22F8
ENCODING 8952
SWIDTH 720 0
DWIDTH 6 0
BBX 6 6 0 -2
BITMAP
049881
380000
6A8881
280000
049881
288881
ENDCHAR
STARTCHAR uni22F9
ENCODING 8953
SWIDTH 720 0
DWIDTH 6 0
BBX 6 5 0 0
BITMAP
048881
3A8881
630000
2A8881
048881
ENDCHAR
STARTCHAR uni22FA
ENCODING 8954
SWIDTH 838 0
DWIDTH 7 0
BBX 7 5 0 0
BITMAP
48892000
0001A000
4888C820
0001A000
48881000
ENDCHAR
STARTCHAR uni22FB
ENCODING 8955
SWIDTH 720 0
DWIDTH 6 0
BBX 6 5 0 0
BITMAP
388820
4100A0
6988C2
4101A0
388820
ENDCHAR
STARTCHAR uni22FC
ENCODING 8956
SWIDTH 497 0
DWIDTH 4 0
BBX 4 4 0 0
BITMAP
4870
5055
8895
4860
ENDCHAR
STARTCHAR uni22FD
ENCODING 8957
SWIDTH 720 0
DWIDTH 6 0
BBX 6 6 0 0
BITMAP
388880
388820
0001A0
3888C2
0001A0
388930
ENDCHAR
STARTCHAR uni22FE
ENCODING 8958
SWIDTH 497 0
DWIDTH 4 0
BBX 4 5 0 0
BITMAP
4883
4870
0045
4895
4860
ENDCHAR
STARTCHAR uni22FF
ENCODING 8959
SWIDTH 932 0
DWIDTH 7 0
BBX 8 7 0 -2
BITMAP
66666661
80000000
80000000
96666661
80000000
80000000
66666661
ENDCHAR
STARTCHAR uni2300
ENCODING 8960
SWIDTH 620 0
DWIDTH 5 0
BBX 5 4 0 0
BITMAP
078840
553640
552650
488600
ENDCHAR
STARTCHAR uni2301
ENCODING 8961
SWIDTH 598 0
DWIDTH 5 0
BBX 5 2 0 1
BITMAP
76B500
048550
ENDCHAR
STARTCHAR uni2302
ENCODING 8962
SWIDTH 948 0
DWIDTH 8 0
BBX 8 7 0 0
BITMAP
00041000
00679200
07500930
73000091
80000062
80000062
68888892
ENDCHAR
STARTCHAR uni2303
ENCODING 8963
SWIDTH 630 0
DWIDTH 5 0
BBX 5 3 0 3
BITMAP
004000
068600
460540
ENDCHAR
STARTCHAR uni2304
ENCODING 8964
SWIDTH 630 0
DWIDTH 5 0
BBX 5 3 0 -1
BITMAP
460540
067600
004000
ENDCHAR
STARTCHAR uni2305
ENCODING 8965
SWIDTH 635 0
DWIDTH 5 0
BBX 5 5 0 0
BITMAP
588860
00B100
065700
180810
520150
ENDCHAR
STARTCHAR uni2306
ENCODING 8966
SWIDTH 635 0
DWIDTH 5 0
BBX 5 6 0 0
BITMAP
588860
588860
00B100
065700
180810
520150
ENDCHAR
STARTCHAR uni2307
ENCODING 8967
SWIDTH 470 0
DWIDTH 4 0
BBX 3 8 0 -2
BITMAP
0400
0670
0480
1900
0580
0570
1900
0480
ENDCHAR
STARTCHAR uni2308
ENCODING 8968
SWIDTH 349 0
DWIDTH 3 0
BBX 3 8 0 -2
BITMAP
3620
4500
4500
4500
4500
4500
4500
3300
ENDCHAR
STARTCHAR uni2309
ENCODING 8969
SWIDTH 349 0
DWIDTH 3 0
BBX 3 8 0 -2
BITMAP
3710
0810
0810
0810
0810
0810
0810
0510
ENDCHAR
STARTCHAR uni230A
ENCODING 8970
SWIDTH 349 0
DWIDTH 3 0
BBX 3 8 0 -2
BITMAP
4500
4500
4500
4500
4500
4500
4500
3620
ENDCHAR
STARTCHAR uni230B
ENCODING 8971
SWIDTH 349 0
DWIDTH 3 0
BBX 3 8 0 -2
BITMAP
0710
0810
0810
0810
0810
0810
0810
3710
ENDCHAR
STARTCHAR uni230C
ENCODING 8972
SWIDTH 474 0
DWIDTH 4 0
BBX 4 4 0 -2
BITMAP
2883
8000
8000
2000
ENDCHAR
STARTCHAR uni230D
ENCODING 8973
SWIDTH 474 0
DWIDTH 4 0
BBX 4 4 0 -2
BITMAP
5871
0036
0036
0011
ENDCHAR
STARTCHAR uni230E
ENCODING 8974
SWIDTH 474 0
DWIDTH 4 0
BBX 4 4 0 4
BITMAP
2000
8000
8000
2883
ENDCHAR
STARTCHAR uni230F
ENCODING 8975
SWIDTH 474 0
DWIDTH 4 0
BBX 4 4 0 4
BITMAP
0011
0036
0036
5871
ENDCHAR
STARTCHAR uni2310
ENCODING 8976
SWIDTH 614 0
DWIDTH 5 0
BBX 5 3 0 0
BITMAP
788840
800000
200000
ENDCHAR
STARTCHAR uni2311
ENCODING 8977
SWIDTH 535 0
DWIDTH 4 0
BBX 4 3 0 0
BITMAP
3656
2305
3656
ENDCHAR
STARTCHAR uni2312
ENCODING 8978
SWIDTH 780 0
DWIDTH 6 0
BBX 6 3 0 0
BITMAP
038850
370056
600006
ENDCHAR
STARTCHAR uni2313
ENCODING 8979
SWIDTH 780 0
DWIDTH 6 0
BBX 6 3 0 0
BITMAP
038850
370056
688888
ENDCHAR
STARTCHAR uni2314
ENCODING 8980
SWIDTH 604 0
DWIDTH 5 0
BBX 5 4 0 1
BITMAP
377720
730550
083700
019000
ENDCHAR
STARTCHAR uni2315
ENCODING 8981
SWIDTH 867 0
DWIDTH 7 0
BBX 7 7 0 -2
BITMAP
00588200
06500910
08000260
09000260
07500910
29688200
51000000
ENDCHAR
STARTCHAR uni2316
ENCODING 8982
SWIDTH 1126 0
DWIDTH 9 0
BBX 9 9 0 -2
BITMAP
0000600000
0001A10000
0049A85000
0190809100
59B8C8B950
0190809100
0058A85000
0002A20000
0000600000
ENDCHAR
STARTCHAR uni2317
ENCODING 8983
SWIDTH 1126 0
DWIDTH 9 0
BBX 9 9 0 -2
BITMAP
0020002000
0081008000
59C999C950
0081008000
0081008000
0081008000
48C888C850
0081008000
0061006000
ENDCHAR
STARTCHAR uni2318
ENCODING 8984
SWIDTH 948 0
DWIDTH 8 0
BBX 8 7 0 -1
BITMAP
29803970
71538081
29AAC870
00448000
29AAC870
71538081
29803970
ENDCHAR
STARTCHAR uni2319
ENCODING 8985
SWIDTH 614 0
DWIDTH 5 0
BBX 5 3 0 1
BITMAP
600000
800000
788840
ENDCHAR
STARTCHAR uni231A
ENCODING 8986
SWIDTH 720 0
DWIDTH 6 0
BBX 6 7 0 -1
BITMAP
027700
07BB40
370690
656392
360090
07AA40
027700
ENDCHAR
STARTCHAR uni231B
ENCODING 8987
SWIDTH 633 0
DWIDTH 5 0
BBX 5 6 0 0
BITMAP
498940
063610
069600
066600
09E910
498940
ENDCHAR
STARTCHAR uni231C
ENCODING 8988
SWIDTH 474 0
DWIDTH 4 0
BBX 4 4 0 2
BITMAP
7883
8000
8000
2000
ENDCHAR
STARTCHAR uni231D
ENCODING 8989
SWIDTH 474 0
DWIDTH 4 0
BBX 4 4 0 2
BITMAP
5894
0036
0036
0011
ENDCHAR
STARTCHAR uni231E
ENCODING 8990
SWIDTH 474 0
DWIDTH 4 0
BBX 4 4 0 -2
BITMAP
2000
8000
8000
6883
ENDCHAR
STARTCHAR uni231F
ENCODING 8991
SWIDTH 474 0
DWIDTH 4 0
BBX 4 4 0 -2
BITMAP
0011
0036
0036
5894
ENDCHAR
STARTCHAR uni2320
ENCODING 8992
SWIDTH 767 0
DWIDTH 6 0
BBX 4 14 2 -1
BITMAP
0481
1883
5600
8500
9500
A500
B500
B500
B500
B500
B500
B500
B500
2100
ENDCHAR
STARTCHAR uni2321
ENCODING 8993
SWIDTH 767 0
DWIDTH 6 0
BBX 4 16 0 0
BITMAP
0031
00B5
00B5
00B5
00B5
00B5
00B4
00B4
00C3
00C3
00C2
00C1
00C0
20A0
D370
7710
ENDCHAR
STARTCHAR uni2322
ENCODING 8994
SWIDTH 1043 0
DWIDTH 8 0
BBX 8 2 0 1
BITMAP
018AA930
24100033
ENDCHAR
STARTCHAR uni2323
ENCODING 8995
SWIDTH 1043 0
DWIDTH 8 0
BBX 8 2 0 1
BITMAP
24000033
028AA920
ENDCHAR
STARTCHAR uni2324
ENCODING 8996
SWIDTH 630 0
DWIDTH 5 0
BBX 5 3 0 3
BITMAP
458540
084800
430240
ENDCHAR
ENDFONT
